{"glyphs":{"0":{"ha":982,"x_min":0,"x_max":0,"o":"m 931 464 b 794 96 931 367 906 206 b 490 -21 725 28 625 -21 b 186 96 356 -21 256 28 b 50 464 75 206 50 367 b 186 831 50 560 75 721 b 490 947 256 899 356 947 b 794 831 625 947 725 899 b 931 464 906 721 931 560 m 490 672 b 431 649 468 672 449 665 b 371 468 388 610 371 529 b 431 289 371 397 389 326 b 490 265 449 272 468 265 b 549 289 515 265 532 275 b 608 468 607 340 608 442 b 549 649 608 539 590 611 b 490 672 532 663 515 672 "},"1":{"ha":982,"x_min":0,"x_max":0,"o":"m 375 0 l 375 628 l 232 617 l 232 926 l 708 926 l 708 0 "},"2":{"ha":982,"x_min":0,"x_max":0,"o":"m 924 0 l 6 0 l 386 338 b 517 468 431 376 464 406 b 579 600 546 503 579 549 b 557 651 579 619 572 638 b 501 672 542 667 522 672 b 442 644 468 672 450 656 b 419 556 426 625 419 582 l 92 556 b 182 825 89 665 128 765 b 511 947 256 906 381 947 b 826 831 650 947 758 900 b 913 619 867 789 913 721 b 815 390 913 531 885 456 b 586 261 744 322 642 281 l 586 251 b 782 278 647 264 717 275 l 924 285 "},"3":{"ha":982,"x_min":0,"x_max":0,"o":"m 761 490 b 857 433 803 478 835 456 b 914 283 896 394 914 349 b 833 88 914 204 886 139 b 496 -21 731 -15 583 -21 b 147 92 293 -21 194 43 b 57 319 103 136 58 215 l 396 319 b 428 238 396 285 410 254 b 492 214 442 224 464 214 b 557 239 524 214 544 226 b 582 301 572 254 582 276 b 560 364 582 325 574 347 b 451 388 531 396 483 396 l 451 579 b 526 593 479 572 508 578 b 549 650 542 606 549 624 b 529 696 549 667 543 683 b 485 711 519 706 504 711 b 443 694 467 711 451 703 b 425 640 432 683 424 663 l 94 640 b 228 883 96 694 111 807 b 490 947 310 938 415 947 b 799 847 654 947 747 896 b 875 676 858 790 875 725 b 831 546 875 617 854 572 b 761 497 811 525 786 507 l 761 490 "},"4":{"ha":982,"x_min":0,"x_max":0,"o":"m 821 0 l 503 0 l 514 185 l 44 175 l 44 418 l 424 926 l 821 926 l 821 428 l 938 436 l 938 175 l 813 185 m 515 428 l 515 561 b 529 642 515 588 521 615 l 521 647 b 479 582 507 618 493 600 l 392 469 b 351 425 379 453 374 443 l 354 418 b 431 428 381 425 403 428 "},"5":{"ha":982,"x_min":0,"x_max":0,"o":"m 229 926 l 858 926 l 858 668 l 463 668 b 433 561 460 639 453 601 l 442 561 b 586 610 461 582 497 610 b 833 522 664 610 767 585 b 917 318 888 471 917 394 b 819 100 917 258 896 174 b 475 -21 751 35 638 -21 b 254 7 400 -21 321 -8 b 103 54 204 18 156 33 l 140 306 b 414 228 226 261 332 228 b 524 246 421 228 481 228 b 581 319 575 268 581 304 b 522 397 581 344 569 376 b 390 419 483 414 439 419 b 149 379 325 419 246 413 "},"6":{"ha":982,"x_min":0,"x_max":0,"o":"m 839 926 l 543 667 l 544 658 b 625 672 572 668 597 672 b 824 593 696 672 765 653 b 913 354 876 539 913 454 b 815 108 913 254 878 174 b 482 -21 754 44 649 -21 b 142 108 335 -21 218 31 b 35 386 88 164 35 254 b 181 703 35 503 79 599 l 399 926 m 358 356 b 388 281 358 332 364 306 b 472 244 408 258 439 244 b 553 275 504 244 532 257 b 588 358 578 297 588 326 b 547 450 588 400 571 429 b 471 481 526 468 497 481 b 397 453 444 481 414 468 b 358 356 372 432 358 394 "},"7":{"ha":982,"x_min":0,"x_max":0,"o":"m 472 0 l 100 0 l 456 597 b 489 640 465 614 472 625 l 488 649 b 382 639 440 639 414 640 l 100 629 l 100 926 l 999 926 "},"8":{"ha":982,"x_min":0,"x_max":0,"o":"m 742 474 b 857 415 790 465 831 443 b 913 264 893 378 913 322 b 844 96 913 197 885 139 b 497 -21 797 44 697 -21 b 136 97 288 -21 186 44 b 68 260 82 154 68 217 b 132 418 68 325 93 381 b 236 474 143 429 178 460 l 236 483 b 143 539 224 488 178 501 b 97 674 110 575 97 619 b 206 869 97 760 140 822 b 492 947 297 935 410 947 b 811 842 665 947 761 890 b 885 668 858 794 885 739 b 840 542 885 619 875 581 b 740 483 807 506 769 490 m 492 714 b 440 692 472 714 451 703 b 421 644 425 676 421 661 b 440 590 421 621 426 604 b 492 568 454 575 472 568 b 543 590 514 568 529 576 b 563 644 557 606 563 621 b 543 692 563 661 558 676 b 492 714 532 703 511 714 m 401 293 b 426 229 401 274 406 250 b 493 203 443 213 468 203 b 560 229 518 203 543 213 b 585 293 581 250 585 274 b 560 364 585 318 581 343 b 493 390 543 381 518 390 b 426 364 468 390 443 381 b 401 293 406 343 401 318 "},"9":{"ha":982,"x_min":0,"x_max":0,"o":"m 122 0 l 365 215 b 411 247 376 225 394 238 l 411 253 b 360 250 397 251 381 250 b 136 340 264 250 190 283 b 50 579 89 390 50 467 b 147 825 50 676 83 760 b 483 947 221 901 331 947 b 835 818 599 947 732 922 b 932 561 908 743 932 664 b 794 236 932 433 889 335 l 569 0 m 383 564 b 415 479 383 532 394 500 b 496 446 435 460 464 446 b 574 478 526 446 556 460 b 606 564 592 496 606 526 b 572 644 606 596 594 624 b 494 675 556 660 531 675 b 417 643 464 675 440 668 b 383 564 397 622 383 594 "}," ":{"ha":324,"x_min":0,"x_max":0,"o":""},"!":{"ha":568,"x_min":0,"x_max":0,"o":"m 443 354 l 119 354 l 119 926 l 443 926 m 467 139 b 424 36 467 104 451 64 b 283 -17 388 0 332 -17 b 144 36 236 -17 181 0 b 101 139 117 64 101 104 b 144 240 101 172 117 213 b 283 293 181 276 236 293 b 424 240 332 293 388 276 b 467 139 451 213 467 172 "},"\"":{"ha":579,"x_min":0,"x_max":0,"o":"m 228 554 l 90 554 l 57 926 l 263 926 m 489 554 l 350 554 l 317 926 l 522 926 "},"#":{"ha":833,"x_min":0,"x_max":0,"o":"m 800 415 l 776 253 l 635 253 l 594 0 l 408 0 l 450 253 l 332 253 l 292 0 l 108 0 l 150 253 l 8 253 l 33 415 l 174 415 l 193 531 l 53 531 l 78 692 l 218 692 l 256 926 l 439 926 l 400 692 l 518 692 l 556 926 l 740 926 l 703 692 l 842 692 l 817 531 l 678 531 l 660 415 m 493 531 l 375 531 l 357 415 l 475 415 "},"$":{"ha":982,"x_min":0,"x_max":0,"o":"m 207 356 b 324 276 240 326 282 297 b 472 239 381 249 431 239 b 554 256 496 239 533 243 b 578 296 569 265 578 281 b 564 329 578 307 574 319 b 510 351 549 344 525 349 l 425 365 b 210 458 364 375 267 400 b 144 633 171 499 144 563 b 226 833 144 708 172 781 b 404 922 269 876 335 910 l 404 1074 l 588 1074 l 588 931 b 824 858 643 928 721 914 l 731 626 b 626 686 699 651 660 674 b 518 704 590 699 554 704 b 450 686 497 704 469 703 b 432 647 442 679 432 667 b 444 617 432 633 439 622 b 574 589 458 604 482 600 b 803 496 650 579 739 561 b 871 318 854 443 871 381 b 792 110 871 240 849 169 b 588 11 749 64 678 22 l 588 -160 l 404 -160 l 404 8 b 243 44 354 13 300 22 b 113 113 197 63 151 86 "},"%":{"ha":1428,"x_min":0,"x_max":0,"o":"m 619 685 b 549 510 619 601 583 544 b 325 429 513 474 443 429 b 103 510 208 429 139 474 b 32 685 68 544 32 601 b 103 860 32 768 68 825 b 325 940 139 896 208 940 b 549 860 443 940 513 896 b 619 685 583 825 619 768 m 272 686 b 290 636 272 668 278 649 b 328 622 303 624 317 622 b 365 636 339 622 353 624 b 385 690 376 647 385 667 b 368 740 385 715 376 732 b 329 756 360 750 346 756 b 292 740 311 756 299 747 b 272 686 279 728 272 708 m 904 926 l 1057 926 l 518 0 l 367 0 m 1394 240 b 1324 65 1394 157 1358 100 b 1100 -15 1288 29 1218 -15 b 878 65 983 -15 914 29 b 807 240 843 100 807 157 b 878 415 807 324 843 381 b 1100 496 914 451 983 496 b 1324 415 1218 496 1288 451 b 1394 240 1358 381 1394 324 m 1047 242 b 1065 192 1047 224 1053 204 b 1103 178 1078 179 1092 178 b 1140 192 1114 178 1128 179 b 1160 246 1151 203 1160 222 b 1143 296 1160 271 1151 288 b 1104 311 1135 306 1121 311 b 1067 296 1086 311 1074 303 b 1047 242 1054 283 1047 264 "},"&":{"ha":1171,"x_min":0,"x_max":0,"o":"m 779 0 l 719 72 b 594 3 682 43 636 17 b 428 -21 539 -17 478 -21 b 144 72 338 -21 233 -11 b 56 274 69 143 56 222 b 114 425 56 343 83 393 b 288 510 153 467 217 500 b 197 688 250 538 197 594 b 260 847 197 754 224 808 b 536 947 314 907 411 947 b 814 844 693 947 776 885 b 876 690 857 799 876 747 b 801 515 876 618 853 563 b 697 454 767 483 731 465 l 779 369 b 922 510 828 401 886 460 l 1097 310 b 953 201 1072 285 1024 243 l 1167 0 m 425 358 b 388 328 411 350 396 338 b 369 278 378 315 369 297 b 392 231 369 258 376 243 b 456 211 406 219 426 211 b 543 242 494 211 521 224 m 500 685 b 513 643 500 671 503 657 b 546 608 519 631 531 618 b 588 638 558 615 576 626 b 610 690 603 653 610 669 b 592 736 610 719 596 732 b 558 747 583 743 568 747 b 518 731 546 747 529 742 b 500 685 507 719 500 704 "},"'":{"ha":321,"x_min":0,"x_max":0,"o":"m 231 554 l 90 554 l 57 926 l 265 926 "},"(":{"ha":561,"x_min":0,"x_max":0,"o":"m 490 928 b 401 674 443 825 417 735 b 368 400 379 585 368 501 b 401 100 368 297 382 193 b 490 -182 424 -3 454 -96 l 254 -319 b 124 18 228 -267 167 -139 b 72 385 92 133 72 247 b 114 718 72 494 82 600 b 254 1064 144 835 196 957 l 490 928 "},")":{"ha":561,"x_min":0,"x_max":0,"o":"m 307 1064 b 447 718 365 957 417 835 b 489 385 479 600 489 494 b 438 18 489 247 469 133 b 307 -319 394 -139 333 -267 l 71 -182 b 160 100 107 -96 138 -3 b 193 400 179 193 193 297 b 160 674 193 501 182 585 b 71 928 144 735 118 825 "},"*":{"ha":982,"x_min":0,"x_max":0,"o":"m 421 860 l 407 1013 l 574 1013 l 560 860 l 701 921 l 753 763 l 603 728 l 704 613 l 569 515 l 490 646 l 413 515 l 278 613 l 379 728 l 229 763 l 281 921 "},"+":{"ha":694,"x_min":0,"x_max":0,"o":"m 46 556 l 257 556 l 257 768 l 438 768 l 438 556 l 649 556 l 649 389 l 438 389 l 438 176 l 257 176 l 257 389 l 46 389 "},",":{"ha":494,"x_min":0,"x_max":0,"o":"m 233 -222 l -14 -222 l 135 236 l 453 236 "},"-":{"ha":576,"x_min":0,"x_max":0,"o":"m 69 243 l 69 493 l 507 493 l 507 243 "},".":{"ha":493,"x_min":0,"x_max":0,"o":"m 429 138 b 386 35 429 103 414 63 b 246 -18 350 -1 294 -18 b 107 35 199 -18 143 -1 b 64 138 79 63 64 103 b 107 239 64 171 79 211 b 246 292 143 275 199 292 b 386 239 294 292 350 275 b 429 138 414 211 429 171 "},"/":{"ha":1008,"x_min":0,"x_max":0,"o":"m 685 1013 l 925 1013 l 203 -268 l -36 -268 "},":":{"ha":493,"x_min":0,"x_max":0,"o":"m 429 513 b 386 410 429 478 414 438 b 246 357 350 374 294 357 b 107 410 199 357 143 374 b 64 513 79 438 64 478 b 107 614 64 546 79 586 b 246 667 143 650 199 667 b 386 614 294 667 350 650 b 429 513 414 586 429 546 m 429 138 b 386 35 429 103 414 63 b 246 -18 350 -1 294 -18 b 107 35 199 -18 143 -1 b 64 138 79 63 64 103 b 107 239 64 171 79 211 b 246 292 143 275 199 292 b 386 239 294 292 350 275 b 429 138 414 211 429 171 "},";":{"ha":496,"x_min":0,"x_max":0,"o":"m 233 -222 l -14 -222 l 135 236 l 453 236 m 486 513 b 443 410 486 478 471 438 b 303 357 407 374 351 357 b 164 410 256 357 200 374 b 121 513 136 438 121 478 b 164 614 121 546 136 586 b 303 667 200 650 256 667 b 443 614 351 667 407 650 b 486 513 471 586 486 546 "},"<":{"ha":694,"x_min":0,"x_max":0,"o":"m 649 846 l 649 668 l 236 464 l 647 258 l 649 81 l 46 389 l 46 540 "},"=":{"ha":694,"x_min":0,"x_max":0,"o":"m 46 671 l 649 671 l 649 514 l 46 514 m 46 431 l 649 431 l 649 274 l 46 274 "},">":{"ha":694,"x_min":0,"x_max":0,"o":"m 46 81 l 46 260 l 458 464 l 47 668 l 46 846 l 649 539 l 649 388 "},"?":{"ha":853,"x_min":0,"x_max":0,"o":"m 56 639 b 154 844 67 722 104 794 b 438 947 213 903 303 947 b 713 850 575 947 663 899 b 797 643 750 813 797 747 b 724 438 797 558 769 485 b 443 349 646 357 522 349 b 322 360 397 349 363 351 l 322 569 b 389 557 342 561 363 557 b 465 583 411 557 442 561 b 493 657 481 599 493 621 b 475 708 493 675 490 693 b 435 724 464 719 450 724 b 388 704 407 724 393 710 b 369 639 374 688 369 661 m 611 139 b 568 36 611 104 596 64 b 428 -17 532 0 476 -17 b 289 36 381 -17 325 0 b 246 139 261 64 246 104 b 289 240 246 172 261 213 b 428 293 325 276 381 293 b 568 240 476 293 532 276 b 611 139 596 213 611 172 "},"@":{"ha":1018,"x_min":0,"x_max":0,"o":"m 650 683 l 774 683 l 722 419 b 714 365 718 397 714 379 b 724 336 714 357 715 344 b 751 326 729 331 739 326 b 792 343 768 326 781 333 b 856 528 832 378 856 460 b 775 731 856 613 822 682 b 540 825 722 786 640 825 b 279 715 451 825 354 790 b 174 456 210 646 174 558 b 275 200 174 331 226 249 b 543 103 363 113 458 103 b 792 150 626 103 707 117 l 819 31 b 547 -17 722 -6 638 -17 b 175 125 432 -17 293 0 b 46 451 89 215 46 338 b 179 790 46 588 100 707 b 543 942 265 881 390 942 b 853 819 686 942 788 883 b 972 533 914 758 972 665 b 883 282 972 456 953 351 b 728 214 838 236 781 214 b 643 246 701 214 668 218 b 619 289 628 263 621 283 b 554 228 601 264 581 243 b 457 201 521 207 493 201 b 325 256 403 201 363 217 b 263 418 286 296 263 350 b 347 626 263 500 294 574 b 514 697 401 681 460 697 b 590 679 550 697 575 688 b 640 631 610 668 628 651 m 407 425 b 428 357 407 400 411 376 b 483 328 444 336 465 328 b 550 354 507 328 532 339 b 599 469 582 382 599 429 b 574 546 599 511 585 535 b 521 568 561 558 543 568 b 450 536 497 568 471 557 b 407 425 425 511 407 469 "},"A":{"ha":1024,"x_min":0,"x_max":0,"o":"m 381 115 l 356 0 l 0 0 l 321 926 l 693 926 l 1024 0 l 667 0 l 636 115 m 535 513 b 517 617 526 549 521 583 l 504 617 b 489 513 503 578 497 546 l 443 335 l 578 335 l 535 513 "},"B":{"ha":940,"x_min":0,"x_max":0,"o":"m 93 926 l 497 926 b 774 849 576 926 700 918 b 844 668 796 828 844 772 b 806 540 844 633 840 583 b 725 483 788 518 758 496 l 724 475 b 821 419 761 465 792 447 b 889 258 867 375 889 325 b 801 71 889 186 865 122 b 564 0 724 8 629 0 l 93 0 m 404 571 l 457 571 b 521 592 476 571 506 576 b 539 640 529 600 539 615 b 518 689 539 667 526 682 b 457 704 500 703 469 704 l 404 704 m 404 224 l 472 224 b 543 239 492 224 521 225 b 575 301 560 250 575 271 b 550 357 575 325 565 344 b 476 376 528 375 494 376 l 404 376 "},"C":{"ha":821,"x_min":0,"x_max":0,"o":"m 761 17 b 528 -21 674 -17 571 -21 b 186 114 407 -21 278 22 b 51 456 99 200 51 325 b 190 807 51 599 106 721 b 540 947 256 872 367 947 b 761 911 610 947 688 936 l 771 558 b 575 650 732 597 660 650 b 440 593 522 650 474 629 b 392 461 408 558 392 510 b 446 328 392 411 410 363 b 583 275 474 301 517 275 b 771 363 678 275 743 332 "},"D":{"ha":1035,"x_min":0,"x_max":0,"o":"m 93 0 l 93 926 l 450 926 b 860 786 528 926 725 919 b 985 451 919 726 985 622 b 865 131 985 356 967 232 b 533 0 810 74 701 0 m 426 283 l 451 283 b 594 326 490 283 547 285 b 649 460 626 354 649 401 b 594 599 649 519 625 569 b 463 643 554 636 501 643 l 426 643 "},"E":{"ha":778,"x_min":0,"x_max":0,"o":"m 93 0 l 93 926 l 718 926 l 718 672 l 429 672 l 429 586 l 692 586 l 692 343 l 429 343 l 429 254 l 726 254 l 726 0 "},"F":{"ha":753,"x_min":0,"x_max":0,"o":"m 93 0 l 93 926 l 711 926 l 711 663 l 429 663 l 429 568 l 676 568 l 676 324 l 429 324 l 429 0 "},"G":{"ha":1117,"x_min":0,"x_max":0,"o":"m 546 539 l 1067 539 l 1067 518 b 946 131 1067 404 1057 250 b 553 -21 854 32 706 -21 b 171 132 358 -21 240 57 b 51 461 83 226 51 339 b 179 801 51 631 117 738 b 568 947 254 879 382 947 b 840 882 668 947 754 928 b 1018 711 919 839 975 786 l 704 594 b 576 665 685 625 647 665 b 458 622 528 665 488 649 b 390 447 421 588 390 528 b 451 282 390 385 411 321 b 561 240 478 257 514 240 b 699 319 611 240 676 258 l 546 319 "},"H":{"ha":1039,"x_min":0,"x_max":0,"o":"m 93 0 l 93 926 l 417 926 l 417 613 l 622 613 l 622 926 l 946 926 l 946 0 l 622 0 l 622 322 l 417 322 l 417 0 "},"I":{"ha":522,"x_min":0,"x_max":0,"o":"m 93 0 l 93 926 l 429 926 l 429 0 "},"J":{"ha":669,"x_min":0,"x_max":0,"o":"m 247 926 l 578 926 l 578 281 b 494 74 578 179 531 111 b 263 -21 433 10 349 -21 b 24 54 199 -21 110 -7 l -14 81 l 108 367 l 115 343 b 146 286 121 324 133 297 b 189 269 156 276 169 269 b 228 286 206 269 218 275 b 247 354 246 307 247 340 "},"K":{"ha":1028,"x_min":0,"x_max":0,"o":"m 93 0 l 93 926 l 415 926 l 415 639 b 408 522 415 597 414 564 l 415 522 b 464 626 435 575 447 596 l 624 926 l 988 926 l 699 472 l 1018 0 l 629 0 l 460 297 b 415 386 443 325 428 358 l 408 386 b 415 299 414 354 415 329 l 415 0 "},"L":{"ha":732,"x_min":0,"x_max":0,"o":"m 93 0 l 93 926 l 429 926 l 429 299 l 713 299 l 713 0 "},"M":{"ha":1365,"x_min":0,"x_max":0,"o":"m 56 0 l 206 926 l 551 926 l 660 547 b 681 440 674 499 679 453 l 689 440 b 707 547 690 481 696 508 l 815 926 l 1158 926 l 1310 0 l 986 0 l 944 415 b 939 507 942 447 939 468 l 933 507 b 915 429 929 483 921 447 l 778 0 l 581 0 l 457 406 b 439 507 447 439 440 468 l 429 507 b 428 435 429 489 429 453 l 382 0 "},"N":{"ha":1113,"x_min":0,"x_max":0,"o":"m 93 0 l 93 926 l 414 926 l 629 576 b 717 413 664 521 686 485 l 726 413 b 697 632 713 471 697 564 l 697 926 l 1019 926 l 1019 0 l 697 0 l 467 365 b 403 486 446 399 421 447 l 393 486 b 414 315 403 436 414 357 l 414 0 "},"O":{"ha":1131,"x_min":0,"x_max":0,"o":"m 1079 464 b 950 128 1079 315 1022 201 b 565 -21 871 47 742 -21 b 181 128 389 -21 260 47 b 51 464 108 201 51 315 b 181 799 51 611 108 725 b 565 947 260 879 389 947 b 950 799 742 947 871 879 b 1079 464 1022 725 1079 611 m 565 649 b 444 601 506 649 467 625 b 392 463 411 567 392 513 b 444 325 392 410 411 358 b 565 278 472 297 514 278 b 686 325 617 278 658 297 b 739 463 717 356 739 404 b 686 601 739 521 719 569 b 565 649 661 626 621 649 "},"P":{"ha":926,"x_min":0,"x_max":0,"o":"m 93 0 l 93 926 l 538 926 b 808 829 685 926 769 867 b 903 586 885 754 903 660 b 811 354 903 510 886 422 b 583 279 738 288 654 279 l 421 279 l 421 0 m 421 513 l 478 513 b 553 538 494 513 529 514 b 575 594 565 549 575 567 b 550 651 575 624 563 642 b 482 672 535 664 507 672 l 421 672 "},"Q":{"ha":1126,"x_min":0,"x_max":0,"o":"m 797 32 b 571 -21 717 -11 651 -21 b 192 113 438 -21 303 3 b 51 464 114 189 51 308 b 190 804 51 615 110 725 b 565 947 276 889 397 947 b 950 799 764 947 885 867 b 1078 461 1035 710 1078 589 b 990 181 1078 297 1014 211 l 1126 29 l 863 -81 m 729 413 b 685 601 749 481 733 553 b 564 650 650 636 611 650 b 442 599 518 650 476 636 b 390 465 408 563 390 511 b 446 322 390 415 407 358 b 604 282 485 285 546 267 l 519 372 "},"R":{"ha":988,"x_min":0,"x_max":0,"o":"m 93 0 l 93 926 l 511 926 b 794 831 608 926 710 915 b 882 603 842 783 882 713 b 831 438 882 521 857 469 b 703 364 803 403 757 375 l 703 356 b 751 313 721 346 739 332 l 960 0 l 572 0 l 439 271 b 426 300 435 281 431 285 l 421 297 l 421 0 m 421 514 l 460 514 b 531 535 479 514 510 517 b 554 592 542 544 554 563 b 536 647 554 613 549 633 b 479 672 525 660 507 672 l 421 672 "},"S":{"ha":858,"x_min":0,"x_max":0,"o":"m 686 631 b 497 700 646 658 572 700 b 433 683 479 700 451 697 b 417 650 421 674 417 664 b 471 601 417 631 419 613 l 578 578 b 736 499 660 560 708 526 b 807 315 794 442 807 371 b 724 97 807 236 786 163 b 397 -21 671 43 571 -21 b 82 51 256 -21 161 19 l 51 64 l 153 325 l 189 297 b 376 229 224 271 294 229 b 449 246 422 229 442 240 b 467 288 464 258 467 274 b 456 319 467 296 465 310 b 392 342 444 331 426 335 l 310 357 b 149 436 257 367 200 383 b 82 607 101 485 82 540 b 172 828 82 693 111 767 b 494 947 243 900 347 947 b 776 867 568 947 664 935 "},"T":{"ha":728,"x_min":0,"x_max":0,"o":"m 199 0 l 199 633 l 10 625 l 10 926 l 718 926 l 718 625 l 529 633 l 529 0 "},"U":{"ha":1043,"x_min":0,"x_max":0,"o":"m 93 926 l 426 926 l 426 389 b 456 294 426 361 429 322 b 522 269 474 275 496 269 b 590 292 557 269 578 279 b 615 389 615 317 615 365 l 615 926 l 950 926 l 950 358 b 853 94 950 286 936 181 b 522 -21 758 -3 625 -21 b 178 101 438 -21 283 -12 b 93 335 106 179 93 267 "},"V":{"ha":1007,"x_min":0,"x_max":0,"o":"m 0 926 l 351 926 l 481 490 b 501 367 492 454 499 400 l 510 367 b 529 490 511 404 518 451 l 656 926 l 1007 926 l 649 0 l 360 0 "},"W":{"ha":1457,"x_min":0,"x_max":0,"o":"m 0 926 l 349 926 l 450 488 b 465 374 457 456 465 428 l 474 374 b 497 529 476 432 485 481 l 599 926 l 857 926 l 964 504 b 983 374 972 471 981 410 l 990 374 b 1011 522 992 433 1000 474 l 1107 926 l 1457 926 l 1131 0 l 838 0 l 750 378 b 732 504 742 415 735 458 l 721 504 b 707 378 719 474 714 407 l 611 0 l 325 0 "},"X":{"ha":1031,"x_min":0,"x_max":0,"o":"m 32 926 l 413 926 l 489 781 b 510 718 497 764 506 735 l 517 718 b 539 781 522 742 529 761 l 610 926 l 990 926 l 700 493 l 1031 0 l 647 0 l 535 210 b 522 254 529 219 524 247 l 513 254 b 493 203 508 239 500 215 l 383 0 l 0 0 l 324 493 "},"Y":{"ha":951,"x_min":0,"x_max":0,"o":"m -10 926 l 371 926 l 450 757 b 475 683 456 744 467 718 l 485 683 b 510 757 492 722 501 736 l 582 926 l 961 926 l 644 399 l 644 0 l 313 0 l 313 399 "},"Z":{"ha":979,"x_min":0,"x_max":0,"o":"m 99 926 l 961 926 l 610 354 b 558 286 596 331 576 306 l 561 281 l 625 286 l 919 286 l 919 0 l 18 0 l 361 554 b 435 654 383 589 399 615 l 432 660 b 365 646 417 654 386 646 l 99 646 "},"[":{"ha":597,"x_min":0,"x_max":0,"o":"m 379 -143 l 542 -143 l 542 -268 l 101 -268 l 101 1013 l 542 1013 l 542 888 l 379 888 "},"\\":{"ha":1008,"x_min":0,"x_max":0,"o":"m 806 -268 l 83 1013 l 324 1013 l 1044 -268 "},"]":{"ha":597,"x_min":0,"x_max":0,"o":"m 218 888 l 56 888 l 56 1013 l 496 1013 l 496 -268 l 56 -268 l 56 -143 l 218 -143 "},"^":{"ha":694,"x_min":0,"x_max":0,"o":"m 207 458 l 7 458 l 229 926 l 465 926 l 689 458 l 489 458 l 347 763 "},"_":{"ha":694,"x_min":0,"x_max":0,"o":"m 0 -64 l 694 -64 l 694 -272 l 0 -272 "},"`":{"ha":694,"x_min":0,"x_max":0,"o":"m 349 1031 l 508 828 l 389 751 l 186 929 "},"a":{"ha":888,"x_min":0,"x_max":0,"o":"m 519 575 b 508 631 510 600 508 619 l 508 649 l 821 649 l 821 0 l 510 0 l 511 22 b 524 82 513 40 518 65 l 514 82 b 319 -18 440 -10 360 -18 b 136 58 254 -18 192 1 b 39 321 81 115 39 203 b 140 589 39 436 79 528 b 332 667 189 638 250 667 b 513 571 372 667 447 658 m 353 325 b 381 257 353 293 365 272 b 435 235 396 242 414 235 b 489 256 454 235 472 240 b 519 328 507 274 519 299 b 492 396 519 358 507 382 b 438 417 478 408 460 417 b 381 394 417 417 396 410 b 353 325 365 379 353 356 "},"b":{"ha":885,"x_min":0,"x_max":0,"o":"m 67 1013 l 383 1013 l 383 649 b 368 558 383 622 378 588 l 378 558 b 449 632 396 589 421 615 b 572 667 481 651 528 667 b 739 594 631 667 692 639 b 846 317 801 535 846 435 b 749 53 846 208 811 114 b 567 -18 694 0 632 -18 b 435 24 517 -18 476 -7 b 368 100 401 47 382 75 l 358 96 b 368 46 364 81 368 63 l 368 0 l 67 0 m 538 328 b 510 401 538 361 525 386 b 451 426 494 417 471 426 b 394 404 432 426 411 421 b 368 332 381 390 368 368 b 394 251 368 307 375 271 b 450 229 410 236 432 229 b 510 256 475 229 494 239 b 538 328 528 275 538 297 "},"c":{"ha":617,"x_min":0,"x_max":0,"o":"m 565 15 b 406 -18 529 -3 481 -18 b 132 78 263 -18 178 33 b 39 315 81 128 39 207 b 139 574 39 425 81 515 b 390 667 214 649 306 667 b 574 633 444 667 507 658 l 574 369 b 456 421 521 417 478 421 b 386 396 432 421 407 417 b 360 328 369 378 360 351 b 386 260 360 300 369 276 b 453 232 403 243 425 232 b 578 283 497 232 544 253 "},"d":{"ha":885,"x_min":0,"x_max":0,"o":"m 503 1013 l 818 1013 l 818 0 l 513 0 l 513 29 b 522 103 513 51 519 89 l 513 104 b 440 19 497 75 472 42 b 306 -18 406 -4 357 -18 b 135 54 240 -18 179 8 b 39 322 69 119 39 225 b 139 593 39 438 79 533 b 314 667 174 628 231 667 b 436 631 361 667 403 653 b 506 563 463 613 489 583 l 515 563 b 503 657 510 588 503 626 m 515 329 b 483 411 515 358 504 390 b 431 432 468 426 451 432 b 376 413 403 432 386 422 b 346 335 358 396 346 361 b 378 254 346 304 358 274 b 432 232 393 239 411 232 b 485 251 451 232 469 238 b 515 329 494 260 515 283 "},"e":{"ha":851,"x_min":0,"x_max":0,"o":"m 353 272 b 376 178 351 242 358 197 b 424 160 383 169 399 160 b 471 178 444 160 460 168 b 492 215 481 186 488 201 l 800 215 b 735 104 785 167 763 135 b 438 -18 669 31 589 -18 b 131 89 339 -18 218 1 b 39 315 90 129 39 203 b 136 560 39 407 74 497 b 425 667 197 619 294 667 b 704 564 549 667 640 626 b 813 308 774 497 813 399 l 813 272 m 504 407 b 476 472 503 429 493 457 b 426 490 465 483 447 490 b 381 474 410 490 392 483 b 356 407 365 460 356 429 "},"f":{"ha":528,"x_min":0,"x_max":0,"o":"m 97 0 l 97 407 l 11 397 l 11 649 l 97 640 l 97 747 b 171 956 97 808 106 893 b 383 1028 210 993 275 1028 b 518 1014 399 1028 451 1028 l 518 763 b 475 774 506 768 489 774 b 429 756 460 774 442 768 b 408 701 411 739 408 717 l 408 638 l 515 649 l 515 397 l 413 407 l 413 0 "},"g":{"ha":882,"x_min":0,"x_max":0,"o":"m 815 38 b 725 -199 815 -56 796 -126 b 393 -318 628 -297 506 -318 b 122 -276 283 -318 182 -297 l 67 -257 l 138 -37 b 229 -92 167 -61 199 -78 b 344 -117 267 -107 301 -117 b 467 -74 385 -117 431 -110 b 510 31 499 -42 507 -6 l 515 94 l 508 94 b 440 18 492 60 467 35 b 325 -11 403 -6 363 -11 b 135 68 251 -11 188 14 b 39 326 71 133 39 232 b 142 593 39 422 78 531 b 325 667 181 631 240 667 b 435 638 351 667 396 664 b 508 558 461 619 490 586 l 515 558 b 508 608 510 578 508 590 l 508 649 l 815 649 m 346 325 b 369 263 346 301 353 281 b 438 232 389 240 413 232 b 492 253 457 232 475 238 b 518 319 515 275 518 299 b 493 393 518 338 517 371 b 433 417 479 406 456 417 b 372 390 414 417 392 410 b 346 325 356 374 346 351 "},"h":{"ha":868,"x_min":0,"x_max":0,"o":"m 67 0 l 67 1013 l 382 1013 l 382 649 b 372 546 382 617 381 588 l 376 543 b 461 628 400 574 435 610 b 589 667 499 653 544 667 b 732 611 640 667 697 644 b 801 415 772 572 801 504 l 801 0 l 493 0 l 493 351 b 476 399 493 367 492 383 b 443 413 465 410 453 413 b 399 394 426 413 408 404 b 382 347 383 381 382 363 l 382 0 "},"i":{"ha":449,"x_min":0,"x_max":0,"o":"m 67 0 l 67 649 l 382 649 l 382 0 m 399 851 b 358 749 399 811 382 774 b 224 699 329 718 278 699 b 89 749 169 699 118 718 b 49 851 65 774 49 811 b 89 954 49 892 65 929 b 224 1004 118 985 169 1004 b 358 954 278 1004 329 985 b 399 851 382 929 399 892 "},"j":{"ha":449,"x_min":0,"x_max":0,"o":"m 67 -318 l 67 649 l 382 649 l 382 -318 m 399 851 b 358 749 399 811 382 774 b 224 699 329 718 278 699 b 89 749 169 699 118 718 b 49 851 65 774 49 811 b 89 954 49 892 65 929 b 224 1004 118 985 169 1004 b 358 954 278 1004 329 985 b 399 851 382 929 399 892 "},"k":{"ha":897,"x_min":0,"x_max":0,"o":"m 67 0 l 67 1013 l 382 1013 l 382 410 l 390 410 l 392 414 l 514 649 l 883 649 l 644 333 l 894 0 l 522 0 l 388 239 l 382 239 l 382 0 "},"l":{"ha":449,"x_min":0,"x_max":0,"o":"m 67 0 l 67 1013 l 382 1013 l 382 0 "},"m":{"ha":1235,"x_min":0,"x_max":0,"o":"m 67 0 l 67 649 l 364 649 l 364 599 b 353 539 364 579 358 557 l 363 536 b 424 624 375 567 397 601 b 556 667 458 651 510 667 b 671 631 603 667 643 653 b 740 528 700 608 726 572 l 749 528 b 814 625 760 563 783 600 b 943 667 856 660 907 667 b 1101 607 1024 667 1072 636 b 1169 419 1144 563 1169 492 l 1169 0 l 864 0 l 864 357 b 849 406 864 372 863 392 b 821 417 842 413 832 417 b 788 403 811 417 799 414 b 771 357 772 388 771 371 l 771 0 l 465 0 l 465 365 b 454 403 465 381 461 393 b 422 417 450 408 439 417 b 386 401 407 417 394 411 b 372 346 374 386 372 360 l 372 0 "},"n":{"ha":874,"x_min":0,"x_max":0,"o":"m 67 0 l 67 649 l 376 649 l 376 615 b 364 549 376 593 371 569 l 371 547 b 458 632 396 579 432 614 b 576 667 494 656 532 667 b 735 608 651 667 703 638 b 807 417 799 547 807 467 l 807 0 l 492 0 l 492 353 b 478 403 492 385 482 399 b 442 417 467 415 453 417 b 401 401 426 417 413 413 b 382 338 383 383 382 357 l 382 0 "},"o":{"ha":869,"x_min":0,"x_max":0,"o":"m 831 325 b 738 92 831 232 792 147 b 435 -18 685 38 590 -18 b 132 92 279 -18 185 38 b 39 325 78 147 39 232 b 132 557 39 404 69 493 b 435 667 185 611 279 667 b 738 557 590 667 685 611 b 831 325 800 493 831 404 m 435 417 b 374 394 403 417 383 404 b 346 325 358 381 346 358 b 374 254 346 290 358 268 b 435 232 383 244 403 232 b 496 254 467 232 486 244 b 524 325 511 268 524 290 b 496 394 524 358 511 381 b 435 417 486 404 467 417 "},"p":{"ha":885,"x_min":0,"x_max":0,"o":"m 67 -318 l 67 649 l 368 649 l 368 613 b 360 556 368 593 365 571 l 358 551 l 368 549 b 435 625 386 579 411 607 b 567 667 464 646 507 667 b 751 593 642 667 707 638 b 846 328 815 529 846 425 b 744 60 846 192 789 107 b 572 -18 694 7 640 -18 b 444 19 531 -18 486 -8 b 378 89 421 36 396 58 l 368 89 b 383 -37 381 39 383 6 l 383 -318 m 368 321 b 396 243 368 288 378 261 b 450 222 411 226 429 222 b 506 243 472 222 490 229 b 538 321 526 263 538 292 b 507 397 538 351 525 379 b 449 421 496 408 476 421 b 397 401 428 421 410 413 b 368 321 376 382 368 346 "},"q":{"ha":888,"x_min":0,"x_max":0,"o":"m 506 -318 l 506 8 b 518 86 506 29 513 64 l 508 86 b 436 17 490 63 463 33 b 313 -18 404 -4 357 -18 b 139 57 256 -18 192 4 b 39 325 83 114 39 207 b 143 599 39 456 88 546 b 308 667 194 647 250 667 b 442 626 358 667 403 654 b 515 544 456 617 489 590 l 525 546 b 515 607 519 564 515 586 l 515 649 l 821 649 l 821 -318 m 346 314 b 372 242 346 288 356 260 b 432 215 385 228 406 215 b 488 239 454 215 472 222 b 518 318 507 258 518 289 b 486 397 518 349 506 379 b 433 417 474 408 456 417 b 376 393 410 417 390 407 b 346 314 357 375 346 344 "},"r":{"ha":615,"x_min":0,"x_max":0,"o":"m 67 0 l 67 649 l 385 649 l 385 608 b 376 565 385 593 382 579 l 382 565 b 461 644 403 603 433 629 b 606 674 522 678 601 674 l 606 344 b 507 381 564 371 540 381 b 421 350 471 381 442 368 b 382 254 388 321 382 286 l 382 0 "},"s":{"ha":676,"x_min":0,"x_max":0,"o":"m 554 429 b 489 467 532 446 514 456 b 408 486 464 478 439 486 b 374 476 397 486 383 483 b 361 451 367 471 361 461 b 371 431 361 440 367 435 b 408 419 379 424 392 424 l 472 406 b 600 344 515 396 564 382 b 646 224 621 322 646 283 b 581 67 646 158 621 106 b 335 -18 506 -7 408 -18 b 78 35 215 -18 132 13 l 32 54 l 113 251 l 157 224 b 286 179 199 197 249 179 b 329 190 299 179 317 182 b 342 215 339 197 342 204 b 329 242 342 228 338 235 b 285 256 321 247 308 251 l 239 263 b 124 317 206 268 161 279 b 74 440 86 353 74 394 b 165 607 74 514 106 567 b 386 667 239 658 319 667 b 631 611 457 667 539 654 "},"t":{"ha":510,"x_min":0,"x_max":0,"o":"m 90 0 l 90 406 l 11 400 l 11 649 l 90 643 l 90 879 l 406 879 l 406 643 l 513 649 l 513 400 l 406 406 l 406 0 "},"u":{"ha":872,"x_min":0,"x_max":0,"o":"m 67 649 l 382 649 l 382 297 b 397 246 382 281 383 260 b 435 232 408 233 422 232 b 474 246 447 232 461 233 b 490 297 489 261 490 279 l 490 649 l 806 649 l 806 275 b 731 90 806 228 794 157 b 435 -18 669 26 568 -18 b 143 86 301 -18 203 26 b 67 265 97 132 67 192 "},"v":{"ha":828,"x_min":0,"x_max":0,"o":"m -14 649 l 326 649 l 397 408 b 410 343 401 393 407 364 l 419 343 b 431 408 419 356 422 381 l 503 649 l 842 649 l 560 0 l 272 0 "},"w":{"ha":1174,"x_min":0,"x_max":0,"o":"m -14 649 l 319 649 l 382 383 b 394 290 389 354 394 331 l 404 290 b 417 383 404 329 410 356 l 483 649 l 690 649 l 760 383 b 775 290 767 357 772 322 l 783 290 b 796 383 783 332 789 354 l 856 649 l 1188 649 l 921 0 l 665 0 l 603 235 l 593 288 l 585 288 l 574 235 l 510 0 l 250 0 "},"x":{"ha":897,"x_min":0,"x_max":0,"o":"m 24 649 l 388 649 l 435 557 b 449 515 442 544 446 532 l 457 515 b 472 557 461 533 467 544 l 519 649 l 882 649 l 636 338 l 900 0 l 528 0 l 469 106 b 456 143 463 117 458 128 l 449 143 b 436 106 446 129 442 117 l 379 0 l -3 0 l 271 338 "},"y":{"ha":835,"x_min":0,"x_max":0,"o":"m -14 649 l 326 649 l 404 382 b 418 297 413 353 417 328 l 426 297 b 440 386 428 328 433 361 l 515 649 l 849 649 l 408 -318 l 74 -318 l 265 65 "},"z":{"ha":763,"x_min":0,"x_max":0,"o":"m 717 0 l 29 0 l 29 43 l 231 349 b 288 408 242 365 271 394 l 288 414 b 231 404 265 406 250 404 l 61 404 l 61 649 l 732 649 l 732 615 l 522 303 b 471 246 508 282 492 264 l 471 238 b 521 246 483 242 506 246 l 717 246 "},"{":{"ha":694,"x_min":0,"x_max":0,"o":"m 422 547 b 403 436 422 511 421 472 b 339 372 385 399 358 382 b 404 303 375 351 394 324 b 422 196 422 265 422 229 l 422 -28 b 439 -89 422 -35 422 -72 b 521 -107 457 -108 503 -107 b 560 -106 547 -107 544 -106 l 560 -265 b 453 -268 496 -267 472 -268 b 285 -217 403 -268 329 -264 b 242 -68 244 -174 242 -111 l 242 183 b 224 271 242 215 240 249 b 165 303 214 285 194 300 l 165 456 b 222 482 189 457 211 468 b 242 550 236 499 242 525 l 242 811 b 290 965 242 863 243 919 b 456 1013 339 1011 408 1013 b 560 1008 494 1013 536 1010 l 560 850 l 532 850 b 438 832 499 850 457 851 b 422 771 424 817 422 790 l 422 547 "},"|":{"ha":694,"x_min":0,"x_max":0,"o":"m 257 1042 l 438 1042 l 438 -347 l 257 -347 "},"}":{"ha":694,"x_min":0,"x_max":0,"o":"m 303 771 b 288 832 303 790 301 817 b 193 850 268 851 226 850 l 165 850 l 165 1008 b 269 1013 189 1010 231 1013 b 435 965 317 1013 386 1011 b 483 811 482 919 483 863 l 483 550 b 503 482 483 525 489 499 b 560 456 514 468 536 457 l 560 303 b 501 271 531 300 511 285 b 483 183 485 249 483 215 l 483 -68 b 440 -217 483 -111 481 -174 b 272 -268 396 -264 322 -268 b 165 -265 253 -268 229 -267 l 165 -106 b 204 -107 181 -106 178 -107 b 286 -89 222 -107 268 -108 b 303 -28 303 -72 303 -35 l 303 196 b 321 303 303 229 303 265 b 386 372 331 324 350 351 b 322 436 367 382 340 399 b 303 547 304 472 303 511 "},"~":{"ha":694,"x_min":0,"x_max":0,"o":"m 313 328 b 208 356 274 340 239 356 b 146 332 182 356 161 346 b 107 271 132 319 117 294 l 8 336 l 19 360 b 96 485 46 417 67 458 b 214 529 117 504 154 529 b 333 504 258 529 300 517 l 393 482 b 488 461 422 471 447 461 b 540 476 507 461 524 464 b 583 532 557 489 575 515 l 686 472 b 606 342 671 432 639 375 b 474 286 569 304 526 286 b 367 310 431 286 401 299 "}," ":{"ha":324,"x_min":0,"x_max":0,"o":""},"¡":{"ha":568,"x_min":0,"x_max":0,"o":"m 124 253 l 447 253 l 447 -319 l 124 -319 m 101 468 b 144 571 101 503 117 543 b 285 624 181 607 236 624 b 424 571 332 624 388 607 b 467 468 451 543 467 503 b 424 367 467 435 451 394 b 285 314 388 331 332 314 b 144 367 236 314 181 331 b 101 468 117 394 101 435 "},"¢":{"ha":982,"x_min":0,"x_max":0,"o":"m 463 14 l 463 156 b 301 231 390 165 338 197 b 200 481 242 286 200 378 b 288 707 200 571 236 651 b 463 803 325 747 383 788 l 463 931 l 607 931 l 607 806 b 721 782 649 803 686 794 l 728 524 b 608 572 683 556 650 572 b 540 546 583 572 560 565 b 517 485 524 529 517 511 b 546 414 517 457 522 433 b 610 390 563 400 585 390 b 729 442 636 390 674 397 l 725 182 b 607 154 689 169 650 160 l 607 14 "},"£":{"ha":982,"x_min":0,"x_max":0,"o":"m 886 225 b 819 40 886 149 858 81 b 664 -19 774 -8 719 -19 b 507 8 649 -19 576 -19 l 450 31 b 351 53 419 43 388 53 b 289 32 329 53 307 49 b 269 0 278 22 272 13 l 113 0 b 165 157 114 61 135 117 b 290 244 186 185 226 224 b 297 293 296 260 297 278 b 293 338 297 310 296 326 l 126 338 l 126 490 l 242 490 b 193 644 213 538 193 596 b 279 851 193 713 219 792 b 535 947 328 900 408 947 b 776 858 643 947 726 910 b 854 611 854 778 854 681 l 854 594 l 640 594 l 640 606 b 619 706 640 632 640 676 b 547 740 606 725 579 740 b 479 715 522 740 494 731 b 451 644 461 699 451 669 b 475 563 451 614 465 583 b 501 490 488 536 496 524 l 678 490 l 678 338 l 514 338 b 515 310 515 328 515 318 b 499 225 515 274 507 246 l 518 217 b 654 174 563 197 610 174 b 694 188 668 174 683 176 b 711 225 703 196 710 211 "},"¤":{"ha":926,"x_min":0,"x_max":0,"o":"m 28 190 l 171 333 b 110 525 131 393 110 463 b 172 715 110 546 113 628 l 26 860 l 125 958 l 269 814 b 469 875 342 863 415 875 b 654 815 549 875 608 847 l 797 957 l 894 860 l 753 718 b 817 522 800 651 817 581 b 756 335 817 468 803 401 l 899 192 l 803 93 l 660 236 b 463 174 621 208 554 174 b 268 235 374 174 310 206 l 125 93 m 464 714 b 331 660 414 714 365 694 b 275 524 297 626 275 575 b 331 389 275 474 297 422 b 464 335 365 354 414 335 b 596 389 513 335 561 354 b 651 524 629 422 651 474 b 596 660 651 575 629 626 b 464 714 561 694 513 714 "},"¥":{"ha":982,"x_min":0,"x_max":0,"o":"m 25 926 l 404 926 l 494 674 l 579 926 l 957 926 l 790 631 l 917 631 l 917 467 l 699 467 l 660 399 l 660 349 l 917 349 l 917 185 l 660 185 l 660 0 l 328 0 l 328 185 l 65 185 l 65 349 l 328 349 l 328 399 l 289 467 l 65 467 l 65 631 l 194 631 "},"¦":{"ha":694,"x_min":0,"x_max":0,"o":"m 257 1042 l 438 1042 l 438 472 l 257 472 m 257 222 l 438 222 l 438 -347 l 257 -347 "},"§":{"ha":982,"x_min":0,"x_max":0,"o":"m 603 654 b 796 563 678 633 749 608 b 863 404 832 528 863 476 b 735 186 863 288 788 218 b 831 -10 822 126 831 36 b 761 -185 831 -61 818 -129 b 488 -268 685 -258 575 -268 b 194 -176 397 -268 275 -258 b 119 7 161 -143 122 -81 l 376 7 b 407 -67 378 -15 388 -49 b 475 -89 428 -86 454 -89 b 540 -67 492 -89 521 -86 b 560 -8 551 -56 560 -36 b 525 54 560 19 549 39 b 428 89 506 67 483 72 l 357 110 b 190 192 293 128 232 150 b 128 347 154 228 128 282 b 249 567 128 433 168 515 b 178 640 210 592 188 624 b 150 753 157 676 150 713 b 219 919 150 832 186 885 b 506 1013 300 1000 414 1013 b 776 922 590 1013 703 997 b 854 726 821 876 853 806 l 607 726 b 581 806 606 754 594 789 b 507 832 567 822 540 832 b 443 814 485 832 458 825 b 419 763 432 806 419 789 b 444 711 419 742 426 726 b 529 675 453 704 471 692 m 583 376 b 560 438 583 393 574 422 b 492 467 544 454 515 467 b 428 442 469 467 446 458 b 401 376 411 425 401 401 b 431 308 401 349 414 324 b 492 285 443 297 463 285 b 557 310 522 285 543 294 b 583 376 571 325 583 353 "},"¨":{"ha":694,"x_min":0,"x_max":0,"o":"m 71 864 b 196 990 71 935 125 990 b 322 864 267 990 322 935 b 196 738 322 793 267 738 b 71 864 125 738 71 793 m 372 864 b 497 990 372 935 426 990 b 624 864 568 990 624 935 b 497 738 624 793 568 738 b 372 864 426 738 372 793 "},"©":{"ha":1056,"x_min":0,"x_max":0,"o":"m 708 201 b 567 176 682 192 631 176 b 339 263 438 176 367 235 b 258 458 290 311 258 382 b 346 665 258 533 289 611 b 574 749 388 706 460 749 b 708 725 631 749 676 736 l 713 503 b 663 540 699 517 676 533 b 590 558 644 550 614 558 b 517 529 560 558 533 546 b 489 464 497 511 489 486 b 515 400 489 440 499 417 b 592 368 533 382 560 368 b 667 386 615 368 643 374 b 713 421 683 394 701 410 m 1010 464 b 867 121 1010 347 965 221 b 528 -21 757 10 632 -21 b 189 121 424 -21 299 10 b 46 464 90 221 46 347 b 189 806 46 579 90 706 b 528 947 299 917 424 947 b 867 806 632 947 757 917 b 1010 464 965 706 1010 579 m 528 846 b 269 736 419 846 338 804 b 157 463 190 656 157 567 b 269 189 157 358 190 269 b 528 79 338 121 419 79 b 786 189 636 79 718 121 b 899 463 865 269 899 358 b 786 736 899 567 865 656 b 528 846 718 804 636 846 "},"ª":{"ha":504,"x_min":0,"x_max":0,"o":"m 293 593 b 247 554 282 581 265 565 b 181 536 226 542 206 536 b 78 581 140 536 107 550 b 22 729 51 608 22 656 b 79 882 22 782 40 843 b 189 926 106 908 143 926 b 249 911 207 926 228 924 b 293 872 261 903 281 886 b 289 899 292 879 289 890 l 289 915 l 468 915 l 468 546 l 290 546 l 290 558 b 299 593 290 571 297 589 m 31 371 l 31 499 l 468 499 l 468 371 m 201 732 b 217 693 201 715 207 701 b 249 681 226 683 238 681 b 281 693 260 681 271 683 b 296 732 290 701 296 715 b 281 769 296 747 290 760 b 249 782 271 779 260 782 b 217 769 238 782 226 779 b 201 732 207 760 201 747 "},"«":{"ha":760,"x_min":0,"x_max":0,"o":"m 256 7 l 46 322 l 267 635 l 394 546 l 238 322 l 383 97 m 563 7 l 353 322 l 574 635 l 701 546 l 544 322 l 690 97 "},"¬":{"ha":694,"x_min":0,"x_max":0,"o":"m 468 0 l 468 208 l 46 208 l 46 371 l 649 371 l 649 0 "},"­":{"ha":576,"x_min":0,"x_max":0,"o":"m 69 243 l 69 493 l 507 493 l 507 243 "},"®":{"ha":1056,"x_min":0,"x_max":0,"o":"m 296 221 l 296 719 l 550 719 b 711 669 601 719 665 714 b 758 546 740 640 758 596 b 728 454 758 500 743 471 b 654 414 710 435 685 419 b 681 386 664 407 674 396 l 790 221 l 571 221 l 493 378 l 493 221 m 493 499 l 522 499 b 556 507 532 499 546 500 b 569 540 563 513 569 522 b 557 571 569 557 563 565 b 525 581 549 578 535 581 l 493 581 m 528 846 b 269 736 419 846 338 804 b 157 463 190 656 157 567 b 269 189 157 358 190 269 b 528 79 338 121 419 79 b 786 189 636 79 718 121 b 899 463 865 269 899 358 b 786 736 899 567 865 656 b 528 846 718 804 636 846 m 1010 464 b 867 121 1010 347 965 221 b 528 -21 757 10 632 -21 b 189 121 424 -21 299 10 b 46 464 90 221 46 347 b 189 806 46 579 90 706 b 528 947 299 917 424 947 b 867 806 632 947 757 917 b 1010 464 965 706 1010 579 "},"¯":{"ha":694,"x_min":0,"x_max":0,"o":"m 111 756 l 111 894 l 583 894 l 583 756 "},"°":{"ha":694,"x_min":0,"x_max":0,"o":"m 350 504 b 196 567 278 504 226 536 b 133 717 167 596 133 644 b 196 864 133 758 144 814 b 346 926 240 907 294 926 b 499 865 406 926 461 901 b 561 717 535 831 561 778 b 499 567 561 675 550 618 b 350 504 456 524 406 504 m 250 715 b 347 621 250 664 293 621 b 444 715 401 621 444 664 b 347 810 444 767 401 810 b 250 715 293 810 250 767 "},"±":{"ha":694,"x_min":0,"x_max":0,"o":"m 46 663 l 257 663 l 257 875 l 438 875 l 438 663 l 649 663 l 649 496 l 438 496 l 438 282 l 257 282 l 257 496 l 46 496 m 46 236 l 649 236 l 649 69 l 46 69 "},"²":{"ha":626,"x_min":0,"x_max":0,"o":"m 571 375 l 14 375 l 242 579 b 322 660 272 606 294 628 b 363 740 336 676 363 708 b 349 772 363 753 357 765 b 314 783 340 779 325 783 b 276 767 294 783 282 775 b 265 718 269 757 265 740 l 265 708 l 67 708 b 121 872 67 776 88 835 b 321 947 153 908 217 947 b 508 881 385 947 454 932 b 565 747 547 843 565 799 b 507 613 565 689 543 644 b 367 533 467 576 386 542 l 367 528 b 486 544 396 533 454 543 l 571 547 "},"³":{"ha":604,"x_min":0,"x_max":0,"o":"m 457 674 b 515 635 486 661 504 646 b 549 549 535 614 549 586 b 500 431 549 518 542 472 b 303 364 444 375 365 364 b 82 433 182 364 115 400 b 28 574 56 460 28 507 l 233 574 b 251 521 233 547 240 531 b 293 507 264 508 278 507 b 332 522 307 507 321 511 b 346 560 343 533 346 546 b 333 594 346 571 344 585 b 285 608 321 607 301 608 l 267 608 l 267 722 b 315 732 285 722 306 724 b 326 765 321 738 326 749 b 317 797 326 782 321 792 b 286 808 308 807 296 808 b 254 797 276 808 264 807 b 242 758 246 788 242 771 l 47 758 b 128 908 51 844 100 890 b 289 947 178 942 244 947 b 479 886 347 947 422 940 b 525 781 507 860 525 825 b 506 710 525 768 524 738 b 457 674 490 686 472 678 "},"´":{"ha":694,"x_min":0,"x_max":0,"o":"m 347 1031 l 510 929 l 307 751 l 186 828 "},"µ":{"ha":906,"x_min":0,"x_max":0,"o":"m 67 -319 l 67 649 l 382 649 l 382 263 b 397 207 382 246 385 224 b 451 183 413 188 433 183 b 507 206 467 183 490 186 b 524 265 524 225 524 250 l 524 649 l 839 649 l 839 0 l 533 0 l 533 13 b 540 83 533 33 538 68 l 532 83 b 504 15 528 60 515 29 b 450 -8 490 -1 472 -8 b 397 17 426 -8 410 1 b 369 83 386 31 374 61 l 361 83 b 372 -14 365 58 372 11 l 372 -319 "},"μ":{"ha":906,"x_min":0,"x_max":0,"o":"m 372 -319 l 372 -14 b 361 83 372 11 365 58 l 369 83 b 397 17 374 61 386 31 b 450 -8 410 1 426 -8 b 504 15 472 -8 490 -1 b 532 83 515 29 528 60 l 540 83 b 533 13 538 68 533 33 l 533 0 l 839 0 l 839 649 l 524 649 l 524 265 b 507 206 524 250 524 225 b 451 183 490 186 467 183 b 397 207 433 183 413 188 b 382 263 385 224 382 246 l 382 649 l 67 649 l 67 -319 "},"¶":{"ha":956,"x_min":0,"x_max":0,"o":"m 303 -132 l 303 436 l 285 436 b 101 499 239 436 161 440 b 38 671 69 531 38 585 b 101 846 38 757 68 813 b 379 926 165 911 267 926 l 854 926 l 854 774 l 757 774 l 757 -132 l 588 -132 l 588 774 l 472 774 l 472 -132 "},"·":{"ha":421,"x_min":0,"x_max":0,"o":"m 421 472 b 367 353 421 428 401 385 b 211 294 326 315 269 294 b 54 353 151 294 93 315 b 0 472 19 385 0 428 b 54 592 0 517 19 560 b 211 650 93 629 151 650 b 367 592 269 650 326 629 b 421 472 401 560 421 517 "},"¸":{"ha":694,"x_min":0,"x_max":0,"o":"m 358 -347 l 219 -250 l 386 -62 l 533 -168 "},"¹":{"ha":435,"x_min":0,"x_max":0,"o":"m 135 371 l 135 754 l 49 749 l 49 926 l 338 926 l 338 371 "},"º":{"ha":496,"x_min":0,"x_max":0,"o":"m 29 371 l 29 499 l 467 499 l 467 371 m 247 783 b 213 771 233 783 221 778 b 197 731 203 761 197 746 b 213 692 197 714 203 700 b 247 679 221 685 232 679 b 282 692 261 679 274 685 b 297 731 292 701 297 718 b 282 771 297 744 292 763 b 247 783 274 778 261 783 m 474 732 b 421 600 474 688 457 636 b 249 536 381 560 315 536 b 75 600 181 536 115 560 b 22 732 42 633 22 685 b 75 863 22 778 42 828 b 249 926 115 903 181 926 b 421 863 314 926 381 903 b 474 732 454 828 474 778 "},"»":{"ha":760,"x_min":0,"x_max":0,"o":"m 522 322 l 365 546 l 493 635 l 714 322 l 504 7 l 376 97 m 215 322 l 58 546 l 186 635 l 407 322 l 197 7 l 69 97 "},"¼":{"ha":1278,"x_min":0,"x_max":0,"o":"m 1157 0 l 954 0 l 960 113 l 675 106 l 675 253 l 906 556 l 1157 556 l 1157 258 l 1229 265 l 1229 107 l 1153 113 m 969 258 l 969 329 b 974 389 969 351 971 368 l 965 393 b 935 353 957 381 943 364 l 885 289 b 857 258 875 276 867 268 l 860 253 b 910 258 879 258 892 258 m 135 371 l 135 754 l 49 749 l 49 926 l 338 926 l 338 371 m 763 926 l 915 926 l 376 0 l 225 0 "},"½":{"ha":1292,"x_min":0,"x_max":0,"o":"m 135 371 l 135 754 l 49 749 l 49 926 l 338 926 l 338 371 m 1243 0 l 686 0 l 914 204 b 994 285 944 231 967 253 b 1035 364 1010 301 1035 333 b 1021 397 1035 378 1029 390 b 986 408 1013 404 997 408 b 950 392 971 408 960 404 b 938 343 939 376 938 360 l 938 333 l 739 333 b 793 497 739 401 760 460 b 993 572 825 533 889 572 b 1181 506 1057 572 1126 557 b 1238 372 1221 468 1238 425 b 1179 238 1238 313 1219 272 b 1039 158 1142 204 1078 175 l 1039 153 b 1158 169 1068 158 1126 168 l 1243 172 m 763 926 l 915 926 l 376 0 l 225 0 "},"¾":{"ha":1411,"x_min":0,"x_max":0,"o":"m 478 674 b 536 635 507 661 525 646 b 569 549 556 614 569 586 b 521 431 569 518 563 472 b 324 364 465 375 386 364 b 103 433 203 364 136 400 b 49 574 76 460 49 507 l 254 574 b 272 521 254 547 261 531 b 314 507 285 508 299 507 b 353 522 328 507 342 511 b 367 560 364 533 367 546 b 354 594 367 571 365 585 b 306 608 342 607 322 608 l 288 608 l 288 722 b 336 732 306 722 326 724 b 347 765 342 738 347 749 b 338 797 347 782 342 792 b 307 808 329 807 317 808 b 275 797 297 808 285 807 b 263 758 267 788 263 771 l 68 758 b 149 908 72 844 121 890 b 310 947 199 942 265 947 b 500 886 368 947 443 940 b 546 781 528 860 546 825 b 526 710 546 768 544 738 b 478 674 511 686 493 678 m 1290 0 l 1088 0 l 1093 113 l 808 106 l 808 253 l 1039 556 l 1290 556 l 1290 258 l 1363 265 l 1363 107 l 1286 113 m 1103 258 l 1103 329 b 1107 389 1103 351 1104 368 l 1099 393 b 1068 353 1090 381 1076 364 l 1018 289 b 990 258 1008 276 1000 268 l 993 253 b 1043 258 1013 258 1025 258 m 911 926 l 1064 926 l 525 0 l 374 0 "},"¿":{"ha":853,"x_min":0,"x_max":0,"o":"m 797 -28 b 699 -233 786 -111 749 -183 b 417 -336 640 -292 550 -336 b 140 -239 276 -336 192 -287 b 56 -33 86 -187 56 -122 b 129 169 56 68 94 133 b 410 258 199 242 303 258 b 531 247 456 258 490 256 l 531 38 b 464 50 511 46 490 50 b 388 24 442 50 411 46 b 360 -46 372 10 360 -14 b 378 -97 360 -76 372 -92 b 418 -112 389 -108 403 -112 b 465 -93 446 -112 460 -99 b 483 -28 479 -76 483 -50 m 242 468 b 285 571 242 503 257 543 b 425 624 321 607 376 624 b 564 571 472 624 528 607 b 607 468 592 543 607 503 b 564 367 607 435 592 394 b 425 314 528 331 472 314 b 285 367 376 314 321 331 b 242 468 257 394 242 435 "},"À":{"ha":1024,"x_min":0,"x_max":0,"o":"m 381 115 l 356 0 l 0 0 l 321 926 l 693 926 l 1024 0 l 667 0 l 636 115 m 535 513 b 517 617 526 549 521 583 l 504 617 b 489 513 503 578 497 546 l 443 335 l 578 335 l 535 513 m 507 1285 l 667 1082 l 547 1006 l 344 1183 "},"Á":{"ha":1024,"x_min":0,"x_max":0,"o":"m 381 115 l 356 0 l 0 0 l 321 926 l 693 926 l 1024 0 l 667 0 l 636 115 m 535 513 b 517 617 526 549 521 583 l 504 617 b 489 513 503 578 497 546 l 443 335 l 578 335 l 535 513 m 514 1285 l 676 1183 l 474 1006 l 353 1082 "},"Â":{"ha":1024,"x_min":0,"x_max":0,"o":"m 381 115 l 356 0 l 0 0 l 321 926 l 693 926 l 1024 0 l 667 0 l 636 115 m 535 513 b 517 617 526 549 521 583 l 504 617 b 489 513 503 578 497 546 l 443 335 l 578 335 l 535 513 m 514 1092 l 349 992 l 249 1114 l 521 1272 l 778 1113 l 675 994 "},"Ã":{"ha":1024,"x_min":0,"x_max":0,"o":"m 381 115 l 356 0 l 0 0 l 321 926 l 693 926 l 1024 0 l 667 0 l 636 115 m 535 513 b 517 617 526 549 521 583 l 504 617 b 489 513 503 578 497 546 l 443 335 l 578 335 l 535 513 m 454 1049 b 406 1063 439 1054 424 1063 b 372 1050 393 1063 382 1060 b 342 1006 363 1040 349 1019 l 228 1078 b 319 1174 265 1138 311 1168 b 419 1204 353 1196 382 1204 b 494 1185 451 1204 469 1197 l 526 1168 b 582 1149 546 1158 561 1149 b 613 1160 593 1149 603 1150 b 639 1190 618 1164 635 1183 l 649 1206 l 772 1144 b 715 1067 758 1118 738 1090 b 588 1008 679 1029 642 1008 b 514 1025 557 1008 538 1015 "},"Ä":{"ha":1024,"x_min":0,"x_max":0,"o":"m 381 115 l 356 0 l 0 0 l 321 926 l 693 926 l 1024 0 l 667 0 l 636 115 m 535 513 b 517 617 526 549 521 583 l 504 617 b 489 513 503 578 497 546 l 443 335 l 578 335 l 535 513 m 225 1126 b 350 1251 225 1196 279 1251 b 476 1126 421 1251 476 1196 b 350 1000 476 1056 421 1000 b 225 1126 279 1000 225 1056 m 540 1126 b 665 1251 540 1196 594 1251 b 792 1126 736 1251 792 1196 b 665 1000 792 1056 736 1000 b 540 1126 594 1000 540 1056 "},"Å":{"ha":1024,"x_min":0,"x_max":0,"o":"m 381 115 l 356 0 l 0 0 l 321 926 l 693 926 l 1024 0 l 667 0 l 636 115 m 535 513 b 517 617 526 549 521 583 l 504 617 b 489 513 503 578 497 546 l 443 335 l 578 335 l 535 513 m 690 1142 b 638 1035 690 1097 668 1058 b 500 997 592 1000 525 997 b 363 1035 475 997 408 1000 b 310 1142 332 1058 310 1097 b 363 1247 310 1188 333 1225 b 500 1285 408 1282 475 1285 b 638 1247 525 1285 592 1282 b 690 1142 667 1225 690 1188 m 500 1190 b 451 1179 488 1190 467 1189 b 431 1142 438 1171 431 1158 b 451 1103 431 1124 438 1111 b 500 1092 467 1093 488 1092 b 549 1103 514 1092 533 1093 b 569 1140 561 1111 569 1122 b 549 1179 569 1157 564 1169 b 500 1190 533 1189 514 1190 "},"Æ":{"ha":1315,"x_min":0,"x_max":0,"o":"m 10 0 l 332 926 l 983 926 l 1068 672 l 792 672 l 821 586 l 1099 586 l 1183 343 l 910 343 l 940 254 l 1218 254 l 1307 0 l 675 0 l 644 115 l 392 115 l 363 0 m 532 539 b 522 617 525 564 521 589 l 513 617 b 499 524 511 585 506 553 l 450 335 l 588 335 "},"Ç":{"ha":821,"x_min":0,"x_max":0,"o":"m 761 17 b 528 -21 674 -17 571 -21 b 186 114 407 -21 278 22 b 51 456 99 200 51 325 b 190 807 51 599 106 721 b 540 947 256 872 367 947 b 761 911 610 947 688 936 l 771 558 b 575 650 732 597 660 650 b 440 593 522 650 474 629 b 392 461 408 558 392 510 b 446 328 392 411 410 363 b 583 275 474 301 517 275 b 771 363 678 275 743 332 m 474 -372 l 321 -264 l 504 -60 l 665 -174 "},"È":{"ha":778,"x_min":0,"x_max":0,"o":"m 93 0 l 93 926 l 718 926 l 718 672 l 429 672 l 429 586 l 692 586 l 692 343 l 429 343 l 429 254 l 726 254 l 726 0 m 418 1285 l 578 1082 l 458 1006 l 256 1183 "},"É":{"ha":778,"x_min":0,"x_max":0,"o":"m 93 0 l 93 926 l 718 926 l 718 672 l 429 672 l 429 586 l 692 586 l 692 343 l 429 343 l 429 254 l 726 254 l 726 0 m 444 1285 l 607 1183 l 404 1006 l 283 1082 "},"Ê":{"ha":778,"x_min":0,"x_max":0,"o":"m 93 0 l 93 926 l 718 926 l 718 672 l 429 672 l 429 586 l 692 586 l 692 343 l 429 343 l 429 254 l 726 254 l 726 0 m 406 1092 l 240 992 l 140 1114 l 413 1272 l 669 1113 l 567 994 "},"Ë":{"ha":778,"x_min":0,"x_max":0,"o":"m 93 0 l 93 926 l 718 926 l 718 672 l 429 672 l 429 586 l 692 586 l 692 343 l 429 343 l 429 254 l 726 254 l 726 0 m 122 1126 b 247 1251 122 1196 176 1251 b 374 1126 318 1251 374 1196 b 247 1000 374 1056 318 1000 b 122 1126 176 1000 122 1056 m 438 1126 b 563 1251 438 1196 492 1251 b 689 1126 633 1251 689 1196 b 563 1000 689 1056 633 1000 b 438 1126 492 1000 438 1056 "},"Ì":{"ha":522,"x_min":0,"x_max":0,"o":"m 93 0 l 93 926 l 429 926 l 429 0 m 240 1285 l 400 1082 l 281 1006 l 78 1183 "},"Í":{"ha":522,"x_min":0,"x_max":0,"o":"m 93 0 l 93 926 l 429 926 l 429 0 m 281 1285 l 443 1183 l 240 1006 l 119 1082 "},"Î":{"ha":522,"x_min":0,"x_max":0,"o":"m 93 0 l 93 926 l 429 926 l 429 0 m 263 1092 l 97 992 l -3 1114 l 269 1272 l 526 1113 l 424 994 "},"Ï":{"ha":522,"x_min":0,"x_max":0,"o":"m 93 0 l 93 926 l 429 926 l 429 0 m -22 1126 b 103 1251 -22 1196 32 1251 b 229 1126 174 1251 229 1196 b 103 1000 229 1056 174 1000 b -22 1126 32 1000 -22 1056 m 293 1126 b 418 1251 293 1196 347 1251 b 544 1126 489 1251 544 1196 b 418 1000 544 1056 489 1000 b 293 1126 347 1000 293 1056 "},"Ð":{"ha":1074,"x_min":0,"x_max":0,"o":"m 132 0 l 132 378 l 28 378 l 28 561 l 132 561 l 132 926 l 489 926 b 899 786 589 926 771 914 b 1024 454 960 725 1024 622 b 904 131 1024 356 1004 232 b 572 0 849 74 740 0 m 451 561 l 582 561 l 582 378 l 451 378 l 451 275 l 490 275 b 633 318 525 275 589 279 b 688 460 683 363 688 429 b 633 607 688 539 658 583 b 501 651 593 644 540 651 l 451 651 "},"Ñ":{"ha":1113,"x_min":0,"x_max":0,"o":"m 93 0 l 93 926 l 414 926 l 629 576 b 717 413 664 521 686 485 l 726 413 b 697 632 713 471 697 564 l 697 926 l 1019 926 l 1019 0 l 697 0 l 467 365 b 403 486 446 399 421 447 l 393 486 b 414 315 403 436 414 357 l 414 0 m 496 1049 b 447 1063 481 1054 465 1063 b 414 1050 435 1063 424 1060 b 383 1006 404 1040 390 1019 l 269 1078 b 361 1174 307 1138 353 1168 b 461 1204 394 1196 424 1204 b 536 1185 493 1204 511 1197 l 568 1168 b 624 1149 588 1158 603 1149 b 654 1160 635 1149 644 1150 b 681 1190 660 1164 676 1183 l 690 1206 l 814 1144 b 757 1067 800 1118 779 1090 b 629 1008 721 1029 683 1008 b 556 1025 599 1008 579 1015 "},"Ò":{"ha":1131,"x_min":0,"x_max":0,"o":"m 1079 464 b 950 128 1079 315 1022 201 b 565 -21 871 47 742 -21 b 181 128 389 -21 260 47 b 51 464 108 201 51 315 b 181 799 51 611 108 725 b 565 947 260 879 389 947 b 950 799 742 947 871 879 b 1079 464 1022 725 1079 611 m 565 649 b 444 601 506 649 467 625 b 392 463 411 567 392 513 b 444 325 392 410 411 358 b 565 278 472 297 514 278 b 686 325 617 278 658 297 b 739 463 717 356 739 404 b 686 601 739 521 719 569 b 565 649 661 626 621 649 m 515 1285 l 675 1082 l 556 1006 l 353 1183 "},"Ó":{"ha":1131,"x_min":0,"x_max":0,"o":"m 1079 464 b 950 128 1079 315 1022 201 b 565 -21 871 47 742 -21 b 181 128 389 -21 260 47 b 51 464 108 201 51 315 b 181 799 51 611 108 725 b 565 947 260 879 389 947 b 950 799 742 947 871 879 b 1079 464 1022 725 1079 611 m 565 649 b 444 601 506 649 467 625 b 392 463 411 567 392 513 b 444 325 392 410 411 358 b 565 278 472 297 514 278 b 686 325 617 278 658 297 b 739 463 717 356 739 404 b 686 601 739 521 719 569 b 565 649 661 626 621 649 m 625 1285 l 788 1183 l 585 1006 l 464 1082 "},"Ô":{"ha":1131,"x_min":0,"x_max":0,"o":"m 1079 464 b 950 128 1079 315 1022 201 b 565 -21 871 47 742 -21 b 181 128 389 -21 260 47 b 51 464 108 201 51 315 b 181 799 51 611 108 725 b 565 947 260 879 389 947 b 950 799 742 947 871 879 b 1079 464 1022 725 1079 611 m 565 649 b 444 601 506 649 467 625 b 392 463 411 567 392 513 b 444 325 392 410 411 358 b 565 278 472 297 514 278 b 686 325 617 278 658 297 b 739 463 717 356 739 404 b 686 601 739 521 719 569 b 565 649 661 626 621 649 m 572 1092 l 407 992 l 307 1114 l 579 1272 l 836 1113 l 733 994 "},"Õ":{"ha":1131,"x_min":0,"x_max":0,"o":"m 1079 464 b 950 128 1079 315 1022 201 b 565 -21 871 47 742 -21 b 181 128 389 -21 260 47 b 51 464 108 201 51 315 b 181 799 51 611 108 725 b 565 947 260 879 389 947 b 950 799 742 947 871 879 b 1079 464 1022 725 1079 611 m 565 649 b 444 601 506 649 467 625 b 392 463 411 567 392 513 b 444 325 392 410 411 358 b 565 278 472 297 514 278 b 686 325 617 278 658 297 b 739 463 717 356 739 404 b 686 601 739 521 719 569 b 565 649 661 626 621 649 m 524 1049 b 475 1063 508 1054 493 1063 b 442 1050 463 1063 451 1060 b 411 1006 432 1040 418 1019 l 297 1078 b 389 1174 335 1138 381 1168 b 489 1204 422 1196 451 1204 b 564 1185 521 1204 539 1197 l 596 1168 b 651 1149 615 1158 631 1149 b 682 1160 663 1149 672 1150 b 708 1190 688 1164 704 1183 l 718 1206 l 842 1144 b 785 1067 828 1118 807 1090 b 657 1008 749 1029 711 1008 b 583 1025 626 1008 607 1015 "},"Ö":{"ha":1131,"x_min":0,"x_max":0,"o":"m 1079 464 b 950 128 1079 315 1022 201 b 565 -21 871 47 742 -21 b 181 128 389 -21 260 47 b 51 464 108 201 51 315 b 181 799 51 611 108 725 b 565 947 260 879 389 947 b 950 799 742 947 871 879 b 1079 464 1022 725 1079 611 m 565 649 b 444 601 506 649 467 625 b 392 463 411 567 392 513 b 444 325 392 410 411 358 b 565 278 472 297 514 278 b 686 325 617 278 658 297 b 739 463 717 356 739 404 b 686 601 739 521 719 569 b 565 649 661 626 621 649 m 286 1126 b 411 1251 286 1196 340 1251 b 538 1126 482 1251 538 1196 b 411 1000 538 1056 482 1000 b 286 1126 340 1000 286 1056 m 601 1126 b 726 1251 601 1196 656 1251 b 853 1126 797 1251 853 1196 b 726 1000 853 1056 797 1000 b 601 1126 656 1000 601 1056 "},"×":{"ha":694,"x_min":0,"x_max":0,"o":"m 47 290 l 225 467 l 46 646 l 174 774 l 353 594 l 529 772 l 647 654 l 469 478 l 649 299 l 521 171 l 342 350 l 165 172 "},"Ø":{"ha":1182,"x_min":0,"x_max":0,"o":"m 1013 750 b 1104 464 1072 671 1104 583 b 975 128 1104 308 1042 196 b 590 -21 896 46 767 -21 b 314 46 481 -21 394 1 l 182 -85 l 39 47 l 169 172 b 76 461 113 247 76 335 b 206 799 76 614 133 722 b 590 947 281 878 400 947 b 872 878 697 947 786 924 l 1004 1008 l 1143 876 m 590 649 b 469 601 531 649 492 625 b 417 463 436 567 417 513 b 469 325 417 410 436 358 b 590 278 497 297 539 278 b 711 325 642 278 683 297 b 764 463 742 356 764 404 b 711 601 764 521 744 569 b 590 649 686 626 646 649 "},"Ù":{"ha":1043,"x_min":0,"x_max":0,"o":"m 93 926 l 426 926 l 426 389 b 456 294 426 361 429 322 b 522 269 474 275 496 269 b 590 292 557 269 578 279 b 615 389 615 317 615 365 l 615 926 l 950 926 l 950 358 b 853 94 950 286 936 181 b 522 -21 758 -3 625 -21 b 178 101 438 -21 283 -12 b 93 335 106 179 93 267 m 488 1285 l 647 1082 l 528 1006 l 325 1183 "},"Ú":{"ha":1043,"x_min":0,"x_max":0,"o":"m 93 926 l 426 926 l 426 389 b 456 294 426 361 429 322 b 522 269 474 275 496 269 b 590 292 557 269 578 279 b 615 389 615 317 615 365 l 615 926 l 950 926 l 950 358 b 853 94 950 286 936 181 b 522 -21 758 -3 625 -21 b 178 101 438 -21 283 -12 b 93 335 106 179 93 267 m 556 1285 l 718 1183 l 515 1006 l 394 1082 "},"Û":{"ha":1043,"x_min":0,"x_max":0,"o":"m 93 926 l 426 926 l 426 389 b 456 294 426 361 429 322 b 522 269 474 275 496 269 b 590 292 557 269 578 279 b 615 389 615 317 615 365 l 615 926 l 950 926 l 950 358 b 853 94 950 286 936 181 b 522 -21 758 -3 625 -21 b 178 101 438 -21 283 -12 b 93 335 106 179 93 267 m 531 1092 l 365 992 l 265 1114 l 538 1272 l 794 1113 l 692 994 "},"Ü":{"ha":1043,"x_min":0,"x_max":0,"o":"m 93 926 l 426 926 l 426 389 b 456 294 426 361 429 322 b 522 269 474 275 496 269 b 590 292 557 269 578 279 b 615 389 615 317 615 365 l 615 926 l 950 926 l 950 358 b 853 94 950 286 936 181 b 522 -21 758 -3 625 -21 b 178 101 438 -21 283 -12 b 93 335 106 179 93 267 m 244 1126 b 369 1251 244 1196 299 1251 b 496 1126 440 1251 496 1196 b 369 1000 496 1056 440 1000 b 244 1126 299 1000 244 1056 m 560 1126 b 685 1251 560 1196 614 1251 b 811 1126 756 1251 811 1196 b 685 1000 811 1056 756 1000 b 560 1126 614 1000 560 1056 "},"Ý":{"ha":951,"x_min":0,"x_max":0,"o":"m -10 926 l 371 926 l 450 757 b 475 683 456 744 467 718 l 485 683 b 510 757 492 722 501 736 l 582 926 l 961 926 l 644 399 l 644 0 l 313 0 l 313 399 m 542 1285 l 704 1183 l 501 1006 l 381 1082 "},"Þ":{"ha":926,"x_min":0,"x_max":0,"o":"m 93 0 l 93 926 l 421 926 l 421 822 l 538 822 b 808 735 635 822 728 813 b 903 492 853 692 903 617 b 811 254 903 369 856 294 b 564 175 736 185 640 175 l 421 175 l 421 0 m 421 408 l 478 408 b 553 433 494 408 529 410 b 575 490 565 444 575 463 b 550 547 575 519 563 538 b 482 568 535 560 507 568 l 421 568 "},"ß":{"ha":893,"x_min":0,"x_max":0,"o":"m 67 0 l 67 663 b 194 965 67 756 72 885 b 440 1028 269 1015 361 1028 b 697 949 531 1028 621 1014 b 783 761 760 896 783 832 b 753 642 783 719 775 679 b 682 575 736 615 714 592 b 790 499 735 556 769 524 b 854 300 829 450 854 375 b 774 90 854 213 822 139 b 478 0 690 7 574 0 l 456 0 l 456 181 b 503 201 469 181 488 186 b 535 310 532 231 535 281 b 508 429 535 389 519 417 b 456 451 497 442 478 451 l 456 631 b 513 651 479 629 500 639 b 529 696 524 664 529 681 b 510 740 529 714 522 729 b 457 758 496 753 475 758 b 404 738 438 758 417 751 b 382 650 383 715 382 679 l 382 0 "},"à":{"ha":888,"x_min":0,"x_max":0,"o":"m 519 575 b 508 631 510 600 508 619 l 508 649 l 821 649 l 821 0 l 510 0 l 511 22 b 524 82 513 40 518 65 l 514 82 b 319 -18 440 -10 360 -18 b 136 58 254 -18 192 1 b 39 321 81 115 39 203 b 140 589 39 436 79 528 b 332 667 189 638 250 667 b 513 571 372 667 447 658 m 353 325 b 381 257 353 293 365 272 b 435 235 396 242 414 235 b 489 256 454 235 472 240 b 519 328 507 274 519 299 b 492 396 519 358 507 382 b 438 417 478 408 460 417 b 381 394 417 417 396 410 b 353 325 365 379 353 356 m 446 1031 l 606 828 l 486 751 l 283 929 "},"á":{"ha":888,"x_min":0,"x_max":0,"o":"m 519 575 b 508 631 510 600 508 619 l 508 649 l 821 649 l 821 0 l 510 0 l 511 22 b 524 82 513 40 518 65 l 514 82 b 319 -18 440 -10 360 -18 b 136 58 254 -18 192 1 b 39 321 81 115 39 203 b 140 589 39 436 79 528 b 332 667 189 638 250 667 b 513 571 372 667 447 658 m 353 325 b 381 257 353 293 365 272 b 435 235 396 242 414 235 b 489 256 454 235 472 240 b 519 328 507 274 519 299 b 492 396 519 358 507 382 b 438 417 478 408 460 417 b 381 394 417 417 396 410 b 353 325 365 379 353 356 m 479 1031 l 642 929 l 439 751 l 318 828 "},"â":{"ha":888,"x_min":0,"x_max":0,"o":"m 519 575 b 508 631 510 600 508 619 l 508 649 l 821 649 l 821 0 l 510 0 l 511 22 b 524 82 513 40 518 65 l 514 82 b 319 -18 440 -10 360 -18 b 136 58 254 -18 192 1 b 39 321 81 115 39 203 b 140 589 39 436 79 528 b 332 667 189 638 250 667 b 513 571 372 667 447 658 m 353 325 b 381 257 353 293 365 272 b 435 235 396 242 414 235 b 489 256 454 235 472 240 b 519 328 507 274 519 299 b 492 396 519 358 507 382 b 438 417 478 408 460 417 b 381 394 417 417 396 410 b 353 325 365 379 353 356 m 458 817 l 321 717 l 218 826 l 464 1006 l 699 829 l 601 717 "},"ã":{"ha":888,"x_min":0,"x_max":0,"o":"m 519 575 b 508 631 510 600 508 619 l 508 649 l 821 649 l 821 0 l 510 0 l 511 22 b 524 82 513 40 518 65 l 514 82 b 319 -18 440 -10 360 -18 b 136 58 254 -18 192 1 b 39 321 81 115 39 203 b 140 589 39 436 79 528 b 332 667 189 638 250 667 b 513 571 372 667 447 658 m 353 325 b 381 257 353 293 365 272 b 435 235 396 242 414 235 b 489 256 454 235 472 240 b 519 328 507 274 519 299 b 492 396 519 358 507 382 b 438 417 478 408 460 417 b 381 394 417 417 396 410 b 353 325 365 379 353 356 m 404 794 b 356 808 389 800 374 808 b 322 796 343 808 332 806 b 292 751 313 786 299 765 l 178 824 b 267 919 197 854 233 897 b 367 950 299 942 332 950 b 444 931 392 950 418 944 l 476 914 b 532 894 496 904 511 894 b 563 906 543 894 553 896 b 589 936 568 910 585 929 l 599 951 l 722 890 b 665 813 708 864 688 836 b 538 754 629 775 590 754 b 464 771 508 754 486 763 "},"ä":{"ha":888,"x_min":0,"x_max":0,"o":"m 519 575 b 508 631 510 600 508 619 l 508 649 l 821 649 l 821 0 l 510 0 l 511 22 b 524 82 513 40 518 65 l 514 82 b 319 -18 440 -10 360 -18 b 136 58 254 -18 192 1 b 39 321 81 115 39 203 b 140 589 39 436 79 528 b 332 667 189 638 250 667 b 513 571 372 667 447 658 m 353 325 b 381 257 353 293 365 272 b 435 235 396 242 414 235 b 489 256 454 235 472 240 b 519 328 507 274 519 299 b 492 396 519 358 507 382 b 438 417 478 408 460 417 b 381 394 417 417 396 410 b 353 325 365 379 353 356 m 182 864 b 307 990 182 935 236 990 b 433 864 378 990 433 935 b 307 738 433 793 378 738 b 182 864 236 738 182 793 m 483 864 b 608 990 483 935 538 990 b 735 864 679 990 735 935 b 608 738 735 793 679 738 b 483 864 538 738 483 793 "},"å":{"ha":888,"x_min":0,"x_max":0,"o":"m 519 575 b 508 631 510 600 508 619 l 508 649 l 821 649 l 821 0 l 510 0 l 511 22 b 524 82 513 40 518 65 l 514 82 b 319 -18 440 -10 360 -18 b 136 58 254 -18 192 1 b 39 321 81 115 39 203 b 140 589 39 436 79 528 b 332 667 189 638 250 667 b 513 571 372 667 447 658 m 353 325 b 381 257 353 293 365 272 b 435 235 396 242 414 235 b 489 256 454 235 472 240 b 519 328 507 274 519 299 b 492 396 519 358 507 382 b 438 417 478 408 460 417 b 381 394 417 417 396 410 b 353 325 365 379 353 356 m 640 896 b 588 789 640 851 618 813 b 450 751 542 754 475 751 b 313 789 425 751 358 754 b 260 896 282 813 260 851 b 313 1001 260 942 283 979 b 450 1039 358 1036 425 1039 b 588 1001 475 1039 542 1036 b 640 896 617 979 640 942 m 450 944 b 401 933 438 944 417 943 b 381 896 388 925 381 913 b 401 857 381 878 388 865 b 450 846 417 847 438 846 b 499 857 464 846 483 847 b 519 894 511 865 519 876 b 499 933 519 911 514 924 b 450 944 483 943 464 944 "},"æ":{"ha":1394,"x_min":0,"x_max":0,"o":"m 1340 218 b 1193 38 1314 133 1265 79 b 971 -18 1124 -3 1051 -18 b 789 13 915 -18 840 -7 b 667 93 728 35 689 69 b 539 17 625 58 583 35 b 346 -18 471 -11 411 -18 b 96 69 221 -18 143 21 b 39 213 63 104 39 151 b 94 353 39 281 68 326 b 332 432 163 424 267 432 b 524 401 385 432 444 426 b 494 486 525 436 511 469 b 367 522 463 519 392 522 b 65 460 317 522 221 515 l 65 617 b 383 667 156 642 278 667 b 554 639 425 667 497 664 b 667 553 599 621 638 589 b 779 629 694 579 731 607 b 960 667 839 657 893 667 b 1260 554 1103 667 1199 618 b 1356 288 1343 468 1356 368 l 1356 276 l 894 276 l 894 268 b 918 185 894 244 900 203 b 971 167 928 175 946 167 b 1013 181 986 167 1000 168 b 1031 218 1021 189 1028 201 m 1047 411 b 1019 475 1046 432 1036 460 b 971 494 1007 486 989 494 b 924 478 951 494 935 489 b 897 411 907 463 897 433 m 449 279 b 356 258 419 279 382 276 b 329 213 339 247 329 233 b 363 161 329 185 343 171 b 447 147 389 149 428 147 b 551 168 482 147 518 151 b 593 218 586 185 593 206 b 546 265 593 232 586 253 b 449 279 521 274 482 279 "},"ç":{"ha":617,"x_min":0,"x_max":0,"o":"m 565 15 b 406 -18 529 -3 481 -18 b 132 78 263 -18 178 33 b 39 315 81 128 39 207 b 139 574 39 425 81 515 b 390 667 214 649 306 667 b 574 633 444 667 507 658 l 574 369 b 456 421 521 417 478 421 b 386 396 432 421 407 417 b 360 328 369 378 360 351 b 386 260 360 300 369 276 b 453 232 403 243 425 232 b 578 283 497 232 544 253 m 361 -347 l 222 -250 l 389 -62 l 536 -168 "},"è":{"ha":851,"x_min":0,"x_max":0,"o":"m 353 272 b 376 178 351 242 358 197 b 424 160 383 169 399 160 b 471 178 444 160 460 168 b 492 215 481 186 488 201 l 800 215 b 735 104 785 167 763 135 b 438 -18 669 31 589 -18 b 131 89 339 -18 218 1 b 39 315 90 129 39 203 b 136 560 39 407 74 497 b 425 667 197 619 294 667 b 704 564 549 667 640 626 b 813 308 774 497 813 399 l 813 272 m 504 407 b 476 472 503 429 493 457 b 426 490 465 483 447 490 b 381 474 410 490 392 483 b 356 407 365 460 356 429 m 432 1031 l 592 828 l 472 751 l 269 929 "},"é":{"ha":851,"x_min":0,"x_max":0,"o":"m 353 272 b 376 178 351 242 358 197 b 424 160 383 169 399 160 b 471 178 444 160 460 168 b 492 215 481 186 488 201 l 800 215 b 735 104 785 167 763 135 b 438 -18 669 31 589 -18 b 131 89 339 -18 218 1 b 39 315 90 129 39 203 b 136 560 39 407 74 497 b 425 667 197 619 294 667 b 704 564 549 667 640 626 b 813 308 774 497 813 399 l 813 272 m 504 407 b 476 472 503 429 493 457 b 426 490 465 483 447 490 b 381 474 410 490 392 483 b 356 407 365 460 356 429 m 450 1031 l 613 929 l 410 751 l 289 828 "},"ê":{"ha":851,"x_min":0,"x_max":0,"o":"m 353 272 b 376 178 351 242 358 197 b 424 160 383 169 399 160 b 471 178 444 160 460 168 b 492 215 481 186 488 201 l 800 215 b 735 104 785 167 763 135 b 438 -18 669 31 589 -18 b 131 89 339 -18 218 1 b 39 315 90 129 39 203 b 136 560 39 407 74 497 b 425 667 197 619 294 667 b 704 564 549 667 640 626 b 813 308 774 497 813 399 l 813 272 m 504 407 b 476 472 503 429 493 457 b 426 490 465 483 447 490 b 381 474 410 490 392 483 b 356 407 365 460 356 429 m 419 817 l 282 717 l 179 826 l 425 1006 l 660 829 l 563 717 "},"ë":{"ha":851,"x_min":0,"x_max":0,"o":"m 353 272 b 376 178 351 242 358 197 b 424 160 383 169 399 160 b 471 178 444 160 460 168 b 492 215 481 186 488 201 l 800 215 b 735 104 785 167 763 135 b 438 -18 669 31 589 -18 b 131 89 339 -18 218 1 b 39 315 90 129 39 203 b 136 560 39 407 74 497 b 425 667 197 619 294 667 b 704 564 549 667 640 626 b 813 308 774 497 813 399 l 813 272 m 504 407 b 476 472 503 429 493 457 b 426 490 465 483 447 490 b 381 474 410 490 392 483 b 356 407 365 460 356 429 m 129 864 b 254 990 129 935 183 990 b 381 864 325 990 381 935 b 254 738 381 793 325 738 b 129 864 183 738 129 793 m 431 864 b 556 990 431 935 485 990 b 682 864 626 990 682 935 b 556 738 682 793 626 738 b 431 864 485 738 431 793 "},"ì":{"ha":449,"x_min":0,"x_max":0,"o":"m 67 0 l 67 649 l 382 649 l 382 0 m 206 1031 l 365 828 l 246 751 l 43 929 "},"í":{"ha":449,"x_min":0,"x_max":0,"o":"m 67 0 l 67 649 l 382 649 l 382 0 m 265 1031 l 428 929 l 225 751 l 104 828 "},"î":{"ha":449,"x_min":0,"x_max":0,"o":"m 67 0 l 67 649 l 382 649 l 382 0 m 225 817 l 88 717 l -15 826 l 231 1006 l 465 829 l 368 717 "},"ï":{"ha":449,"x_min":0,"x_max":0,"o":"m 67 0 l 67 649 l 382 649 l 382 0 m -53 864 b 72 990 -53 935 1 990 b 199 864 143 990 199 935 b 72 738 199 793 143 738 b -53 864 1 738 -53 793 m 249 864 b 374 990 249 935 303 990 b 500 864 444 990 500 935 b 374 738 500 793 444 738 b 249 864 303 738 249 793 "},"ð":{"ha":883,"x_min":0,"x_max":0,"o":"m 189 1035 b 533 942 365 1019 475 972 l 732 1029 l 782 893 l 656 840 b 803 642 717 793 767 732 b 844 408 822 593 844 514 b 733 90 844 240 785 143 b 439 -18 644 -3 532 -18 b 133 82 276 -18 183 33 b 39 317 75 138 39 225 b 125 529 39 411 79 482 b 394 629 175 579 257 629 b 597 574 467 629 529 617 b 463 753 579 647 539 711 l 201 638 l 151 775 l 315 846 b 167 881 264 865 214 876 m 433 417 b 372 394 401 417 382 404 b 344 325 357 381 344 358 b 372 254 344 290 357 268 b 433 232 382 244 401 232 b 494 254 465 232 485 244 b 522 325 510 268 522 290 b 494 394 522 358 510 381 b 433 417 485 404 465 417 "},"ñ":{"ha":874,"x_min":0,"x_max":0,"o":"m 67 0 l 67 649 l 376 649 l 376 615 b 364 549 376 593 371 569 l 371 547 b 458 632 396 579 432 614 b 576 667 494 656 532 667 b 735 608 651 667 703 638 b 807 417 799 547 807 467 l 807 0 l 492 0 l 492 353 b 478 403 492 385 482 399 b 442 417 467 415 453 417 b 401 401 426 417 413 413 b 382 338 383 383 382 357 l 382 0 m 390 794 b 342 808 375 800 360 808 b 308 796 329 808 318 806 b 278 751 299 786 285 765 l 164 824 b 253 919 183 854 219 897 b 353 950 285 942 318 950 b 431 931 378 950 404 944 l 463 914 b 518 894 482 904 497 894 b 549 906 529 894 539 896 b 575 936 554 910 571 929 l 585 951 l 708 890 b 651 813 694 864 674 836 b 524 754 615 775 576 754 b 450 771 494 754 472 763 "},"ò":{"ha":869,"x_min":0,"x_max":0,"o":"m 831 325 b 738 92 831 232 792 147 b 435 -18 685 38 590 -18 b 132 92 279 -18 185 38 b 39 325 78 147 39 232 b 132 557 39 404 69 493 b 435 667 185 611 279 667 b 738 557 590 667 685 611 b 831 325 800 493 831 404 m 435 417 b 374 394 403 417 383 404 b 346 325 358 381 346 358 b 374 254 346 290 358 268 b 435 232 383 244 403 232 b 496 254 467 232 486 244 b 524 325 511 268 524 290 b 496 394 524 358 511 381 b 435 417 486 404 467 417 m 439 1031 l 599 828 l 479 751 l 276 929 "},"ó":{"ha":869,"x_min":0,"x_max":0,"o":"m 831 325 b 738 92 831 232 792 147 b 435 -18 685 38 590 -18 b 132 92 279 -18 185 38 b 39 325 78 147 39 232 b 132 557 39 404 69 493 b 435 667 185 611 279 667 b 738 557 590 667 685 611 b 831 325 800 493 831 404 m 435 417 b 374 394 403 417 383 404 b 346 325 358 381 346 358 b 374 254 346 290 358 268 b 435 232 383 244 403 232 b 496 254 467 232 486 244 b 524 325 511 268 524 290 b 496 394 524 358 511 381 b 435 417 486 404 467 417 m 438 1031 l 600 929 l 397 751 l 276 828 "},"ô":{"ha":869,"x_min":0,"x_max":0,"o":"m 831 325 b 738 92 831 232 792 147 b 435 -18 685 38 590 -18 b 132 92 279 -18 185 38 b 39 325 78 147 39 232 b 132 557 39 404 69 493 b 435 667 185 611 279 667 b 738 557 590 667 685 611 b 831 325 800 493 831 404 m 435 417 b 374 394 403 417 383 404 b 346 325 358 381 346 358 b 374 254 346 290 358 268 b 435 232 383 244 403 232 b 496 254 467 232 486 244 b 524 325 511 268 524 290 b 496 394 524 358 511 381 b 435 417 486 404 467 417 m 435 817 l 297 717 l 194 826 l 440 1006 l 675 829 l 578 717 "},"õ":{"ha":869,"x_min":0,"x_max":0,"o":"m 831 325 b 738 92 831 232 792 147 b 435 -18 685 38 590 -18 b 132 92 279 -18 185 38 b 39 325 78 147 39 232 b 132 557 39 404 69 493 b 435 667 185 611 279 667 b 738 557 590 667 685 611 b 831 325 800 493 831 404 m 435 417 b 374 394 403 417 383 404 b 346 325 358 381 346 358 b 374 254 346 290 358 268 b 435 232 383 244 403 232 b 496 254 467 232 486 244 b 524 325 511 268 524 290 b 496 394 524 358 511 381 b 435 417 486 404 467 417 m 389 794 b 340 808 374 800 358 808 b 307 796 328 808 317 806 b 276 751 297 786 283 765 l 163 824 b 251 919 182 854 218 897 b 351 950 283 942 317 950 b 429 931 376 950 403 944 l 461 914 b 517 894 481 904 496 894 b 547 906 528 894 538 896 b 574 936 553 910 569 929 l 583 951 l 707 890 b 650 813 693 864 672 836 b 522 754 614 775 575 754 b 449 771 493 754 471 763 "},"ö":{"ha":869,"x_min":0,"x_max":0,"o":"m 831 325 b 738 92 831 232 792 147 b 435 -18 685 38 590 -18 b 132 92 279 -18 185 38 b 39 325 78 147 39 232 b 132 557 39 404 69 493 b 435 667 185 611 279 667 b 738 557 590 667 685 611 b 831 325 800 493 831 404 m 435 417 b 374 394 403 417 383 404 b 346 325 358 381 346 358 b 374 254 346 290 358 268 b 435 232 383 244 403 232 b 496 254 467 232 486 244 b 524 325 511 268 524 290 b 496 394 524 358 511 381 b 435 417 486 404 467 417 m 140 864 b 265 990 140 935 194 990 b 392 864 336 990 392 935 b 265 738 392 793 336 738 b 140 864 194 738 140 793 m 442 864 b 567 990 442 935 496 990 b 693 864 638 990 693 935 b 567 738 693 793 638 738 b 442 864 496 738 442 793 "},"÷":{"ha":694,"x_min":0,"x_max":0,"o":"m 46 556 l 649 556 l 649 389 l 46 389 m 244 708 b 347 811 244 765 290 811 b 450 708 404 811 450 765 b 347 606 450 651 404 606 b 244 708 290 606 244 651 m 244 236 b 347 339 244 293 290 339 b 450 236 404 339 450 293 b 347 133 450 179 404 133 b 244 236 290 133 244 179 "},"ø":{"ha":910,"x_min":0,"x_max":0,"o":"m 778 532 b 850 325 811 492 850 425 b 757 92 850 228 810 144 b 447 -18 668 0 543 -18 b 263 17 376 -18 322 -10 l 136 -110 l 22 0 l 133 113 b 58 325 69 194 58 276 b 151 557 58 404 89 493 b 454 667 217 624 315 667 b 651 629 533 667 590 656 l 774 756 l 888 644 m 454 417 b 393 394 422 417 403 404 b 365 325 378 381 365 358 b 393 254 365 290 378 268 b 454 232 403 244 422 232 b 515 254 486 232 506 244 b 543 325 531 268 543 290 b 515 394 543 358 531 381 b 454 417 506 404 486 417 "},"ù":{"ha":872,"x_min":0,"x_max":0,"o":"m 67 649 l 382 649 l 382 297 b 397 246 382 281 383 260 b 435 232 408 233 422 232 b 474 246 447 232 461 233 b 490 297 489 261 490 279 l 490 649 l 806 649 l 806 275 b 731 90 806 228 794 157 b 435 -18 669 26 568 -18 b 143 86 301 -18 203 26 b 67 265 97 132 67 192 m 418 1031 l 578 828 l 458 751 l 256 929 "},"ú":{"ha":872,"x_min":0,"x_max":0,"o":"m 67 649 l 382 649 l 382 297 b 397 246 382 281 383 260 b 435 232 408 233 422 232 b 474 246 447 232 461 233 b 490 297 489 261 490 279 l 490 649 l 806 649 l 806 275 b 731 90 806 228 794 157 b 435 -18 669 26 568 -18 b 143 86 301 -18 203 26 b 67 265 97 132 67 192 m 451 1031 l 614 929 l 411 751 l 290 828 "},"û":{"ha":872,"x_min":0,"x_max":0,"o":"m 67 649 l 382 649 l 382 297 b 397 246 382 281 383 260 b 435 232 408 233 422 232 b 474 246 447 232 461 233 b 490 297 489 261 490 279 l 490 649 l 806 649 l 806 275 b 731 90 806 228 794 157 b 435 -18 669 26 568 -18 b 143 86 301 -18 203 26 b 67 265 97 132 67 192 m 436 817 l 299 717 l 196 826 l 442 1006 l 676 829 l 579 717 "},"ü":{"ha":872,"x_min":0,"x_max":0,"o":"m 67 649 l 382 649 l 382 297 b 397 246 382 281 383 260 b 435 232 408 233 422 232 b 474 246 447 232 461 233 b 490 297 489 261 490 279 l 490 649 l 806 649 l 806 275 b 731 90 806 228 794 157 b 435 -18 669 26 568 -18 b 143 86 301 -18 203 26 b 67 265 97 132 67 192 m 167 864 b 292 990 167 935 221 990 b 418 864 363 990 418 935 b 292 738 418 793 363 738 b 167 864 221 738 167 793 m 468 864 b 593 990 468 935 522 990 b 719 864 664 990 719 935 b 593 738 719 793 664 738 b 468 864 522 738 468 793 "},"ý":{"ha":835,"x_min":0,"x_max":0,"o":"m -14 649 l 326 649 l 404 382 b 418 297 413 353 417 328 l 426 297 b 440 386 428 328 433 361 l 515 649 l 849 649 l 408 -318 l 74 -318 l 265 65 m 438 1031 l 600 929 l 397 751 l 276 828 "},"þ":{"ha":885,"x_min":0,"x_max":0,"o":"m 67 -318 l 67 1013 l 368 1013 l 368 613 b 360 556 368 593 365 571 l 358 551 l 368 549 b 435 625 386 579 411 607 b 567 667 464 646 507 667 b 751 593 642 667 707 638 b 846 328 815 529 846 425 b 744 60 846 192 789 107 b 572 -18 694 7 640 -18 b 444 19 531 -18 486 -8 b 378 89 421 36 396 58 l 368 89 b 383 -37 381 39 383 6 l 383 -318 m 368 321 b 396 243 368 288 378 261 b 450 222 411 226 429 222 b 506 243 472 222 490 229 b 538 321 526 263 538 292 b 507 397 538 351 525 379 b 449 421 496 408 476 421 b 397 401 428 421 410 413 b 368 321 376 382 368 346 "},"ÿ":{"ha":835,"x_min":0,"x_max":0,"o":"m -14 649 l 326 649 l 404 382 b 418 297 413 353 417 328 l 426 297 b 440 386 428 328 433 361 l 515 649 l 849 649 l 408 -318 l 74 -318 l 265 65 m 161 864 b 286 990 161 935 215 990 b 413 864 357 990 413 935 b 286 738 413 793 357 738 b 161 864 215 738 161 793 m 463 864 b 588 990 463 935 517 990 b 714 864 658 990 714 935 b 588 738 714 793 658 738 b 463 864 517 738 463 793 "},"Ā":{"ha":1024,"x_min":0,"x_max":0,"o":"m 381 115 l 356 0 l 0 0 l 321 926 l 693 926 l 1024 0 l 667 0 l 636 115 m 535 513 b 517 617 526 549 521 583 l 504 617 b 489 513 503 578 497 546 l 443 335 l 578 335 l 535 513 m 247 1036 l 247 1181 l 753 1181 l 753 1036 "},"ā":{"ha":888,"x_min":0,"x_max":0,"o":"m 519 575 b 508 631 510 600 508 619 l 508 649 l 821 649 l 821 0 l 510 0 l 511 22 b 524 82 513 40 518 65 l 514 82 b 319 -18 440 -10 360 -18 b 136 58 254 -18 192 1 b 39 321 81 115 39 203 b 140 589 39 436 79 528 b 332 667 189 638 250 667 b 513 571 372 667 447 658 m 353 325 b 381 257 353 293 365 272 b 435 235 396 242 414 235 b 489 256 454 235 472 240 b 519 328 507 274 519 299 b 492 396 519 358 507 382 b 438 417 478 408 460 417 b 381 394 417 417 396 410 b 353 325 365 379 353 356 m 244 756 l 244 894 l 717 894 l 717 756 "},"Ă":{"ha":1024,"x_min":0,"x_max":0,"o":"m 381 115 l 356 0 l 0 0 l 321 926 l 693 926 l 1024 0 l 667 0 l 636 115 m 535 513 b 517 617 526 549 521 583 l 504 617 b 489 513 503 578 497 546 l 443 335 l 578 335 l 535 513 m 754 1219 b 688 1074 749 1146 714 1099 b 500 1006 633 1019 564 1006 b 313 1074 436 1006 367 1019 b 246 1219 286 1099 251 1146 l 393 1219 b 426 1163 397 1194 411 1175 b 500 1142 443 1150 467 1142 b 574 1163 535 1142 558 1151 b 607 1219 589 1175 603 1194 "},"ă":{"ha":888,"x_min":0,"x_max":0,"o":"m 519 575 b 508 631 510 600 508 619 l 508 649 l 821 649 l 821 0 l 510 0 l 511 22 b 524 82 513 40 518 65 l 514 82 b 319 -18 440 -10 360 -18 b 136 58 254 -18 192 1 b 39 321 81 115 39 203 b 140 589 39 436 79 528 b 332 667 189 638 250 667 b 513 571 372 667 447 658 m 353 325 b 381 257 353 293 365 272 b 435 235 396 242 414 235 b 489 256 454 235 472 240 b 519 328 507 274 519 299 b 492 396 519 358 507 382 b 438 417 478 408 460 417 b 381 394 417 417 396 410 b 353 325 365 379 353 356 m 740 965 b 674 819 735 892 700 844 b 486 751 619 765 550 751 b 299 819 422 751 353 765 b 232 965 272 844 238 892 l 379 965 b 413 908 383 940 397 921 b 486 888 429 896 453 888 b 560 908 521 888 544 897 b 593 965 575 921 589 940 "},"Ą":{"ha":1024,"x_min":0,"x_max":0,"o":"m 381 115 l 356 0 l 0 0 l 321 926 l 693 926 l 1024 0 l 792 0 b 740 -47 778 -11 751 -33 b 718 -104 725 -64 718 -82 b 732 -139 718 -114 719 -128 b 775 -151 740 -147 756 -151 b 858 -117 793 -151 825 -149 l 825 -249 b 694 -281 807 -260 764 -281 b 586 -246 667 -281 621 -278 b 550 -158 554 -217 550 -182 b 596 -57 550 -112 568 -86 b 667 0 615 -37 642 -17 l 636 115 m 535 513 b 517 617 526 549 521 583 l 504 617 b 489 513 503 578 497 546 l 443 335 l 578 335 l 535 513 "},"ą":{"ha":888,"x_min":0,"x_max":0,"o":"m 519 575 b 508 631 510 600 508 619 l 508 649 l 821 649 l 821 0 l 738 0 b 692 -43 724 -11 701 -32 b 671 -93 679 -58 671 -71 b 685 -126 671 -104 672 -117 b 724 -137 692 -132 704 -137 b 799 -106 742 -137 769 -133 l 768 -226 b 650 -256 728 -250 681 -256 b 551 -224 638 -256 586 -254 b 518 -143 535 -208 518 -183 b 560 -51 518 -103 533 -78 b 624 0 576 -35 601 -15 l 510 0 l 511 22 b 524 82 513 40 518 65 l 514 82 b 438 15 494 58 468 33 b 315 -18 406 -3 364 -18 b 136 58 250 -18 189 4 b 39 321 81 115 39 203 b 140 589 39 436 79 528 b 332 667 189 638 250 667 b 513 571 372 667 447 658 m 353 325 b 381 257 353 293 365 272 b 435 235 396 242 414 235 b 489 256 454 235 472 240 b 519 328 507 274 519 299 b 492 396 519 358 507 382 b 438 417 478 408 460 417 b 381 394 417 417 396 410 b 353 325 365 379 353 356 "},"Ć":{"ha":821,"x_min":0,"x_max":0,"o":"m 761 17 b 528 -21 674 -17 571 -21 b 186 114 407 -21 278 22 b 51 456 99 200 51 325 b 190 807 51 599 106 721 b 540 947 256 872 367 947 b 761 911 610 947 688 936 l 771 558 b 575 650 732 597 660 650 b 440 593 522 650 474 629 b 392 461 408 558 392 510 b 446 328 392 411 410 363 b 583 275 474 301 517 275 b 771 363 678 275 743 332 m 576 1285 l 739 1183 l 536 1006 l 415 1082 "},"ć":{"ha":617,"x_min":0,"x_max":0,"o":"m 565 15 b 406 -18 529 -3 481 -18 b 132 78 263 -18 178 33 b 39 315 81 128 39 207 b 139 574 39 425 81 515 b 390 667 214 649 306 667 b 574 633 444 667 507 658 l 574 369 b 456 421 521 417 478 421 b 386 396 432 421 407 417 b 360 328 369 378 360 351 b 386 260 360 300 369 276 b 453 232 403 243 425 232 b 578 283 497 232 544 253 m 429 1031 l 592 929 l 389 751 l 268 828 "},"Ĉ":{"ha":821,"x_min":0,"x_max":0,"o":"m 761 17 b 528 -21 674 -17 571 -21 b 186 114 407 -21 278 22 b 51 456 99 200 51 325 b 190 807 51 599 106 721 b 540 947 256 872 367 947 b 761 911 610 947 688 936 l 771 558 b 575 650 732 597 660 650 b 440 593 522 650 474 629 b 392 461 408 558 392 510 b 446 328 392 411 410 363 b 583 275 474 301 517 275 b 771 363 678 275 743 332 m 531 1092 l 365 992 l 265 1114 l 538 1272 l 794 1113 l 692 994 "},"ĉ":{"ha":617,"x_min":0,"x_max":0,"o":"m 565 15 b 406 -18 529 -3 481 -18 b 132 78 263 -18 178 33 b 39 315 81 128 39 207 b 139 574 39 425 81 515 b 390 667 214 649 306 667 b 574 633 444 667 507 658 l 574 369 b 456 421 521 417 478 421 b 386 396 432 421 407 417 b 360 328 369 378 360 351 b 386 260 360 300 369 276 b 453 232 403 243 425 232 b 578 283 497 232 544 253 m 389 817 l 251 717 l 149 826 l 394 1006 l 629 829 l 532 717 "},"Ċ":{"ha":821,"x_min":0,"x_max":0,"o":"m 761 17 b 528 -21 674 -17 571 -21 b 186 114 407 -21 278 22 b 51 456 99 200 51 325 b 190 807 51 599 106 721 b 540 947 256 872 367 947 b 761 911 610 947 688 936 l 771 558 b 575 650 732 597 660 650 b 440 593 522 650 474 629 b 392 461 408 558 392 510 b 446 328 392 411 410 363 b 583 275 474 301 517 275 b 771 363 678 275 743 332 m 389 1124 b 518 1253 389 1197 444 1253 b 647 1124 592 1253 647 1197 b 518 994 647 1050 592 994 b 389 1124 444 994 389 1050 "},"ċ":{"ha":617,"x_min":0,"x_max":0,"o":"m 565 15 b 406 -18 529 -3 481 -18 b 132 78 263 -18 178 33 b 39 315 81 128 39 207 b 139 574 39 425 81 515 b 390 667 214 649 306 667 b 574 633 444 667 507 658 l 574 369 b 456 421 521 417 478 421 b 386 396 432 421 407 417 b 360 328 369 378 360 351 b 386 260 360 300 369 276 b 453 232 403 243 425 232 b 578 283 497 232 544 253 m 251 869 b 381 999 251 943 307 999 b 510 869 454 999 510 943 b 381 740 510 796 454 740 b 251 869 307 740 251 796 "},"Č":{"ha":821,"x_min":0,"x_max":0,"o":"m 761 17 b 528 -21 674 -17 571 -21 b 186 114 407 -21 278 22 b 51 456 99 200 51 325 b 190 807 51 599 106 721 b 540 947 256 872 367 947 b 761 911 610 947 688 936 l 771 558 b 575 650 732 597 660 650 b 440 593 522 650 474 629 b 392 461 408 558 392 510 b 446 328 392 411 410 363 b 583 275 474 301 517 275 b 771 363 678 275 743 332 m 711 1269 l 808 1151 l 539 992 l 279 1150 l 379 1272 l 544 1172 "},"č":{"ha":617,"x_min":0,"x_max":0,"o":"m 565 15 b 406 -18 529 -3 481 -18 b 132 78 263 -18 178 33 b 39 315 81 128 39 207 b 139 574 39 425 81 515 b 390 667 214 649 306 667 b 574 633 444 667 507 658 l 574 369 b 456 421 521 417 478 421 b 386 396 432 421 407 417 b 360 328 369 378 360 351 b 386 260 360 300 369 276 b 453 232 403 243 425 232 b 578 283 497 232 544 253 m 539 1006 l 636 893 l 390 717 l 156 896 l 258 1006 l 396 906 "},"Ď":{"ha":1035,"x_min":0,"x_max":0,"o":"m 93 0 l 93 926 l 450 926 b 860 786 528 926 725 919 b 985 451 919 726 985 622 b 865 131 985 356 967 232 b 533 0 810 74 701 0 m 426 283 l 451 283 b 594 326 490 283 547 285 b 649 460 626 354 649 401 b 594 599 649 519 625 569 b 463 643 554 636 501 643 l 426 643 m 628 1269 l 725 1151 l 456 992 l 196 1150 l 296 1272 l 461 1172 "},"ď":{"ha":1172,"x_min":0,"x_max":0,"o":"m 503 1013 l 818 1013 l 818 0 l 513 0 l 513 29 b 522 103 513 51 519 89 l 513 104 b 440 19 497 75 472 42 b 306 -18 406 -4 357 -18 b 135 54 240 -18 179 8 b 39 322 69 119 39 225 b 139 593 39 438 79 533 b 314 667 174 628 231 667 b 436 631 361 667 403 653 b 506 563 463 613 489 583 l 515 563 b 503 657 510 588 503 626 m 515 329 b 483 411 515 358 504 390 b 431 432 468 426 451 432 b 376 413 403 432 386 422 b 346 335 358 396 346 361 b 378 254 346 304 358 274 b 432 232 393 239 411 232 b 485 251 451 232 469 238 b 515 329 494 260 515 283 m 1074 661 l 883 661 l 960 926 l 1200 926 "},"Đ":{"ha":1074,"x_min":0,"x_max":0,"o":"m 132 0 l 132 378 l 28 378 l 28 561 l 132 561 l 132 926 l 489 926 b 899 786 589 926 771 914 b 1024 454 960 725 1024 622 b 904 131 1024 356 1004 232 b 572 0 849 74 740 0 m 451 561 l 582 561 l 582 378 l 451 378 l 451 275 l 490 275 b 633 318 525 275 589 279 b 688 460 683 363 688 429 b 633 607 688 539 658 583 b 501 651 593 644 540 651 l 451 651 "},"đ":{"ha":899,"x_min":0,"x_max":0,"o":"m 503 747 l 296 747 l 296 914 l 503 914 l 503 1013 l 818 1013 l 818 914 l 940 914 l 940 747 l 818 747 l 818 0 l 513 0 l 513 29 b 522 103 513 51 519 89 l 513 104 b 440 19 497 75 472 42 b 306 -18 406 -4 357 -18 b 135 54 240 -18 179 8 b 39 322 69 119 39 225 b 139 593 39 438 79 533 b 314 667 174 628 231 667 b 436 631 361 667 403 653 b 506 563 463 613 489 583 l 515 563 b 503 657 510 588 503 626 m 515 329 b 483 411 515 358 504 390 b 431 432 468 426 451 432 b 376 413 403 432 386 422 b 346 335 358 396 346 361 b 378 254 346 304 358 274 b 432 232 393 239 411 232 b 485 251 451 232 469 238 b 515 329 494 260 515 283 "},"Ē":{"ha":778,"x_min":0,"x_max":0,"o":"m 93 0 l 93 926 l 718 926 l 718 672 l 429 672 l 429 586 l 692 586 l 692 343 l 429 343 l 429 254 l 726 254 l 726 0 m 150 1036 l 150 1181 l 656 1181 l 656 1036 "},"ē":{"ha":851,"x_min":0,"x_max":0,"o":"m 353 272 b 376 178 351 242 358 197 b 424 160 383 169 399 160 b 471 178 444 160 460 168 b 492 215 481 186 488 201 l 800 215 b 735 104 785 167 763 135 b 438 -18 669 31 589 -18 b 131 89 339 -18 218 1 b 39 315 90 129 39 203 b 136 560 39 407 74 497 b 425 667 197 619 294 667 b 704 564 549 667 640 626 b 813 308 774 497 813 399 l 813 272 m 504 407 b 476 472 503 429 493 457 b 426 490 465 483 447 490 b 381 474 410 490 392 483 b 356 407 365 460 356 429 m 194 756 l 194 894 l 667 894 l 667 756 "},"Ė":{"ha":778,"x_min":0,"x_max":0,"o":"m 93 0 l 93 926 l 718 926 l 718 672 l 429 672 l 429 586 l 692 586 l 692 343 l 429 343 l 429 254 l 726 254 l 726 0 m 274 1124 b 403 1253 274 1197 329 1253 b 532 1124 476 1253 532 1197 b 403 994 532 1050 476 994 b 274 1124 329 994 274 1050 "},"ė":{"ha":851,"x_min":0,"x_max":0,"o":"m 353 272 b 376 178 351 242 358 197 b 424 160 383 169 399 160 b 471 178 444 160 460 168 b 492 215 481 186 488 201 l 800 215 b 735 104 785 167 763 135 b 438 -18 669 31 589 -18 b 131 89 339 -18 218 1 b 39 315 90 129 39 203 b 136 560 39 407 74 497 b 425 667 197 619 294 667 b 704 564 549 667 640 626 b 813 308 774 497 813 399 l 813 272 m 504 407 b 476 472 503 429 493 457 b 426 490 465 483 447 490 b 381 474 410 490 392 483 b 356 407 365 460 356 429 m 296 869 b 425 999 296 943 351 999 b 554 869 499 999 554 943 b 425 740 554 796 499 740 b 296 869 351 740 296 796 "},"Ę":{"ha":778,"x_min":0,"x_max":0,"o":"m 718 672 l 429 672 l 429 586 l 692 586 l 692 343 l 429 343 l 429 254 l 726 254 l 726 0 l 643 0 b 592 -47 629 -11 603 -33 b 569 -104 576 -64 569 -82 b 583 -139 569 -114 571 -128 b 626 -151 592 -147 607 -151 b 710 -117 644 -151 676 -149 l 676 -249 b 546 -281 658 -260 615 -281 b 438 -246 518 -281 472 -278 b 401 -158 406 -217 401 -182 b 447 -57 401 -112 419 -86 b 518 0 467 -37 493 -17 l 93 0 l 93 926 l 718 926 "},"ę":{"ha":851,"x_min":0,"x_max":0,"o":"m 353 272 b 376 178 353 242 358 197 b 424 160 383 169 399 160 b 471 178 444 160 460 168 b 492 215 481 186 488 201 l 800 215 b 729 92 789 172 768 132 b 631 15 703 64 669 40 b 547 -46 606 -1 576 -17 b 518 -106 532 -61 518 -79 b 532 -140 518 -118 519 -131 b 571 -151 544 -150 561 -151 b 646 -119 589 -151 617 -147 l 615 -240 b 497 -269 575 -264 528 -269 b 399 -237 458 -269 421 -258 b 365 -157 378 -219 365 -190 b 406 -65 365 -118 383 -92 b 456 -18 421 -47 436 -32 b 131 89 328 -18 214 7 b 39 315 90 129 39 203 b 136 560 39 407 74 497 b 425 667 197 619 294 667 b 704 564 549 667 640 626 b 813 308 774 497 813 399 l 813 272 m 504 407 b 476 472 503 429 493 457 b 426 490 465 483 447 490 b 381 474 410 490 392 483 b 356 407 365 460 356 429 "},"Ě":{"ha":778,"x_min":0,"x_max":0,"o":"m 93 0 l 93 926 l 718 926 l 718 672 l 429 672 l 429 586 l 692 586 l 692 343 l 429 343 l 429 254 l 726 254 l 726 0 m 579 1269 l 676 1151 l 407 992 l 147 1150 l 247 1272 l 413 1172 "},"ě":{"ha":851,"x_min":0,"x_max":0,"o":"m 353 272 b 376 178 351 242 358 197 b 424 160 383 169 399 160 b 471 178 444 160 460 168 b 492 215 481 186 488 201 l 800 215 b 735 104 785 167 763 135 b 438 -18 669 31 589 -18 b 131 89 339 -18 218 1 b 39 315 90 129 39 203 b 136 560 39 407 74 497 b 425 667 197 619 294 667 b 704 564 549 667 640 626 b 813 308 774 497 813 399 l 813 272 m 504 407 b 476 472 503 429 493 457 b 426 490 465 483 447 490 b 381 474 410 490 392 483 b 356 407 365 460 356 429 m 574 1006 l 671 893 l 425 717 l 190 896 l 293 1006 l 431 906 "},"Ĝ":{"ha":1117,"x_min":0,"x_max":0,"o":"m 546 539 l 1067 539 l 1067 518 b 946 131 1067 404 1057 250 b 553 -21 854 32 706 -21 b 171 132 358 -21 240 57 b 51 461 83 226 51 339 b 179 801 51 631 117 738 b 568 947 254 879 382 947 b 840 882 668 947 754 928 b 1018 711 919 839 975 786 l 704 594 b 576 665 685 625 647 665 b 458 622 528 665 488 649 b 390 447 421 588 390 528 b 451 282 390 385 411 321 b 561 240 478 257 514 240 b 699 319 611 240 676 258 l 546 319 m 572 1092 l 407 992 l 307 1114 l 579 1272 l 836 1113 l 733 994 "},"ĝ":{"ha":882,"x_min":0,"x_max":0,"o":"m 815 38 b 725 -199 815 -56 796 -126 b 393 -318 628 -297 506 -318 b 122 -276 283 -318 182 -297 l 67 -257 l 138 -37 b 229 -92 167 -61 199 -78 b 344 -117 267 -107 301 -117 b 467 -74 385 -117 431 -110 b 510 31 499 -42 507 -6 l 515 94 l 508 94 b 440 18 492 60 467 35 b 325 -11 403 -6 363 -11 b 135 68 251 -11 188 14 b 39 326 71 133 39 232 b 142 593 39 422 78 531 b 325 667 181 631 240 667 b 435 638 351 667 396 664 b 508 558 461 619 490 586 l 515 558 b 508 608 510 578 508 590 l 508 649 l 815 649 m 346 325 b 369 263 346 301 353 281 b 438 232 389 240 413 232 b 492 253 457 232 475 238 b 518 319 515 275 518 299 b 493 393 518 338 517 371 b 433 417 479 406 456 417 b 372 390 414 417 392 410 b 346 325 356 374 346 351 m 438 817 l 300 717 l 197 826 l 443 1006 l 678 829 l 581 717 "},"Ğ":{"ha":1117,"x_min":0,"x_max":0,"o":"m 546 539 l 1067 539 l 1067 518 b 946 131 1067 404 1057 250 b 553 -21 854 32 706 -21 b 171 132 358 -21 240 57 b 51 461 83 226 51 339 b 179 801 51 631 117 738 b 568 947 254 879 382 947 b 840 882 668 947 754 928 b 1018 711 919 839 975 786 l 704 594 b 576 665 685 625 647 665 b 458 622 528 665 488 649 b 390 447 421 588 390 528 b 451 282 390 385 411 321 b 561 240 478 257 514 240 b 699 319 611 240 676 258 l 546 319 m 824 1219 b 757 1074 818 1146 783 1099 b 569 1006 703 1019 633 1006 b 382 1074 506 1006 436 1019 b 315 1219 356 1099 321 1146 l 463 1219 b 496 1163 467 1194 481 1175 b 569 1142 513 1150 536 1142 b 643 1163 604 1142 628 1151 b 676 1219 658 1175 672 1194 "},"ğ":{"ha":882,"x_min":0,"x_max":0,"o":"m 815 38 b 725 -199 815 -56 796 -126 b 393 -318 628 -297 506 -318 b 122 -276 283 -318 182 -297 l 67 -257 l 138 -37 b 229 -92 167 -61 199 -78 b 344 -117 267 -107 301 -117 b 467 -74 385 -117 431 -110 b 510 31 499 -42 507 -6 l 515 94 l 508 94 b 440 18 492 60 467 35 b 325 -11 403 -6 363 -11 b 135 68 251 -11 188 14 b 39 326 71 133 39 232 b 142 593 39 422 78 531 b 325 667 181 631 240 667 b 435 638 351 667 396 664 b 508 558 461 619 490 586 l 515 558 b 508 608 510 578 508 590 l 508 649 l 815 649 m 346 325 b 369 263 346 301 353 281 b 438 232 389 240 413 232 b 492 253 457 232 475 238 b 518 319 515 275 518 299 b 493 393 518 338 517 371 b 433 417 479 406 456 417 b 372 390 414 417 392 410 b 346 325 356 374 346 351 m 692 965 b 625 819 686 892 651 844 b 438 751 571 765 501 751 b 250 819 374 751 304 765 b 183 965 224 844 189 892 l 331 965 b 364 908 335 940 349 921 b 438 888 381 896 404 888 b 511 908 472 888 496 897 b 544 965 526 921 540 940 "},"Ġ":{"ha":1117,"x_min":0,"x_max":0,"o":"m 546 539 l 1067 539 l 1067 518 b 946 131 1067 404 1057 250 b 553 -21 854 32 706 -21 b 171 132 358 -21 240 57 b 51 461 83 226 51 339 b 179 801 51 631 117 738 b 568 947 254 879 382 947 b 840 882 668 947 754 928 b 1018 711 919 839 975 786 l 704 594 b 576 665 685 625 647 665 b 458 622 528 665 488 649 b 390 447 421 588 390 528 b 451 282 390 385 411 321 b 561 240 478 257 514 240 b 699 319 611 240 676 258 l 546 319 m 458 1124 b 588 1253 458 1197 514 1253 b 717 1124 661 1253 717 1197 b 588 994 717 1050 661 994 b 458 1124 514 994 458 1050 "},"ġ":{"ha":882,"x_min":0,"x_max":0,"o":"m 815 38 b 725 -199 815 -56 796 -126 b 393 -318 628 -297 506 -318 b 122 -276 283 -318 182 -297 l 67 -257 l 138 -37 b 229 -92 167 -61 199 -78 b 344 -117 267 -107 301 -117 b 467 -74 385 -117 431 -110 b 510 31 499 -42 507 -6 l 515 94 l 508 94 b 440 18 492 60 467 35 b 325 -11 403 -6 363 -11 b 135 68 251 -11 188 14 b 39 326 71 133 39 232 b 142 593 39 422 78 531 b 325 667 181 631 240 667 b 435 638 351 667 396 664 b 508 558 461 619 490 586 l 515 558 b 508 608 510 578 508 590 l 508 649 l 815 649 m 346 325 b 369 263 346 301 353 281 b 438 232 389 240 413 232 b 492 253 457 232 475 238 b 518 319 515 275 518 299 b 493 393 518 338 517 371 b 433 417 479 406 456 417 b 372 390 414 417 392 410 b 346 325 356 374 346 351 m 278 869 b 407 999 278 943 333 999 b 536 869 481 999 536 943 b 407 740 536 796 481 740 b 278 869 333 740 278 796 "},"Ģ":{"ha":1117,"x_min":0,"x_max":0,"o":"m 546 539 l 1067 539 l 1067 518 b 946 131 1067 404 1057 250 b 553 -21 854 32 706 -21 b 171 132 358 -21 240 57 b 51 461 83 226 51 339 b 179 801 51 631 117 738 b 568 947 254 879 382 947 b 840 882 668 947 754 928 b 1018 711 919 839 975 786 l 704 594 b 576 665 685 625 647 665 b 458 622 528 665 488 649 b 390 447 421 588 390 528 b 451 282 390 385 411 321 b 561 240 478 257 514 240 b 699 319 611 240 676 258 l 546 319 m 579 -342 l 389 -342 l 465 -76 l 706 -76 "},"ģ":{"ha":882,"x_min":0,"x_max":0,"o":"m 815 38 b 725 -199 815 -56 796 -126 b 393 -318 628 -297 506 -318 b 122 -276 283 -318 182 -297 l 67 -257 l 138 -37 b 229 -92 167 -61 199 -78 b 344 -117 267 -107 301 -117 b 467 -74 385 -117 431 -110 b 510 31 499 -42 507 -6 l 515 94 l 508 94 b 440 18 492 60 467 35 b 325 -11 403 -6 363 -11 b 135 68 251 -11 188 14 b 39 326 71 133 39 232 b 142 593 39 422 78 531 b 325 667 181 631 240 667 b 435 638 351 667 396 664 b 508 558 461 619 490 586 l 515 558 b 508 608 510 578 508 590 l 508 649 l 815 649 m 346 325 b 369 263 346 301 353 281 b 438 232 389 240 413 232 b 492 253 457 232 475 238 b 518 319 515 275 518 299 b 493 393 518 338 517 371 b 433 417 479 406 456 417 b 372 390 414 417 392 410 b 346 325 356 374 346 351 m 410 1006 l 600 1006 l 524 740 l 283 740 "},"Ĥ":{"ha":1039,"x_min":0,"x_max":0,"o":"m 93 0 l 93 926 l 417 926 l 417 613 l 622 613 l 622 926 l 946 926 l 946 0 l 622 0 l 622 322 l 417 322 l 417 0 m 522 1092 l 357 992 l 257 1114 l 529 1272 l 786 1113 l 683 994 "},"ĥ":{"ha":868,"x_min":0,"x_max":0,"o":"m 67 0 l 67 1013 l 382 1013 l 382 649 b 372 546 382 617 381 588 l 376 543 b 461 628 400 574 435 610 b 589 667 499 653 544 667 b 732 611 640 667 697 644 b 801 415 772 572 801 504 l 801 0 l 493 0 l 493 351 b 476 399 493 367 492 383 b 443 413 465 410 453 413 b 399 394 426 413 408 404 b 382 347 383 381 382 363 l 382 0 m 222 1150 l 85 1050 l -18 1160 l 228 1339 l 463 1163 l 365 1050 "},"Ħ":{"ha":1039,"x_min":0,"x_max":0,"o":"m 93 0 l 93 669 l 10 669 l 10 867 l 93 867 l 93 926 l 417 926 l 417 867 l 622 867 l 622 926 l 946 926 l 946 867 l 1029 867 l 1029 669 l 946 669 l 946 0 l 622 0 l 622 322 l 417 322 l 417 0 m 417 669 l 417 567 l 622 567 l 622 669 "},"ħ":{"ha":882,"x_min":0,"x_max":0,"o":"m 81 0 l 81 747 l -42 747 l -42 914 l 81 914 l 81 1013 l 396 1013 l 396 914 l 603 914 l 603 747 l 396 747 l 396 649 b 386 546 396 617 394 588 l 390 543 b 475 628 414 574 449 610 b 603 667 513 653 558 667 b 746 611 654 667 711 644 b 815 415 786 572 815 504 l 815 0 l 507 0 l 507 351 b 490 399 507 367 506 383 b 457 413 479 410 467 413 b 413 394 440 413 422 404 b 396 347 397 381 396 363 l 396 0 "},"Ī":{"ha":522,"x_min":0,"x_max":0,"o":"m 93 0 l 93 926 l 429 926 l 429 0 m 8 1036 l 8 1181 l 514 1181 l 514 1036 "},"ī":{"ha":449,"x_min":0,"x_max":0,"o":"m 67 0 l 67 649 l 382 649 l 382 0 m -11 756 l -11 894 l 461 894 l 461 756 "},"Į":{"ha":522,"x_min":0,"x_max":0,"o":"m 429 0 b 378 -47 415 -11 389 -33 b 356 -104 363 -64 356 -82 b 369 -139 356 -114 357 -128 b 413 -151 378 -147 393 -151 b 496 -117 431 -151 463 -149 l 463 -249 b 332 -281 444 -260 401 -281 b 224 -246 304 -281 258 -278 b 188 -158 192 -217 188 -182 b 233 -57 188 -112 206 -86 b 304 0 253 -37 279 -17 l 93 0 l 93 926 l 429 926 "},"į":{"ha":449,"x_min":0,"x_max":0,"o":"m 382 649 l 382 0 b 336 -43 368 -11 346 -32 b 315 -93 324 -58 315 -71 b 329 -126 315 -104 317 -117 b 368 -137 336 -132 349 -137 b 443 -106 386 -137 414 -133 l 413 -226 b 294 -256 372 -250 325 -256 b 196 -224 282 -256 231 -254 b 163 -143 179 -208 163 -183 b 204 -51 163 -103 178 -78 b 268 0 221 -35 246 -15 l 67 0 l 67 649 m 399 851 b 358 749 399 811 382 774 b 224 699 329 718 278 699 b 89 749 169 699 118 718 b 49 851 65 774 49 811 b 89 954 49 892 65 929 b 224 1004 118 985 169 1004 b 358 954 278 1004 329 985 b 399 851 382 929 399 892 "},"İ":{"ha":522,"x_min":0,"x_max":0,"o":"m 93 0 l 93 926 l 429 926 l 429 0 m 118 1124 b 247 1253 118 1197 174 1253 b 376 1124 321 1253 376 1197 b 247 994 376 1050 321 994 b 118 1124 174 994 118 1050 "},"ı":{"ha":449,"x_min":0,"x_max":0,"o":"m 67 0 l 67 649 l 382 649 l 382 0 "},"Ĵ":{"ha":669,"x_min":0,"x_max":0,"o":"m 247 926 l 578 926 l 578 281 b 494 74 578 179 531 111 b 263 -21 433 10 349 -21 b 24 54 199 -21 110 -7 l -14 81 l 108 367 l 115 343 b 146 286 121 324 133 297 b 189 269 156 276 169 269 b 228 286 206 269 218 275 b 247 354 246 307 247 340 m 406 1092 l 240 992 l 140 1114 l 413 1272 l 669 1113 l 567 994 "},"ĵ":{"ha":449,"x_min":0,"x_max":0,"o":"m 67 -318 l 67 649 l 382 649 l 382 -318 m 225 817 l 88 717 l -15 826 l 231 1006 l 465 829 l 368 717 "},"Ķ":{"ha":1028,"x_min":0,"x_max":0,"o":"m 93 0 l 93 926 l 415 926 l 415 639 b 408 522 415 597 414 564 l 415 522 b 464 626 435 575 447 596 l 624 926 l 988 926 l 699 472 l 1018 0 l 629 0 l 460 297 b 415 386 443 325 428 358 l 408 386 b 415 299 414 354 415 329 l 415 0 m 522 -342 l 332 -342 l 408 -76 l 649 -76 "},"ķ":{"ha":897,"x_min":0,"x_max":0,"o":"m 67 0 l 67 1013 l 382 1013 l 382 410 l 390 410 l 392 414 l 514 649 l 883 649 l 644 333 l 894 0 l 522 0 l 388 239 l 382 239 l 382 0 m 467 -335 l 276 -335 l 353 -69 l 593 -69 "},"Ĺ":{"ha":732,"x_min":0,"x_max":0,"o":"m 93 0 l 93 926 l 429 926 l 429 299 l 713 299 l 713 0 m 292 1285 l 454 1183 l 251 1006 l 131 1082 "},"ĺ":{"ha":449,"x_min":0,"x_max":0,"o":"m 67 0 l 67 1013 l 382 1013 l 382 0 m 228 1350 l 390 1249 l 188 1071 l 67 1147 "},"Ļ":{"ha":732,"x_min":0,"x_max":0,"o":"m 93 0 l 93 926 l 429 926 l 429 299 l 713 299 l 713 0 m 407 -342 l 217 -342 l 293 -76 l 533 -76 "},"ļ":{"ha":449,"x_min":0,"x_max":0,"o":"m 67 0 l 67 1013 l 382 1013 l 382 0 m 222 -335 l 32 -335 l 108 -69 l 349 -69 "},"Ľ":{"ha":769,"x_min":0,"x_max":0,"o":"m 93 0 l 93 926 l 429 926 l 429 299 l 713 299 l 713 0 m 685 661 l 494 661 l 571 926 l 811 926 "},"ľ":{"ha":728,"x_min":0,"x_max":0,"o":"m 67 0 l 67 1013 l 382 1013 l 382 0 m 629 661 l 439 661 l 515 926 l 756 926 "},"Ŀ":{"ha":732,"x_min":0,"x_max":0,"o":"m 93 0 l 93 926 l 429 926 l 429 299 l 713 299 l 713 0 m 500 506 b 629 635 500 579 556 635 b 758 506 703 635 758 579 b 629 376 758 432 703 376 b 500 506 556 376 500 432 "},"ŀ":{"ha":685,"x_min":0,"x_max":0,"o":"m 67 0 l 67 1013 l 382 1013 l 382 0 m 436 506 b 565 635 436 579 492 635 b 694 506 639 635 694 579 b 565 376 694 432 639 376 b 436 506 492 376 436 432 "},"Ł":{"ha":772,"x_min":0,"x_max":0,"o":"m 133 0 l 133 319 l 14 243 l 14 468 l 133 544 l 133 926 l 469 926 l 469 671 l 628 772 l 628 547 l 469 446 l 469 299 l 753 299 l 753 0 "},"ł":{"ha":626,"x_min":0,"x_max":0,"o":"m 471 717 l 613 811 l 613 622 l 471 528 l 471 0 l 156 0 l 156 396 l 14 301 l 14 490 l 156 585 l 156 1013 l 471 1013 "},"Ń":{"ha":1113,"x_min":0,"x_max":0,"o":"m 93 0 l 93 926 l 414 926 l 629 576 b 717 413 664 521 686 485 l 726 413 b 697 632 713 471 697 564 l 697 926 l 1019 926 l 1019 0 l 697 0 l 467 365 b 403 486 446 399 421 447 l 393 486 b 414 315 403 436 414 357 l 414 0 m 625 1285 l 788 1183 l 585 1006 l 464 1082 "},"ń":{"ha":874,"x_min":0,"x_max":0,"o":"m 67 0 l 67 649 l 376 649 l 376 615 b 364 549 376 593 371 569 l 371 547 b 458 632 396 579 432 614 b 576 667 494 656 532 667 b 735 608 651 667 703 638 b 807 417 799 547 807 467 l 807 0 l 492 0 l 492 353 b 478 403 492 385 482 399 b 442 417 467 415 453 417 b 401 401 426 417 413 413 b 382 338 383 383 382 357 l 382 0 m 472 1031 l 635 929 l 432 751 l 311 828 "},"Ņ":{"ha":1113,"x_min":0,"x_max":0,"o":"m 93 0 l 93 926 l 414 926 l 629 576 b 717 413 664 521 686 485 l 726 413 b 697 632 713 471 697 564 l 697 926 l 1019 926 l 1019 0 l 697 0 l 467 365 b 403 486 446 399 421 447 l 393 486 b 414 315 403 436 414 357 l 414 0 m 550 -342 l 360 -342 l 436 -76 l 676 -76 "},"ņ":{"ha":874,"x_min":0,"x_max":0,"o":"m 67 0 l 67 649 l 376 649 l 376 615 b 364 549 376 593 371 569 l 371 547 b 458 632 396 579 432 614 b 576 667 494 656 532 667 b 735 608 651 667 703 638 b 807 417 799 547 807 467 l 807 0 l 492 0 l 492 353 b 478 403 492 385 482 399 b 442 417 467 415 453 417 b 401 401 426 417 413 413 b 382 338 383 383 382 357 l 382 0 m 450 -335 l 260 -335 l 336 -69 l 576 -69 "},"Ň":{"ha":1113,"x_min":0,"x_max":0,"o":"m 93 0 l 93 926 l 414 926 l 629 576 b 717 413 664 521 686 485 l 726 413 b 697 632 713 471 697 564 l 697 926 l 1019 926 l 1019 0 l 697 0 l 467 365 b 403 486 446 399 421 447 l 393 486 b 414 315 403 436 414 357 l 414 0 m 725 1269 l 822 1151 l 553 992 l 293 1150 l 393 1272 l 558 1172 "},"ň":{"ha":874,"x_min":0,"x_max":0,"o":"m 67 0 l 67 649 l 376 649 l 376 615 b 364 549 376 593 371 569 l 371 547 b 458 632 396 579 432 614 b 576 667 494 656 532 667 b 735 608 651 667 703 638 b 807 417 799 547 807 467 l 807 0 l 492 0 l 492 353 b 478 403 492 385 482 399 b 442 417 467 415 453 417 b 401 401 426 417 413 413 b 382 338 383 383 382 357 l 382 0 m 588 1006 l 685 893 l 439 717 l 204 896 l 307 1006 l 444 906 "},"Ō":{"ha":1131,"x_min":0,"x_max":0,"o":"m 1079 464 b 950 128 1079 315 1022 201 b 565 -21 871 47 742 -21 b 181 128 389 -21 260 47 b 51 464 108 201 51 315 b 181 799 51 611 108 725 b 565 947 260 879 389 947 b 950 799 742 947 871 879 b 1079 464 1022 725 1079 611 m 565 649 b 444 601 506 649 467 625 b 392 463 411 567 392 513 b 444 325 392 410 411 358 b 565 278 472 297 514 278 b 686 325 617 278 658 297 b 739 463 717 356 739 404 b 686 601 739 521 719 569 b 565 649 661 626 621 649 m 317 1036 l 317 1181 l 822 1181 l 822 1036 "},"ō":{"ha":869,"x_min":0,"x_max":0,"o":"m 831 325 b 738 92 831 232 792 147 b 435 -18 685 38 590 -18 b 132 92 279 -18 185 38 b 39 325 78 147 39 232 b 132 557 39 404 69 493 b 435 667 185 611 279 667 b 738 557 590 667 685 611 b 831 325 800 493 831 404 m 435 417 b 374 394 403 417 383 404 b 346 325 358 381 346 358 b 374 254 346 290 358 268 b 435 232 383 244 403 232 b 496 254 467 232 486 244 b 524 325 511 268 524 290 b 496 394 524 358 511 381 b 435 417 486 404 467 417 m 199 756 l 199 894 l 671 894 l 671 756 "},"Ŏ":{"ha":1131,"x_min":0,"x_max":0,"o":"m 1079 464 b 950 128 1079 315 1022 201 b 565 -21 871 47 742 -21 b 181 128 389 -21 260 47 b 51 464 108 201 51 315 b 181 799 51 611 108 725 b 565 947 260 879 389 947 b 950 799 742 947 871 879 b 1079 464 1022 725 1079 611 m 565 649 b 444 601 506 649 467 625 b 392 463 411 567 392 513 b 444 325 392 410 411 358 b 565 278 472 297 514 278 b 686 325 617 278 658 297 b 739 463 717 356 739 404 b 686 601 739 521 719 569 b 565 649 661 626 621 649 m 824 1219 b 757 1074 818 1146 783 1099 b 569 1006 703 1019 633 1006 b 382 1074 506 1006 436 1019 b 315 1219 356 1099 321 1146 l 463 1219 b 496 1163 467 1194 481 1175 b 569 1142 513 1150 536 1142 b 643 1163 604 1142 628 1151 b 676 1219 658 1175 672 1194 "},"ŏ":{"ha":869,"x_min":0,"x_max":0,"o":"m 831 325 b 738 92 831 232 792 147 b 435 -18 685 38 590 -18 b 132 92 279 -18 185 38 b 39 325 78 147 39 232 b 132 557 39 404 69 493 b 435 667 185 611 279 667 b 738 557 590 667 685 611 b 831 325 800 493 831 404 m 435 417 b 374 394 403 417 383 404 b 346 325 358 381 346 358 b 374 254 346 290 358 268 b 435 232 383 244 403 232 b 496 254 467 232 486 244 b 524 325 511 268 524 290 b 496 394 524 358 511 381 b 435 417 486 404 467 417 m 689 965 b 622 819 683 892 649 844 b 435 751 568 765 499 751 b 247 819 371 751 301 765 b 181 965 221 844 186 892 l 328 965 b 361 908 332 940 346 921 b 435 888 378 896 401 888 b 508 908 469 888 493 897 b 542 965 524 921 538 940 "},"Ő":{"ha":1131,"x_min":0,"x_max":0,"o":"m 1079 464 b 950 128 1079 315 1022 201 b 565 -21 871 47 742 -21 b 181 128 389 -21 260 47 b 51 464 108 201 51 315 b 181 799 51 611 108 725 b 565 947 260 879 389 947 b 950 799 742 947 871 879 b 1079 464 1022 725 1079 611 m 565 649 b 444 601 506 649 467 625 b 392 463 411 567 392 513 b 444 325 392 410 411 358 b 565 278 472 297 514 278 b 686 325 617 278 658 297 b 739 463 717 356 739 404 b 686 601 739 521 719 569 b 565 649 661 626 621 649 m 436 1285 l 592 1183 l 407 1006 l 297 1082 m 719 1285 l 874 1183 l 690 1006 l 581 1082 "},"ő":{"ha":869,"x_min":0,"x_max":0,"o":"m 831 325 b 738 92 831 232 792 147 b 435 -18 685 38 590 -18 b 132 92 279 -18 185 38 b 39 325 78 147 39 232 b 132 557 39 404 69 493 b 435 667 185 611 279 667 b 738 557 590 667 685 611 b 831 325 800 493 831 404 m 435 417 b 374 394 403 417 383 404 b 346 325 358 381 346 358 b 374 254 346 290 358 268 b 435 232 383 244 403 232 b 496 254 467 232 486 244 b 524 325 511 268 524 290 b 496 394 524 358 511 381 b 435 417 486 404 467 417 m 296 1031 l 451 929 l 267 751 l 157 828 m 579 1031 l 733 929 l 550 751 l 440 828 "},"Œ":{"ha":1443,"x_min":0,"x_max":0,"o":"m 761 117 b 649 18 731 81 683 38 b 482 -21 603 -8 535 -21 b 199 97 385 -21 286 10 b 51 463 103 193 51 324 b 199 838 51 592 99 742 b 493 947 258 894 353 947 b 656 907 539 947 601 939 b 761 797 699 882 736 839 l 761 926 l 1382 926 l 1382 672 l 1096 672 l 1096 586 l 1357 586 l 1357 343 l 1096 343 l 1096 254 l 1393 254 l 1393 0 l 761 0 m 401 457 b 443 335 401 404 419 363 b 568 281 468 306 510 281 b 683 324 618 281 657 299 b 738 469 713 351 738 400 b 688 604 738 540 713 581 b 572 646 660 629 619 646 b 449 593 517 646 475 622 b 401 457 418 560 401 510 "},"œ":{"ha":1296,"x_min":0,"x_max":0,"o":"m 1243 218 b 1104 40 1226 169 1192 94 b 875 -18 1053 8 978 -18 b 644 71 760 -18 692 21 b 392 -18 561 -6 468 -18 b 126 90 278 -18 194 18 b 39 318 81 140 39 214 b 142 564 39 419 82 507 b 411 667 211 631 313 667 b 650 575 536 667 613 610 b 890 668 736 657 843 668 b 1144 572 974 668 1074 639 b 1257 293 1199 522 1257 428 l 1257 278 l 797 278 l 797 272 b 819 183 797 246 797 206 b 876 164 833 169 857 164 b 922 181 889 164 908 165 b 936 218 931 189 936 201 m 950 413 b 925 482 950 435 942 467 b 878 499 914 493 896 499 b 826 479 851 499 836 489 b 803 413 810 463 803 436 m 435 417 b 374 394 403 417 383 404 b 346 325 358 381 346 358 b 374 254 346 290 358 268 b 435 232 383 244 403 232 b 496 254 467 232 486 244 b 524 325 511 268 524 290 b 496 394 524 358 511 381 b 435 417 486 404 467 417 "},"Ŕ":{"ha":988,"x_min":0,"x_max":0,"o":"m 93 0 l 93 926 l 511 926 b 794 831 608 926 710 915 b 882 603 842 783 882 713 b 831 438 882 521 857 469 b 703 364 803 403 757 375 l 703 356 b 751 313 721 346 739 332 l 960 0 l 572 0 l 439 271 b 426 300 435 281 431 285 l 421 297 l 421 0 m 421 514 l 460 514 b 531 535 479 514 510 517 b 554 592 542 544 554 563 b 536 647 554 613 549 633 b 479 672 525 660 507 672 l 421 672 m 500 1285 l 663 1183 l 460 1006 l 339 1082 "},"ŕ":{"ha":615,"x_min":0,"x_max":0,"o":"m 67 0 l 67 649 l 385 649 l 385 608 b 376 565 385 593 382 579 l 382 565 b 461 644 403 603 433 629 b 606 674 522 678 601 674 l 606 344 b 507 381 564 371 540 381 b 421 350 471 381 442 368 b 382 254 388 321 382 286 l 382 0 m 361 1031 l 524 929 l 321 751 l 200 828 "},"Ŗ":{"ha":988,"x_min":0,"x_max":0,"o":"m 93 0 l 93 926 l 511 926 b 794 831 608 926 710 915 b 882 603 842 783 882 713 b 831 438 882 521 857 469 b 703 364 803 403 757 375 l 703 356 b 751 313 721 346 739 332 l 960 0 l 572 0 l 439 271 b 426 300 435 281 431 285 l 421 297 l 421 0 m 421 514 l 460 514 b 531 535 479 514 510 517 b 554 592 542 544 554 563 b 536 647 554 613 549 633 b 479 672 525 660 507 672 l 421 672 m 508 -342 l 318 -342 l 394 -76 l 635 -76 "},"ŗ":{"ha":615,"x_min":0,"x_max":0,"o":"m 67 0 l 67 649 l 385 649 l 385 608 b 376 565 385 593 382 579 l 382 565 b 461 644 403 603 433 629 b 606 674 522 678 601 674 l 606 344 b 507 381 564 371 540 381 b 421 350 471 381 442 368 b 382 254 388 321 382 286 l 382 0 m 383 -335 l 193 -335 l 269 -69 l 510 -69 "},"Ř":{"ha":988,"x_min":0,"x_max":0,"o":"m 93 0 l 93 926 l 511 926 b 794 831 608 926 710 915 b 882 603 842 783 882 713 b 831 438 882 521 857 469 b 703 364 803 403 757 375 l 703 356 b 751 313 721 346 739 332 l 960 0 l 572 0 l 439 271 b 426 300 435 281 431 285 l 421 297 l 421 0 m 421 514 l 460 514 b 531 535 479 514 510 517 b 554 592 542 544 554 563 b 536 647 554 613 549 633 b 479 672 525 660 507 672 l 421 672 m 628 1269 l 725 1151 l 456 992 l 196 1150 l 296 1272 l 461 1172 "},"ř":{"ha":615,"x_min":0,"x_max":0,"o":"m 67 0 l 67 649 l 385 649 l 385 608 b 376 565 385 593 382 579 l 382 565 b 461 644 403 603 433 629 b 606 674 522 678 601 674 l 606 344 b 507 381 564 371 540 381 b 421 350 471 381 442 368 b 382 254 388 321 382 286 l 382 0 m 475 1006 l 572 893 l 326 717 l 92 896 l 194 1006 l 332 906 "},"Ś":{"ha":858,"x_min":0,"x_max":0,"o":"m 686 631 b 497 700 646 658 572 700 b 433 683 479 700 451 697 b 417 650 421 674 417 664 b 471 601 417 631 419 613 l 578 578 b 736 499 660 560 708 526 b 807 315 794 442 807 371 b 724 97 807 236 786 163 b 397 -21 671 43 571 -21 b 82 51 256 -21 161 19 l 51 64 l 153 325 l 189 297 b 376 229 224 271 294 229 b 449 246 422 229 442 240 b 467 288 464 258 467 274 b 456 319 467 296 465 310 b 392 342 444 331 426 335 l 310 357 b 149 436 257 367 200 383 b 82 607 101 485 82 540 b 172 828 82 693 111 767 b 494 947 243 900 347 947 b 776 867 568 947 664 935 m 521 1285 l 683 1183 l 481 1006 l 360 1082 "},"ś":{"ha":676,"x_min":0,"x_max":0,"o":"m 554 429 b 489 467 532 446 514 456 b 408 486 464 478 439 486 b 374 476 397 486 383 483 b 361 451 367 471 361 461 b 371 431 361 440 367 435 b 408 419 379 424 392 424 l 472 406 b 600 344 515 396 564 382 b 646 224 621 322 646 283 b 581 67 646 158 621 106 b 335 -18 506 -7 408 -18 b 78 35 215 -18 132 13 l 32 54 l 113 251 l 157 224 b 286 179 199 197 249 179 b 329 190 299 179 317 182 b 342 215 339 197 342 204 b 329 242 342 228 338 235 b 285 256 321 247 308 251 l 239 263 b 124 317 206 268 161 279 b 74 440 86 353 74 394 b 165 607 74 514 106 567 b 386 667 239 658 319 667 b 631 611 457 667 539 654 m 410 1031 l 572 929 l 369 751 l 249 828 "},"Ŝ":{"ha":858,"x_min":0,"x_max":0,"o":"m 686 631 b 497 700 646 658 572 700 b 433 683 479 700 451 697 b 417 650 421 674 417 664 b 471 601 417 631 419 613 l 578 578 b 736 499 660 560 708 526 b 807 315 794 442 807 371 b 724 97 807 236 786 163 b 397 -21 671 43 571 -21 b 82 51 256 -21 161 19 l 51 64 l 153 325 l 189 297 b 376 229 224 271 294 229 b 449 246 422 229 442 240 b 467 288 464 258 467 274 b 456 319 467 296 465 310 b 392 342 444 331 426 335 l 310 357 b 149 436 257 367 200 383 b 82 607 101 485 82 540 b 172 828 82 693 111 767 b 494 947 243 900 347 947 b 776 867 568 947 664 935 m 482 1092 l 317 992 l 217 1114 l 489 1272 l 746 1113 l 643 994 "},"ŝ":{"ha":676,"x_min":0,"x_max":0,"o":"m 554 429 b 489 467 532 446 514 456 b 408 486 464 478 439 486 b 374 476 397 486 383 483 b 361 451 367 471 361 461 b 371 431 361 440 367 435 b 408 419 379 424 392 424 l 472 406 b 600 344 515 396 564 382 b 646 224 621 322 646 283 b 581 67 646 158 621 106 b 335 -18 506 -7 408 -18 b 78 35 215 -18 132 13 l 32 54 l 113 251 l 157 224 b 286 179 199 197 249 179 b 329 190 299 179 317 182 b 342 215 339 197 342 204 b 329 242 342 228 338 235 b 285 256 321 247 308 251 l 239 263 b 124 317 206 268 161 279 b 74 440 86 353 74 394 b 165 607 74 514 106 567 b 386 667 239 658 319 667 b 631 611 457 667 539 654 m 382 817 l 244 717 l 142 826 l 388 1006 l 622 829 l 525 717 "},"Ş":{"ha":858,"x_min":0,"x_max":0,"o":"m 686 631 b 497 700 646 658 572 700 b 433 683 479 700 451 697 b 417 650 421 674 417 664 b 471 601 417 631 419 613 l 578 578 b 736 499 660 560 708 526 b 807 315 794 442 807 371 b 724 97 807 236 786 163 b 397 -21 671 43 571 -21 b 82 51 256 -21 161 19 l 51 64 l 153 325 l 189 297 b 376 229 224 271 294 229 b 449 246 422 229 442 240 b 467 288 464 258 467 274 b 456 319 467 296 465 310 b 392 342 444 331 426 335 l 310 357 b 149 436 257 367 200 383 b 82 607 101 485 82 540 b 172 828 82 693 111 767 b 494 947 243 900 347 947 b 776 867 568 947 664 935 m 413 -372 l 260 -264 l 443 -60 l 604 -174 "},"ş":{"ha":676,"x_min":0,"x_max":0,"o":"m 554 429 b 489 467 532 446 514 456 b 408 486 464 478 439 486 b 374 476 397 486 383 483 b 361 451 367 471 361 461 b 371 431 361 440 367 435 b 408 419 379 424 392 424 l 472 406 b 600 344 515 396 564 382 b 646 224 621 322 646 283 b 581 67 646 158 621 106 b 335 -18 506 -7 408 -18 b 78 35 215 -18 132 13 l 32 54 l 113 251 l 157 224 b 286 179 199 197 249 179 b 329 190 299 179 317 182 b 342 215 339 197 342 204 b 329 242 342 228 338 235 b 285 256 321 247 308 251 l 239 263 b 124 317 206 268 161 279 b 74 440 86 353 74 394 b 165 607 74 514 106 567 b 386 667 239 658 319 667 b 631 611 457 667 539 654 m 303 -347 l 164 -250 l 331 -62 l 478 -168 "},"Š":{"ha":858,"x_min":0,"x_max":0,"o":"m 686 631 b 497 700 646 658 572 700 b 433 683 479 700 451 697 b 417 650 421 674 417 664 b 471 601 417 631 419 613 l 578 578 b 736 499 660 560 708 526 b 807 315 794 442 807 371 b 724 97 807 236 786 163 b 397 -21 671 43 571 -21 b 82 51 256 -21 161 19 l 51 64 l 153 325 l 189 297 b 376 229 224 271 294 229 b 449 246 422 229 442 240 b 467 288 464 258 467 274 b 456 319 467 296 465 310 b 392 342 444 331 426 335 l 310 357 b 149 436 257 367 200 383 b 82 607 101 485 82 540 b 172 828 82 693 111 767 b 494 947 243 900 347 947 b 776 867 568 947 664 935 m 663 1269 l 760 1151 l 490 992 l 231 1150 l 331 1272 l 496 1172 "},"š":{"ha":676,"x_min":0,"x_max":0,"o":"m 554 429 b 489 467 532 446 514 456 b 408 486 464 478 439 486 b 374 476 397 486 383 483 b 361 451 367 471 361 461 b 371 431 361 440 367 435 b 408 419 379 424 392 424 l 472 406 b 600 344 515 396 564 382 b 646 224 621 322 646 283 b 581 67 646 158 621 106 b 335 -18 506 -7 408 -18 b 78 35 215 -18 132 13 l 32 54 l 113 251 l 157 224 b 286 179 199 197 249 179 b 329 190 299 179 317 182 b 342 215 339 197 342 204 b 329 242 342 228 338 235 b 285 256 321 247 308 251 l 239 263 b 124 317 206 268 161 279 b 74 440 86 353 74 394 b 165 607 74 514 106 567 b 386 667 239 658 319 667 b 631 611 457 667 539 654 m 532 1006 l 629 893 l 383 717 l 149 896 l 251 1006 l 389 906 "},"Ţ":{"ha":728,"x_min":0,"x_max":0,"o":"m 199 0 l 199 633 l 10 625 l 10 926 l 718 926 l 718 625 l 529 633 l 529 0 m 343 -372 l 190 -264 l 374 -60 l 535 -174 "},"ţ":{"ha":510,"x_min":0,"x_max":0,"o":"m 90 0 l 90 406 l 11 400 l 11 649 l 90 643 l 90 879 l 406 879 l 406 643 l 513 649 l 513 400 l 406 406 l 406 0 m 225 -347 l 86 -250 l 253 -62 l 400 -168 "},"Ť":{"ha":728,"x_min":0,"x_max":0,"o":"m 529 0 l 529 633 l 718 625 l 718 926 l 10 926 l 10 625 l 199 633 l 199 0 m 532 1269 l 629 1151 l 360 992 l 100 1150 l 200 1272 l 365 1172 "},"ť":{"ha":756,"x_min":0,"x_max":0,"o":"m 90 0 l 90 406 l 11 400 l 11 649 l 90 643 l 90 879 l 406 879 l 406 643 l 513 649 l 513 400 l 406 406 l 406 0 m 657 703 l 467 703 l 543 968 l 783 968 "},"Ũ":{"ha":1043,"x_min":0,"x_max":0,"o":"m 93 926 l 426 926 l 426 389 b 456 294 426 361 429 322 b 522 269 474 275 496 269 b 590 292 557 269 578 279 b 615 389 615 317 615 365 l 615 926 l 950 926 l 950 358 b 853 94 950 286 936 181 b 522 -21 758 -3 625 -21 b 178 101 438 -21 283 -12 b 93 335 106 179 93 267 m 475 1049 b 426 1063 460 1054 444 1063 b 393 1050 414 1063 403 1060 b 363 1006 383 1040 369 1019 l 249 1078 b 340 1174 286 1138 332 1168 b 440 1204 374 1196 403 1204 b 515 1185 472 1204 490 1197 l 547 1168 b 603 1149 567 1158 582 1149 b 633 1160 614 1149 624 1150 b 660 1190 639 1164 656 1183 l 669 1206 l 793 1144 b 736 1067 779 1118 758 1090 b 608 1008 700 1029 663 1008 b 535 1025 578 1008 558 1015 "},"ũ":{"ha":872,"x_min":0,"x_max":0,"o":"m 67 649 l 382 649 l 382 297 b 397 246 382 281 383 260 b 435 232 408 233 422 232 b 474 246 447 232 461 233 b 490 297 489 261 490 279 l 490 649 l 806 649 l 806 275 b 731 90 806 228 794 157 b 435 -18 669 26 568 -18 b 143 86 301 -18 203 26 b 67 265 97 132 67 192 m 390 794 b 342 808 375 800 360 808 b 308 796 329 808 318 806 b 278 751 299 786 285 765 l 164 824 b 253 919 183 854 219 897 b 353 950 285 942 318 950 b 431 931 378 950 404 944 l 463 914 b 518 894 482 904 497 894 b 549 906 529 894 539 896 b 575 936 554 910 571 929 l 585 951 l 708 890 b 651 813 694 864 674 836 b 524 754 615 775 576 754 b 450 771 494 754 472 763 "},"Ū":{"ha":1043,"x_min":0,"x_max":0,"o":"m 93 926 l 426 926 l 426 389 b 456 294 426 361 429 322 b 522 269 474 275 496 269 b 590 292 557 269 578 279 b 615 389 615 317 615 365 l 615 926 l 950 926 l 950 358 b 853 94 950 286 936 181 b 522 -21 758 -3 625 -21 b 178 101 438 -21 283 -12 b 93 335 106 179 93 267 m 275 1036 l 275 1181 l 781 1181 l 781 1036 "},"ū":{"ha":872,"x_min":0,"x_max":0,"o":"m 67 649 l 382 649 l 382 297 b 397 246 382 281 383 260 b 435 232 408 233 422 232 b 474 246 447 232 461 233 b 490 297 489 261 490 279 l 490 649 l 806 649 l 806 275 b 731 90 806 228 794 157 b 435 -18 669 26 568 -18 b 143 86 301 -18 203 26 b 67 265 97 132 67 192 m 200 756 l 200 894 l 672 894 l 672 756 "},"Ŭ":{"ha":1043,"x_min":0,"x_max":0,"o":"m 93 926 l 426 926 l 426 389 b 456 294 426 361 429 322 b 522 269 474 275 496 269 b 590 292 557 269 578 279 b 615 389 615 317 615 365 l 615 926 l 950 926 l 950 358 b 853 94 950 286 936 181 b 522 -21 758 -3 625 -21 b 178 101 438 -21 283 -12 b 93 335 106 179 93 267 m 782 1219 b 715 1074 776 1146 742 1099 b 528 1006 661 1019 592 1006 b 340 1074 464 1006 394 1019 b 274 1219 314 1099 279 1146 l 421 1219 b 454 1163 425 1194 439 1175 b 528 1142 471 1150 494 1142 b 601 1163 563 1142 586 1151 b 635 1219 617 1175 631 1194 "},"ŭ":{"ha":872,"x_min":0,"x_max":0,"o":"m 67 649 l 382 649 l 382 297 b 397 246 382 281 383 260 b 435 232 408 233 422 232 b 474 246 447 232 461 233 b 490 297 489 261 490 279 l 490 649 l 806 649 l 806 275 b 731 90 806 228 794 157 b 435 -18 669 26 568 -18 b 143 86 301 -18 203 26 b 67 265 97 132 67 192 m 690 965 b 624 819 685 892 650 844 b 436 751 569 765 500 751 b 249 819 372 751 303 765 b 182 965 222 844 188 892 l 329 965 b 363 908 333 940 347 921 b 436 888 379 896 403 888 b 510 908 471 888 494 897 b 543 965 525 921 539 940 "},"Ů":{"ha":1043,"x_min":0,"x_max":0,"o":"m 93 926 l 426 926 l 426 389 b 456 294 426 361 429 322 b 522 269 474 275 496 269 b 590 292 557 269 578 279 b 615 389 615 317 615 365 l 615 926 l 950 926 l 950 358 b 853 94 950 286 936 181 b 522 -21 758 -3 625 -21 b 178 101 438 -21 283 -12 b 93 335 106 179 93 267 m 718 1142 b 665 1035 718 1097 696 1058 b 528 997 619 1000 553 997 b 390 1035 503 997 436 1000 b 338 1142 360 1058 338 1097 b 390 1247 338 1188 361 1225 b 528 1285 436 1282 503 1285 b 665 1247 553 1285 619 1282 b 718 1142 694 1225 718 1188 m 528 1190 b 479 1179 515 1190 494 1189 b 458 1142 465 1171 458 1158 b 479 1103 458 1124 465 1111 b 528 1092 494 1093 515 1092 b 576 1103 542 1092 561 1093 b 597 1140 589 1111 597 1122 b 576 1179 597 1157 592 1169 b 528 1190 561 1189 542 1190 "},"ů":{"ha":872,"x_min":0,"x_max":0,"o":"m 67 649 l 382 649 l 382 297 b 397 246 382 281 383 260 b 435 232 408 233 422 232 b 474 246 447 232 461 233 b 490 297 489 261 490 279 l 490 649 l 806 649 l 806 275 b 731 90 806 228 794 157 b 435 -18 669 26 568 -18 b 143 86 301 -18 203 26 b 67 265 97 132 67 192 m 626 896 b 574 789 626 851 604 813 b 436 751 528 754 461 751 b 299 789 411 751 344 754 b 246 896 268 813 246 851 b 299 1001 246 942 269 979 b 436 1039 344 1036 411 1039 b 574 1001 461 1039 528 1036 b 626 896 603 979 626 942 m 436 944 b 388 933 424 944 403 943 b 367 896 374 925 367 913 b 388 857 367 878 374 865 b 436 846 403 847 424 846 b 485 857 450 846 469 847 b 506 894 497 865 506 876 b 485 933 506 911 500 924 b 436 944 469 943 450 944 "},"Ű":{"ha":1043,"x_min":0,"x_max":0,"o":"m 93 926 l 426 926 l 426 389 b 456 294 426 361 429 322 b 522 269 474 275 496 269 b 590 292 557 269 578 279 b 615 389 615 317 615 365 l 615 926 l 950 926 l 950 358 b 853 94 950 286 936 181 b 522 -21 758 -3 625 -21 b 178 101 438 -21 283 -12 b 93 335 106 179 93 267 m 394 1285 l 550 1183 l 365 1006 l 256 1082 m 678 1285 l 832 1183 l 649 1006 l 539 1082 "},"ű":{"ha":872,"x_min":0,"x_max":0,"o":"m 67 649 l 382 649 l 382 297 b 397 246 382 281 383 260 b 435 232 408 233 422 232 b 474 246 447 232 461 233 b 490 297 489 261 490 279 l 490 649 l 806 649 l 806 275 b 731 90 806 228 794 157 b 435 -18 669 26 568 -18 b 143 86 301 -18 203 26 b 67 265 97 132 67 192 m 297 1031 l 453 929 l 268 751 l 158 828 m 581 1031 l 735 929 l 551 751 l 442 828 "},"Ų":{"ha":1043,"x_min":0,"x_max":0,"o":"m 93 926 l 426 926 l 426 389 b 454 294 426 360 426 324 b 521 269 472 275 494 269 b 588 293 542 269 567 271 b 615 389 613 319 615 361 l 615 926 l 950 926 l 950 358 b 872 117 950 268 936 203 b 739 -26 826 56 776 11 b 697 -100 721 -44 697 -71 b 714 -133 697 -117 707 -128 b 758 -144 725 -142 742 -144 b 831 -112 772 -144 800 -142 l 800 -233 b 704 -262 763 -258 726 -262 b 604 -224 653 -262 622 -242 b 574 -150 586 -204 574 -182 b 614 -58 574 -112 589 -83 b 694 1 636 -36 671 -12 b 514 -21 629 -15 574 -21 b 178 101 407 -21 272 0 b 93 335 106 179 93 267 "},"ų":{"ha":872,"x_min":0,"x_max":0,"o":"m 67 649 l 382 649 l 382 297 b 397 246 382 281 383 260 b 435 232 408 233 422 232 b 474 246 447 232 461 233 b 490 297 489 261 490 279 l 490 649 l 806 649 l 806 292 b 736 99 806 229 792 163 b 631 15 704 63 669 39 b 547 -46 607 0 575 -18 b 518 -106 532 -61 518 -79 b 532 -140 518 -118 519 -131 b 571 -151 544 -150 561 -151 b 646 -119 589 -151 617 -147 l 615 -240 b 497 -269 575 -264 528 -269 b 399 -237 458 -269 421 -258 b 365 -157 378 -219 365 -190 b 406 -65 365 -118 383 -92 b 456 -18 421 -47 436 -32 b 163 68 335 -18 240 3 b 67 282 88 131 67 201 "},"Ÿ":{"ha":951,"x_min":0,"x_max":0,"o":"m -10 926 l 371 926 l 450 757 b 475 683 456 744 467 718 l 485 683 b 510 757 492 722 501 736 l 582 926 l 961 926 l 644 399 l 644 0 l 313 0 l 313 399 m 203 1126 b 328 1251 203 1196 257 1251 b 454 1126 399 1251 454 1196 b 328 1000 454 1056 399 1000 b 203 1126 257 1000 203 1056 m 518 1126 b 643 1251 518 1196 572 1251 b 769 1126 714 1251 769 1196 b 643 1000 769 1056 714 1000 b 518 1126 572 1000 518 1056 "},"Ź":{"ha":979,"x_min":0,"x_max":0,"o":"m 99 926 l 961 926 l 610 354 b 558 286 596 331 576 306 l 561 281 l 625 286 l 919 286 l 919 0 l 18 0 l 361 554 b 435 654 383 589 399 615 l 432 660 b 365 646 417 654 386 646 l 99 646 m 528 1285 l 690 1183 l 488 1006 l 367 1082 "},"ź":{"ha":763,"x_min":0,"x_max":0,"o":"m 717 0 l 29 0 l 29 43 l 231 349 b 288 408 242 365 271 394 l 288 414 b 231 404 265 406 250 404 l 61 404 l 61 649 l 732 649 l 732 615 l 522 303 b 471 246 508 282 492 264 l 471 238 b 521 246 483 242 506 246 l 717 246 m 407 1031 l 569 929 l 367 751 l 246 828 "},"Ż":{"ha":979,"x_min":0,"x_max":0,"o":"m 99 926 l 961 926 l 610 354 b 558 286 596 331 576 306 l 561 281 l 625 286 l 919 286 l 919 0 l 18 0 l 361 554 b 435 654 383 589 399 615 l 432 660 b 365 646 417 654 386 646 l 99 646 m 385 1124 b 514 1253 385 1197 440 1253 b 643 1124 588 1253 643 1197 b 514 994 643 1050 588 994 b 385 1124 440 994 385 1050 "},"ż":{"ha":763,"x_min":0,"x_max":0,"o":"m 717 0 l 29 0 l 29 43 l 231 349 b 288 408 242 365 271 394 l 288 414 b 231 404 265 406 250 404 l 61 404 l 61 649 l 732 649 l 732 615 l 522 303 b 471 246 508 282 492 264 l 471 238 b 521 246 483 242 506 246 l 717 246 m 260 869 b 389 999 260 943 315 999 b 518 869 463 999 518 943 b 389 740 518 796 463 740 b 260 869 315 740 260 796 "},"Ž":{"ha":979,"x_min":0,"x_max":0,"o":"m 99 926 l 961 926 l 610 354 b 558 286 596 331 576 306 l 561 281 l 625 286 l 919 286 l 919 0 l 18 0 l 361 554 b 435 654 383 589 399 615 l 432 660 b 365 646 417 654 386 646 l 99 646 m 690 1269 l 788 1151 l 518 992 l 258 1150 l 358 1272 l 524 1172 "},"ž":{"ha":763,"x_min":0,"x_max":0,"o":"m 717 0 l 29 0 l 29 43 l 231 349 b 288 408 242 365 271 394 l 288 414 b 231 404 265 406 250 404 l 61 404 l 61 649 l 732 649 l 732 615 l 522 303 b 471 246 508 282 492 264 l 471 238 b 521 246 483 242 506 246 l 717 246 m 546 1006 l 643 893 l 397 717 l 163 896 l 265 1006 l 403 906 "},"Ə":{"ha":1090,"x_min":0,"x_max":0,"o":"m 74 644 b 257 874 117 758 192 832 b 543 947 324 915 415 947 b 904 818 725 947 839 882 b 1039 465 969 754 1039 638 b 907 115 1039 307 979 189 b 528 -21 796 1 650 -21 b 179 107 413 -21 281 1 b 51 503 67 225 51 378 l 51 536 l 699 536 b 644 657 694 581 674 629 b 525 700 608 693 563 700 b 424 668 485 700 451 690 b 369 593 399 649 379 619 m 347 358 b 399 256 351 315 374 276 b 521 221 428 232 474 221 b 639 254 553 221 600 225 b 699 358 664 272 692 307 "},"ƒ":{"ha":982,"x_min":0,"x_max":0,"o":"m 592 40 b 497 -182 583 -7 563 -117 b 217 -268 421 -258 299 -268 b 128 -260 181 -268 158 -267 l 165 -25 l 182 -25 b 272 -6 206 -25 246 -25 b 311 74 300 15 306 46 l 376 446 l 293 446 l 324 618 l 407 618 l 438 801 b 514 956 447 864 476 918 b 708 1028 557 999 621 1028 b 864 997 749 1028 807 1022 l 825 765 b 769 782 814 772 793 782 b 725 765 749 782 733 775 b 706 721 715 756 708 735 l 689 618 l 785 618 l 754 446 l 658 446 "},"Ǐ":{"ha":522,"x_min":0,"x_max":0,"o":"m 93 0 l 93 926 l 429 926 l 429 0 m 431 1269 l 528 1151 l 258 992 l -1 1150 l 99 1272 l 264 1172 "},"ǐ":{"ha":449,"x_min":0,"x_max":0,"o":"m 67 0 l 67 649 l 382 649 l 382 0 m 367 1006 l 464 893 l 218 717 l -17 896 l 86 1006 l 224 906 "},"ǝ":{"ha":851,"x_min":0,"x_max":0,"o":"m 499 376 b 475 468 499 392 499 442 b 418 489 458 486 435 489 b 364 468 396 489 379 483 b 339 425 353 457 343 439 l 61 478 b 196 617 79 514 119 574 b 419 667 271 658 353 667 b 721 561 503 667 628 654 b 813 333 761 521 813 449 b 715 89 813 240 778 151 b 426 -18 654 29 557 -18 b 147 85 303 -18 211 22 b 39 340 78 151 39 250 l 39 376 m 347 242 b 375 176 349 219 358 192 b 425 158 386 165 404 158 b 471 175 442 158 460 165 b 496 242 486 189 496 219 "},"Ǧ":{"ha":1117,"x_min":0,"x_max":0,"o":"m 546 539 l 1067 539 l 1067 518 b 946 131 1067 404 1057 250 b 553 -21 854 32 706 -21 b 171 132 358 -21 240 57 b 51 461 83 226 51 339 b 179 801 51 631 117 738 b 568 947 254 879 382 947 b 840 882 668 947 754 928 b 1018 711 919 839 975 786 l 704 594 b 576 665 685 625 647 665 b 458 622 528 665 488 649 b 390 447 421 588 390 528 b 451 282 390 385 411 321 b 561 240 478 257 514 240 b 699 319 611 240 676 258 l 546 319 m 739 1269 l 836 1151 l 567 992 l 307 1150 l 407 1272 l 572 1172 "},"ǧ":{"ha":882,"x_min":0,"x_max":0,"o":"m 815 38 b 725 -199 815 -56 796 -126 b 393 -318 628 -297 506 -318 b 122 -276 283 -318 182 -297 l 67 -257 l 138 -37 b 229 -92 167 -61 199 -78 b 344 -117 267 -107 301 -117 b 467 -74 385 -117 431 -110 b 510 31 499 -42 507 -6 l 515 94 l 508 94 b 440 18 492 60 467 35 b 325 -11 403 -6 363 -11 b 135 68 251 -11 188 14 b 39 326 71 133 39 232 b 142 593 39 422 78 531 b 325 667 181 631 240 667 b 435 638 351 667 396 664 b 508 558 461 619 490 586 l 515 558 b 508 608 510 578 508 590 l 508 649 l 815 649 m 346 325 b 369 263 346 301 353 281 b 438 232 389 240 413 232 b 492 253 457 232 475 238 b 518 319 515 275 518 299 b 493 393 518 338 517 371 b 433 417 479 406 456 417 b 372 390 414 417 392 410 b 346 325 356 374 346 351 m 581 1006 l 678 893 l 432 717 l 197 896 l 300 1006 l 438 906 "},"Ǽ":{"ha":1315,"x_min":0,"x_max":0,"o":"m 10 0 l 332 926 l 983 926 l 1068 672 l 792 672 l 821 586 l 1099 586 l 1183 343 l 910 343 l 940 254 l 1218 254 l 1307 0 l 675 0 l 644 115 l 392 115 l 363 0 m 532 539 b 522 617 525 564 521 589 l 513 617 b 499 524 511 585 506 553 l 450 335 l 588 335 m 657 1285 l 819 1183 l 617 1006 l 496 1082 "},"ǽ":{"ha":1394,"x_min":0,"x_max":0,"o":"m 1340 218 b 1193 38 1314 133 1265 79 b 971 -18 1124 -3 1051 -18 b 789 13 915 -18 840 -7 b 667 93 728 35 689 69 b 539 17 625 58 583 35 b 346 -18 471 -11 411 -18 b 96 69 221 -18 143 21 b 39 213 63 104 39 151 b 94 353 39 281 68 326 b 332 432 163 424 267 432 b 524 401 385 432 444 426 b 494 486 525 436 511 469 b 367 522 463 519 392 522 b 65 460 317 522 221 515 l 65 617 b 383 667 156 642 278 667 b 554 639 425 667 497 664 b 667 553 599 621 638 589 b 779 629 694 579 731 607 b 960 667 839 657 893 667 b 1260 554 1103 667 1199 618 b 1356 288 1343 468 1356 368 l 1356 276 l 894 276 l 894 268 b 918 185 894 244 900 203 b 971 167 928 175 946 167 b 1013 181 986 167 1000 168 b 1031 218 1021 189 1028 201 m 1047 411 b 1019 475 1046 432 1036 460 b 971 494 1007 486 989 494 b 924 478 951 494 935 489 b 897 411 907 463 897 433 m 449 279 b 356 258 419 279 382 276 b 329 213 339 247 329 233 b 363 161 329 185 343 171 b 447 147 389 149 428 147 b 551 168 482 147 518 151 b 593 218 586 185 593 206 b 546 265 593 232 586 253 b 449 279 521 274 482 279 m 697 1031 l 860 929 l 657 751 l 536 828 "},"Ș":{"ha":858,"x_min":0,"x_max":0,"o":"m 686 631 b 497 700 646 658 572 700 b 433 683 479 700 451 697 b 417 650 421 674 417 664 b 471 601 417 631 419 613 l 578 578 b 736 499 660 560 708 526 b 807 315 794 442 807 371 b 724 97 807 236 786 163 b 397 -21 671 43 571 -21 b 82 51 256 -21 161 19 l 51 64 l 153 325 l 189 297 b 376 229 224 271 294 229 b 449 246 422 229 442 240 b 467 288 464 258 467 274 b 456 319 467 296 465 310 b 392 342 444 331 426 335 l 310 357 b 149 436 257 367 200 383 b 82 607 101 485 82 540 b 172 828 82 693 111 767 b 494 947 243 900 347 947 b 776 867 568 947 664 935 m 439 -342 l 249 -342 l 325 -76 l 565 -76 "},"ș":{"ha":676,"x_min":0,"x_max":0,"o":"m 554 429 b 489 467 532 446 514 456 b 408 486 464 478 439 486 b 374 476 397 486 383 483 b 361 451 367 471 361 461 b 371 431 361 440 367 435 b 408 419 379 424 392 424 l 472 406 b 600 344 515 396 564 382 b 646 224 621 322 646 283 b 581 67 646 158 621 106 b 335 -18 506 -7 408 -18 b 78 35 215 -18 132 13 l 32 54 l 113 251 l 157 224 b 286 179 199 197 249 179 b 329 190 299 179 317 182 b 342 215 339 197 342 204 b 329 242 342 228 338 235 b 285 256 321 247 308 251 l 239 263 b 124 317 206 268 161 279 b 74 440 86 353 74 394 b 165 607 74 514 106 567 b 386 667 239 658 319 667 b 631 611 457 667 539 654 m 356 -335 l 165 -335 l 242 -69 l 482 -69 "},"Ț":{"ha":728,"x_min":0,"x_max":0,"o":"m 199 0 l 199 633 l 10 625 l 10 926 l 718 926 l 718 625 l 529 633 l 529 0 m 356 -335 l 165 -335 l 242 -69 l 482 -69 "},"ț":{"ha":510,"x_min":0,"x_max":0,"o":"m 90 0 l 90 406 l 11 400 l 11 649 l 90 643 l 90 879 l 406 879 l 406 643 l 513 649 l 513 400 l 406 406 l 406 0 m 253 -335 l 63 -335 l 139 -69 l 379 -69 "},"Ȩ":{"ha":778,"x_min":0,"x_max":0,"o":"m 93 0 l 93 926 l 718 926 l 718 672 l 429 672 l 429 586 l 692 586 l 692 343 l 429 343 l 429 254 l 726 254 l 726 0 m 382 -372 l 229 -264 l 413 -60 l 574 -174 "},"ȩ":{"ha":851,"x_min":0,"x_max":0,"o":"m 353 272 b 376 178 351 242 358 197 b 424 160 383 169 399 160 b 471 178 444 160 460 168 b 492 215 481 186 488 201 l 800 215 b 735 104 785 167 763 135 b 438 -18 669 31 589 -18 b 131 89 339 -18 218 1 b 39 315 90 129 39 203 b 136 560 39 407 74 497 b 425 667 197 619 294 667 b 704 564 549 667 640 626 b 813 308 774 497 813 399 l 813 272 m 504 407 b 476 472 503 429 493 457 b 426 490 465 483 447 490 b 381 474 410 490 392 483 b 356 407 365 460 356 429 m 407 -347 l 268 -250 l 435 -62 l 582 -168 "},"ȷ":{"ha":449,"x_min":0,"x_max":0,"o":"m 67 -318 l 67 649 l 382 649 l 382 -318 "},"ə":{"ha":851,"x_min":0,"x_max":0,"o":"m 499 376 b 475 468 499 392 499 442 b 418 489 458 486 435 489 b 364 468 396 489 379 483 b 339 425 353 457 343 439 l 61 478 b 196 617 79 514 119 574 b 419 667 271 658 353 667 b 721 561 503 667 628 654 b 813 333 761 521 813 449 b 715 89 813 240 778 151 b 426 -18 654 29 557 -18 b 147 85 303 -18 211 22 b 39 340 78 151 39 250 l 39 376 m 347 242 b 375 176 349 219 358 192 b 425 158 386 165 404 158 b 471 175 442 158 460 165 b 496 242 486 189 496 219 "},"ʼ":{"ha":694,"x_min":0,"x_max":0,"o":"m 379 661 l 189 661 l 265 926 l 506 926 "},"ˆ":{"ha":694,"x_min":0,"x_max":0,"o":"m 347 817 l 210 717 l 107 826 l 353 1006 l 588 829 l 490 717 "},"ˇ":{"ha":694,"x_min":0,"x_max":0,"o":"m 490 1006 l 588 893 l 342 717 l 107 896 l 210 1006 l 347 906 "},"ˉ":{"ha":694,"x_min":0,"x_max":0,"o":"m 111 756 l 111 894 l 583 894 l 583 756 "},"˘":{"ha":694,"x_min":0,"x_max":0,"o":"m 601 965 b 535 819 596 892 561 844 b 347 751 481 765 411 751 b 160 819 283 751 214 765 b 93 965 133 844 99 892 l 240 965 b 274 908 244 940 258 921 b 347 888 290 896 314 888 b 421 908 382 888 406 897 b 454 965 436 921 450 940 "},"˙":{"ha":694,"x_min":0,"x_max":0,"o":"m 218 869 b 347 999 218 943 274 999 b 476 869 421 999 476 943 b 347 740 476 796 421 740 b 218 869 274 740 218 796 "},"˚":{"ha":694,"x_min":0,"x_max":0,"o":"m 538 896 b 485 789 538 851 515 813 b 347 751 439 754 372 751 b 210 789 322 751 256 754 b 157 896 179 813 157 851 b 210 1001 157 942 181 979 b 347 1039 256 1036 322 1039 b 485 1001 372 1039 439 1036 b 538 896 514 979 538 942 m 347 944 b 299 933 335 944 314 943 b 278 896 285 925 278 913 b 299 857 278 878 285 865 b 347 846 314 847 335 846 b 396 857 361 846 381 847 b 417 894 408 865 417 876 b 396 933 417 911 411 924 b 347 944 381 943 361 944 "},"˛":{"ha":694,"x_min":0,"x_max":0,"o":"m 472 0 b 426 -43 458 -11 436 -32 b 406 -93 414 -58 406 -71 b 419 -126 406 -104 407 -117 b 458 -137 426 -132 439 -137 b 533 -106 476 -137 504 -133 l 503 -226 b 385 -256 463 -250 415 -256 b 286 -224 372 -256 321 -254 b 253 -143 269 -208 253 -183 b 294 -51 253 -103 268 -78 b 358 0 311 -35 336 -15 l 472 0 "},"˜":{"ha":694,"x_min":0,"x_max":0,"o":"m 301 794 b 253 808 286 800 271 808 b 219 796 240 808 229 806 b 189 751 210 786 196 765 l 75 824 b 164 919 94 854 131 897 b 264 950 196 942 229 950 b 342 931 289 950 315 944 l 374 914 b 429 894 393 904 408 894 b 460 906 440 894 450 896 b 486 936 465 910 482 929 l 496 951 l 619 890 b 563 813 606 864 585 836 b 435 754 526 775 488 754 b 361 771 406 754 383 763 "},"˝":{"ha":694,"x_min":0,"x_max":0,"o":"m 172 1031 l 328 929 l 143 751 l 33 828 m 456 1031 l 610 929 l 426 751 l 317 828 "},"́":{"ha":3,"x_min":0,"x_max":0,"o":"m -340 1031 l -178 929 l -381 751 l -501 828 "},"Δ":{"ha":926,"x_min":0,"x_max":0,"o":"m 22 0 l 363 926 l 558 926 l 903 0 m 281 164 l 642 164 l 461 706 "},"∆":{"ha":926,"x_min":0,"x_max":0,"o":"m 903 0 l 558 926 l 363 926 l 22 0 m 461 706 l 642 164 l 281 164 "},"Ω":{"ha":926,"x_min":0,"x_max":0,"o":"m 513 144 b 649 272 574 175 621 222 b 699 481 678 326 699 415 b 607 731 699 576 665 675 b 463 786 568 768 521 786 b 318 731 404 786 357 768 b 226 481 260 675 226 576 b 276 272 226 411 246 326 b 413 144 304 222 351 175 l 413 0 l 39 0 l 39 163 l 226 163 b 97 282 178 188 133 224 b 39 503 54 351 39 426 b 167 831 39 668 108 774 b 463 949 247 910 357 949 b 758 831 568 949 678 910 b 886 501 832 758 886 646 b 828 282 886 426 871 351 b 699 163 792 224 747 188 l 886 163 l 886 0 l 513 0 "},"Ω":{"ha":926,"x_min":0,"x_max":0,"o":"m 513 0 l 886 0 l 886 163 l 699 163 b 828 282 747 188 792 224 b 886 501 871 351 886 426 b 758 831 886 646 832 758 b 463 949 678 910 568 949 b 167 831 357 949 247 910 b 39 503 108 774 39 668 b 97 282 39 426 54 351 b 226 163 133 224 178 188 l 39 163 l 39 0 l 413 0 l 413 144 b 276 272 351 175 304 222 b 226 481 246 326 226 411 b 318 731 226 576 260 675 b 463 786 357 768 404 786 b 607 731 521 786 568 768 b 699 481 665 675 699 576 b 649 272 699 415 678 326 b 513 144 621 222 574 175 "},"π":{"ha":1064,"x_min":0,"x_max":0,"o":"m 161 0 l 161 435 l 53 435 l 53 649 l 1011 649 l 1011 435 l 903 435 l 903 0 l 589 0 l 589 435 l 475 435 l 475 0 "},"Ё":{"ha":778,"x_min":0,"x_max":0,"o":"m 93 0 l 93 926 l 718 926 l 718 672 l 429 672 l 429 586 l 692 586 l 692 343 l 429 343 l 429 254 l 726 254 l 726 0 m 125 1126 b 250 1251 125 1196 179 1251 b 376 1126 321 1251 376 1196 b 250 1000 376 1056 321 1000 b 125 1126 179 1000 125 1056 m 440 1126 b 565 1251 440 1196 494 1251 b 692 1126 636 1251 692 1196 b 565 1000 692 1056 636 1000 b 440 1126 494 1000 440 1056 "},"Ђ":{"ha":1078,"x_min":0,"x_max":0,"o":"m 199 633 l 10 625 l 10 926 l 868 926 l 868 633 l 522 642 l 522 522 b 717 554 581 542 647 554 b 960 469 783 554 886 544 b 1036 267 992 438 1036 375 b 954 51 1036 165 999 93 b 721 -22 882 -17 778 -22 b 571 0 668 -22 621 -15 l 614 199 b 661 182 626 188 640 182 b 704 203 679 182 693 186 b 718 254 717 219 718 240 b 696 311 718 271 715 294 b 626 332 678 326 651 332 b 522 313 607 332 575 329 l 522 0 l 199 0 "},"Ѓ":{"ha":761,"x_min":0,"x_max":0,"o":"m 93 0 l 93 926 l 719 926 l 719 663 l 429 663 l 429 0 m 431 1285 l 593 1183 l 390 1006 l 269 1082 "},"Є":{"ha":917,"x_min":0,"x_max":0,"o":"m 838 44 b 546 -21 721 -12 625 -21 b 186 106 415 -21 292 1 b 50 464 79 211 50 343 b 176 811 50 567 69 701 b 536 947 242 878 354 947 b 838 878 603 947 714 938 l 847 571 b 753 646 821 599 788 626 b 600 688 708 672 660 688 b 474 660 556 688 507 678 b 397 569 453 649 417 622 l 699 569 l 699 367 l 397 367 b 471 268 410 317 439 286 b 596 239 506 247 554 239 b 740 268 640 239 697 249 b 847 344 775 285 818 315 "},"Ѕ":{"ha":858,"x_min":0,"x_max":0,"o":"m 686 631 b 497 700 646 658 572 700 b 433 683 479 700 451 697 b 417 650 421 674 417 664 b 471 601 417 631 419 613 l 578 578 b 736 499 660 560 708 526 b 807 315 794 442 807 371 b 724 97 807 236 786 163 b 397 -21 671 43 571 -21 b 82 51 256 -21 161 19 l 51 64 l 153 325 l 189 297 b 376 229 224 271 294 229 b 449 246 422 229 442 240 b 467 288 464 258 467 274 b 456 319 467 296 465 310 b 392 342 444 331 426 335 l 310 357 b 149 436 257 367 200 383 b 82 607 101 485 82 540 b 172 828 82 693 111 767 b 494 947 243 900 347 947 b 776 867 568 947 664 935 "},"І":{"ha":522,"x_min":0,"x_max":0,"o":"m 93 0 l 93 926 l 429 926 l 429 0 "},"Ї":{"ha":564,"x_min":0,"x_max":0,"o":"m 114 0 l 114 926 l 450 926 l 450 0 m 425 1253 b 543 1126 481 1253 543 1214 b 425 1000 543 1039 481 1000 b 307 1126 369 1000 307 1039 b 425 1253 307 1214 369 1253 m 139 1253 b 257 1126 194 1253 257 1214 b 139 1000 257 1039 194 1000 b 21 1126 83 1000 21 1039 b 139 1253 21 1214 83 1253 "},"Ј":{"ha":669,"x_min":0,"x_max":0,"o":"m 247 926 l 578 926 l 578 281 b 494 74 578 179 531 111 b 263 -21 433 10 349 -21 b 24 54 199 -21 110 -7 l -14 81 l 108 367 l 115 343 b 146 286 121 324 133 297 b 189 269 156 276 169 269 b 228 286 206 269 218 275 b 247 354 246 307 247 340 "},"Љ":{"ha":1515,"x_min":0,"x_max":0,"o":"m 679 635 l 485 635 l 485 356 b 397 71 485 297 479 158 b 147 -15 325 -6 222 -15 b 7 -4 124 -15 72 -14 l 7 257 b 63 251 28 251 42 251 b 154 279 93 251 128 254 b 193 419 192 315 193 379 l 193 926 l 997 926 l 997 583 l 1158 583 b 1397 496 1269 583 1351 543 b 1474 293 1442 451 1474 381 b 1390 82 1474 192 1435 122 b 1110 0 1340 38 1254 0 l 679 0 m 1061 222 b 1131 238 1085 222 1113 225 b 1160 301 1147 249 1160 268 b 1133 361 1160 336 1144 353 b 1068 376 1114 375 1089 376 l 997 376 l 997 222 "},"Њ":{"ha":1478,"x_min":0,"x_max":0,"o":"m 622 357 l 417 357 l 417 0 l 93 0 l 93 926 l 417 926 l 417 583 l 622 583 l 622 926 l 946 926 l 946 583 l 1121 583 b 1360 496 1232 583 1314 543 b 1436 293 1404 451 1436 381 b 1353 82 1436 192 1397 122 b 1072 0 1303 38 1217 0 l 622 0 m 1036 222 b 1103 242 1047 222 1082 224 b 1122 293 1119 257 1122 278 b 1099 343 1122 313 1118 329 b 1036 357 1081 356 1057 357 l 946 357 l 946 222 "},"Ћ":{"ha":1119,"x_min":0,"x_max":0,"o":"m 206 633 l 10 625 l 10 926 l 875 926 l 875 625 l 529 633 l 529 521 b 704 538 581 531 639 538 b 982 453 833 538 926 507 b 1050 250 1044 390 1050 318 l 1050 0 l 726 0 l 726 179 b 701 260 726 200 725 238 b 618 281 681 278 644 281 b 529 272 586 281 557 278 l 529 0 l 206 0 "},"Ќ":{"ha":1028,"x_min":0,"x_max":0,"o":"m 93 0 l 93 926 l 415 926 l 415 639 b 408 522 415 597 414 564 l 415 522 b 464 626 435 575 447 596 l 624 926 l 988 926 l 699 472 l 1018 0 l 629 0 l 460 297 b 415 386 443 325 428 358 l 408 386 b 415 299 414 354 415 329 l 415 0 m 569 1285 l 732 1183 l 529 1006 l 408 1082 "},"Ў":{"ha":975,"x_min":0,"x_max":0,"o":"m 361 926 l 469 668 b 494 588 481 643 489 618 l 504 588 b 526 674 508 617 517 649 l 621 926 l 968 926 l 542 0 l 192 0 l 328 279 l 7 926 m 788 1171 b 668 1049 765 1124 729 1079 b 493 1014 613 1021 556 1014 b 317 1049 440 1014 376 1018 b 199 1171 275 1069 229 1107 l 382 1244 b 417 1188 388 1224 400 1201 b 494 1167 433 1175 460 1167 b 569 1188 518 1167 547 1169 b 604 1244 586 1201 599 1224 "},"Џ":{"ha":1039,"x_min":0,"x_max":0,"o":"m 93 926 l 417 926 l 417 283 l 622 283 l 622 926 l 946 926 l 946 0 l 663 0 l 663 -207 l 376 -207 l 376 0 l 93 0 "},"А":{"ha":1024,"x_min":0,"x_max":0,"o":"m 381 115 l 356 0 l 0 0 l 321 926 l 693 926 l 1024 0 l 667 0 l 636 115 m 535 513 b 517 617 526 549 521 583 l 504 617 b 489 513 503 578 497 546 l 443 335 l 578 335 l 535 513 "},"Б":{"ha":925,"x_min":0,"x_max":0,"o":"m 93 926 l 803 926 l 803 663 l 404 663 l 404 561 l 529 561 b 797 478 607 561 719 551 b 874 286 833 443 874 383 b 781 74 874 181 829 114 b 511 0 693 3 571 0 l 93 0 m 468 222 b 533 238 483 222 513 224 b 560 292 547 247 560 264 b 533 347 560 318 547 338 b 468 361 518 358 488 361 l 404 361 l 404 222 "},"В":{"ha":940,"x_min":0,"x_max":0,"o":"m 93 926 l 497 926 b 774 849 576 926 700 918 b 844 667 796 828 844 772 b 806 540 844 624 836 578 b 725 483 788 518 758 496 l 724 475 b 821 419 761 465 792 447 b 889 263 868 375 889 324 b 789 60 889 172 847 101 b 544 0 713 6 618 0 l 93 0 m 404 571 l 457 571 b 521 592 476 571 506 576 b 539 640 529 600 539 615 b 518 689 539 667 526 682 b 457 704 500 703 469 704 l 404 704 m 404 224 l 472 224 b 543 239 492 224 521 225 b 575 301 560 250 575 271 b 550 357 575 325 565 344 b 476 376 528 375 494 376 l 404 376 "},"Г":{"ha":761,"x_min":0,"x_max":0,"o":"m 93 0 l 93 926 l 719 926 l 719 663 l 429 663 l 429 0 "},"Д":{"ha":1108,"x_min":0,"x_max":0,"o":"m 969 926 l 969 261 l 1081 261 l 1081 -185 l 797 -185 l 797 0 l 297 0 l 297 -185 l 14 -185 l 14 261 b 139 321 67 267 111 292 b 199 563 196 382 199 481 l 199 926 m 483 535 b 450 326 483 457 483 392 b 399 261 436 300 421 281 l 656 261 l 656 660 l 483 660 "},"Е":{"ha":778,"x_min":0,"x_max":0,"o":"m 93 0 l 93 926 l 718 926 l 718 672 l 429 672 l 429 586 l 692 586 l 692 343 l 429 343 l 429 254 l 726 254 l 726 0 "},"Ж":{"ha":1456,"x_min":0,"x_max":0,"o":"m 569 299 b 576 386 569 329 571 354 l 569 386 b 528 297 551 343 542 325 l 379 0 l 3 0 l 303 472 l 18 926 l 379 926 l 524 626 b 569 522 529 614 538 597 l 576 522 b 569 639 571 564 569 597 l 569 926 l 886 926 l 886 639 b 879 522 886 597 885 564 l 886 522 b 932 626 918 594 926 617 l 1074 926 l 1435 926 l 1153 472 l 1453 0 l 1076 0 l 928 297 b 886 386 914 325 904 343 l 879 386 b 886 299 885 354 886 329 l 886 0 l 569 0 "},"З":{"ha":900,"x_min":0,"x_max":0,"o":"m 76 846 b 244 918 113 865 171 896 b 443 947 310 939 368 947 b 703 886 593 947 671 907 b 815 674 765 846 815 781 b 776 546 815 610 794 569 b 690 482 757 521 726 496 l 690 478 b 799 411 736 464 774 439 b 849 272 832 375 849 331 b 713 38 849 182 807 93 b 433 -21 650 1 563 -21 b 203 10 354 -21 279 -14 b 42 79 128 32 65 65 l 154 329 b 258 258 183 303 221 275 b 382 232 301 239 343 232 b 463 247 410 232 443 238 b 494 296 483 257 494 272 b 464 342 494 317 486 332 b 383 351 444 350 403 351 l 261 351 l 261 583 l 372 583 b 447 590 422 583 440 588 b 485 636 467 596 485 608 b 450 685 485 667 463 679 b 379 697 424 696 393 697 b 267 672 342 697 300 688 b 178 613 238 660 204 636 "},"И":{"ha":1067,"x_min":0,"x_max":0,"o":"m 413 926 l 413 597 b 396 426 413 549 404 475 l 408 426 b 469 565 424 467 449 529 l 672 926 l 974 926 l 974 0 l 654 0 l 654 315 b 671 486 654 367 663 440 l 658 486 b 597 347 644 446 617 381 l 394 0 l 93 0 l 93 926 "},"Й":{"ha":1067,"x_min":0,"x_max":0,"o":"m 413 926 l 413 597 b 396 426 413 549 404 475 l 408 426 b 469 565 424 467 449 529 l 672 926 l 974 926 l 974 0 l 654 0 l 654 315 b 671 486 654 367 663 440 l 658 486 b 597 347 644 446 617 381 l 394 0 l 93 0 l 93 926 m 826 1171 b 707 1049 804 1124 768 1079 b 532 1014 651 1021 594 1014 b 356 1049 479 1014 415 1018 b 238 1171 314 1069 268 1107 l 421 1244 b 456 1188 426 1224 439 1201 b 533 1167 472 1175 499 1167 b 608 1188 557 1167 586 1169 b 643 1244 625 1201 638 1224 "},"К":{"ha":1028,"x_min":0,"x_max":0,"o":"m 93 0 l 93 926 l 415 926 l 415 639 b 408 522 415 597 414 564 l 415 522 b 464 626 435 575 447 596 l 624 926 l 988 926 l 699 472 l 1018 0 l 629 0 l 460 297 b 415 386 443 325 428 358 l 408 386 b 415 299 414 354 415 329 l 415 0 "},"Л":{"ha":1096,"x_min":0,"x_max":0,"o":"m 1003 926 l 1003 0 l 679 0 l 679 635 l 485 635 l 485 356 b 396 71 485 296 481 160 b 147 -15 322 -6 221 -15 b 7 -4 99 -15 49 -11 l 7 257 b 63 251 28 251 42 251 b 154 279 93 251 128 254 b 193 419 192 315 193 379 l 193 926 "},"М":{"ha":1365,"x_min":0,"x_max":0,"o":"m 56 0 l 206 926 l 551 926 l 660 547 b 681 440 674 499 679 453 l 689 440 b 707 547 690 481 696 508 l 815 926 l 1158 926 l 1310 0 l 986 0 l 944 415 b 939 507 942 447 939 468 l 933 507 b 915 429 929 483 921 447 l 778 0 l 581 0 l 457 406 b 439 507 447 439 440 468 l 429 507 b 428 435 429 489 429 453 l 382 0 "},"Н":{"ha":1039,"x_min":0,"x_max":0,"o":"m 93 0 l 93 926 l 417 926 l 417 613 l 622 613 l 622 926 l 946 926 l 946 0 l 622 0 l 622 322 l 417 322 l 417 0 "},"О":{"ha":1131,"x_min":0,"x_max":0,"o":"m 1079 464 b 950 128 1079 315 1022 201 b 565 -21 871 47 742 -21 b 181 128 389 -21 260 47 b 51 464 108 201 51 315 b 181 799 51 611 108 725 b 565 947 260 879 389 947 b 950 799 742 947 871 879 b 1079 464 1022 725 1079 611 m 565 649 b 444 601 506 649 467 625 b 392 463 411 567 392 513 b 444 325 392 410 411 358 b 565 278 472 297 514 278 b 686 325 617 278 658 297 b 739 463 717 356 739 404 b 686 601 739 521 719 569 b 565 649 661 626 621 649 "},"П":{"ha":1039,"x_min":0,"x_max":0,"o":"m 93 0 l 93 926 l 946 926 l 946 0 l 622 0 l 622 635 l 417 635 l 417 0 "},"Р":{"ha":926,"x_min":0,"x_max":0,"o":"m 93 0 l 93 926 l 538 926 b 808 836 633 926 728 914 b 903 590 851 794 903 719 b 811 357 903 467 853 394 b 583 279 771 319 699 279 l 421 279 l 421 0 m 421 513 l 478 513 b 553 538 494 513 529 514 b 575 594 565 549 575 567 b 550 651 575 624 563 642 b 482 672 535 664 507 672 l 421 672 "},"С":{"ha":821,"x_min":0,"x_max":0,"o":"m 761 17 b 528 -21 674 -17 571 -21 b 186 114 407 -21 278 22 b 51 456 99 200 51 325 b 190 807 51 599 106 721 b 540 947 256 872 367 947 b 761 911 610 947 688 936 l 771 558 b 575 650 732 597 660 650 b 440 593 522 650 474 629 b 392 461 408 558 392 510 b 446 328 392 411 410 363 b 583 275 474 301 517 275 b 771 363 678 275 743 332 "},"Т":{"ha":728,"x_min":0,"x_max":0,"o":"m 199 0 l 199 633 l 10 625 l 10 926 l 718 926 l 718 625 l 529 633 l 529 0 "},"У":{"ha":975,"x_min":0,"x_max":0,"o":"m 361 926 l 469 668 b 494 588 481 643 489 618 l 504 588 b 526 674 508 617 517 649 l 621 926 l 968 926 l 542 0 l 192 0 l 328 279 l 7 926 "},"Ф":{"ha":1313,"x_min":0,"x_max":0,"o":"m 494 135 b 147 250 396 135 242 153 b 51 519 100 299 51 382 b 149 782 51 597 67 700 b 494 900 242 875 393 900 l 494 1033 l 818 1033 l 818 900 b 1164 782 929 899 1071 876 b 1261 521 1246 699 1261 599 b 1165 250 1261 443 1247 336 b 818 135 1099 179 990 135 l 818 0 l 494 0 m 789 386 l 794 386 b 915 421 832 386 886 393 b 950 518 935 439 950 468 b 914 617 950 540 947 588 b 789 647 882 646 829 647 m 524 647 b 399 617 483 647 431 646 b 363 518 365 588 363 540 b 397 421 363 468 378 439 b 518 386 426 393 481 386 l 524 386 l 524 647 "},"Х":{"ha":1031,"x_min":0,"x_max":0,"o":"m 32 926 l 413 926 l 489 781 b 510 718 497 764 506 735 l 517 718 b 539 781 522 742 529 761 l 610 926 l 990 926 l 700 493 l 1031 0 l 647 0 l 535 210 b 522 254 529 219 524 247 l 513 254 b 493 203 508 239 500 215 l 383 0 l 0 0 l 324 493 "},"Ц":{"ha":1113,"x_min":0,"x_max":0,"o":"m 93 926 l 417 926 l 417 283 l 622 283 l 622 926 l 946 926 l 946 283 l 1078 283 l 1078 -185 l 792 -185 l 792 0 l 93 0 "},"Ч":{"ha":1007,"x_min":0,"x_max":0,"o":"m 590 324 b 410 307 525 311 471 307 b 133 389 319 307 203 317 b 69 594 75 449 69 521 l 69 926 l 393 926 l 393 676 b 417 597 393 650 394 618 b 492 575 438 578 471 575 b 590 583 525 575 561 578 l 590 926 l 914 926 l 914 0 l 590 0 "},"Ш":{"ha":1478,"x_min":0,"x_max":0,"o":"m 93 926 l 413 926 l 413 283 l 579 283 l 579 926 l 899 926 l 899 283 l 1065 283 l 1065 926 l 1385 926 l 1385 0 l 93 0 "},"Щ":{"ha":1551,"x_min":0,"x_max":0,"o":"m 93 0 l 93 926 l 413 926 l 413 283 l 579 283 l 579 926 l 899 926 l 899 283 l 1065 283 l 1065 926 l 1385 926 l 1385 283 l 1517 283 l 1517 -185 l 1231 -185 l 1231 0 "},"Ъ":{"ha":1036,"x_min":0,"x_max":0,"o":"m 194 635 l 28 635 l 28 926 l 518 926 l 518 583 l 679 583 b 918 496 790 583 872 543 b 994 293 963 451 994 381 b 911 82 994 192 956 122 b 631 0 861 38 775 0 l 194 0 m 582 222 b 651 238 611 222 635 226 b 681 301 668 249 681 268 b 654 361 681 336 665 353 b 589 376 635 375 610 376 l 518 376 l 518 222 "},"Ы":{"ha":1369,"x_min":0,"x_max":0,"o":"m 93 926 l 417 926 l 417 583 l 572 583 b 811 496 683 583 765 543 b 888 293 856 451 888 381 b 804 82 888 192 849 122 b 524 0 754 38 668 0 l 93 0 m 481 222 b 550 238 510 222 533 226 b 579 301 567 249 579 268 b 553 361 579 336 564 353 b 488 376 533 375 508 376 l 417 376 l 417 222 m 953 0 l 953 926 l 1276 926 l 1276 0 "},"Ь":{"ha":935,"x_min":0,"x_max":0,"o":"m 93 926 l 417 926 l 417 583 l 578 583 b 817 496 689 583 771 543 b 893 293 861 451 893 381 b 810 82 893 192 854 122 b 529 0 760 38 674 0 l 93 0 m 481 222 b 550 238 510 222 533 226 b 579 301 567 249 579 268 b 553 361 579 336 564 353 b 488 376 533 375 508 376 l 417 376 l 417 222 "},"Э":{"ha":917,"x_min":0,"x_max":0,"o":"m 69 344 b 176 268 99 315 142 285 b 313 239 214 250 267 239 b 446 268 351 239 407 246 b 519 367 475 285 506 315 l 218 367 l 218 569 l 519 569 b 443 660 500 622 464 649 b 315 688 393 688 325 688 b 164 646 254 688 208 672 b 69 571 149 638 110 613 l 79 878 b 381 947 179 925 283 947 b 740 811 563 947 675 878 b 867 467 847 701 867 567 b 731 106 867 344 838 210 b 369 -21 619 -3 486 -21 b 79 44 276 -21 186 -7 "},"Ю":{"ha":1563,"x_min":0,"x_max":0,"o":"m 528 613 b 679 847 556 725 618 800 b 996 947 757 907 867 947 b 1385 799 1172 947 1304 882 b 1511 464 1475 706 1511 592 b 1385 122 1511 293 1446 186 b 997 -21 1267 -1 1118 -21 b 682 71 892 -21 781 -6 b 526 322 618 119 553 203 l 417 322 l 417 0 l 93 0 l 93 926 l 417 926 l 417 613 m 1000 649 b 881 601 942 649 903 625 b 829 463 851 571 829 524 b 881 325 829 389 858 347 b 1000 278 908 297 950 278 b 1119 325 1049 278 1093 297 b 1171 463 1154 360 1171 415 b 1119 601 1171 519 1150 571 b 1000 649 1089 632 1044 649 "},"Я":{"ha":967,"x_min":0,"x_max":0,"o":"m 233 276 b 285 335 247 299 263 317 l 285 342 b 146 411 219 350 174 382 b 82 599 94 465 82 531 b 167 828 82 667 96 757 b 469 926 254 915 379 926 l 874 926 l 874 0 l 550 0 l 550 268 l 544 268 l 425 0 l 56 0 m 550 672 l 503 672 b 424 647 485 672 449 671 b 401 590 414 638 401 619 b 431 529 401 560 414 542 b 503 510 450 515 482 510 l 550 510 "},"а":{"ha":888,"x_min":0,"x_max":0,"o":"m 519 575 b 508 631 510 600 508 619 l 508 649 l 821 649 l 821 0 l 510 0 l 511 22 b 524 82 513 40 518 65 l 514 82 b 319 -18 440 -10 360 -18 b 136 58 254 -18 192 1 b 39 321 81 115 39 203 b 140 589 39 436 79 528 b 332 667 189 638 250 667 b 513 571 372 667 447 658 m 353 325 b 381 257 353 293 365 272 b 435 235 396 242 414 235 b 489 256 454 235 472 240 b 519 328 507 274 519 299 b 492 396 519 358 507 382 b 438 417 478 408 460 417 b 381 394 417 417 396 410 b 353 325 365 379 353 356 "},"б":{"ha":888,"x_min":0,"x_max":0,"o":"m 278 525 b 365 614 294 557 322 590 b 521 647 418 643 474 647 b 760 558 603 647 689 626 b 849 336 824 497 849 419 b 753 89 849 218 801 139 b 458 -18 663 -3 551 -18 b 164 89 357 -18 251 -1 b 47 429 104 151 47 261 b 179 815 47 574 88 726 b 340 908 208 843 257 879 b 518 953 410 932 454 936 b 583 983 542 958 567 967 b 606 1028 600 1000 604 1018 l 833 1028 b 744 853 819 944 779 888 b 578 761 701 811 639 779 l 492 736 b 332 660 443 722 374 701 b 274 525 299 626 278 575 m 453 417 b 392 393 429 417 408 410 b 364 324 372 374 364 347 b 392 256 364 300 374 274 b 453 232 408 239 429 232 b 514 256 476 232 497 239 b 542 324 529 271 542 297 b 514 393 542 346 532 375 b 453 417 497 410 476 417 "},"в":{"ha":824,"x_min":0,"x_max":0,"o":"m 547 649 b 700 608 599 649 658 639 b 758 486 742 578 758 535 b 717 378 758 446 749 408 b 643 336 706 367 681 347 b 750 288 678 332 722 315 b 790 179 771 267 790 232 b 746 58 790 124 771 83 b 565 0 717 28 661 0 l 67 0 l 67 649 m 411 385 b 461 400 438 385 453 393 b 478 444 475 413 478 431 b 463 485 478 456 476 472 b 410 499 447 499 424 499 l 368 499 l 368 385 m 418 150 b 482 206 451 150 482 167 b 465 250 482 221 476 240 b 417 264 451 263 431 264 l 368 264 l 368 150 "},"г":{"ha":629,"x_min":0,"x_max":0,"o":"m 67 649 l 601 649 l 601 404 l 382 404 l 382 0 l 67 0 "},"д":{"ha":946,"x_min":0,"x_max":0,"o":"m 833 649 l 833 208 l 926 208 l 926 -182 l 688 -182 l 688 0 l 253 0 l 253 -182 l 14 -182 l 14 208 l 21 208 b 111 243 54 208 90 224 b 164 429 165 292 164 376 l 164 649 m 532 440 l 432 440 l 432 381 b 410 264 432 343 431 303 b 360 208 397 239 381 222 l 532 208 "},"е":{"ha":851,"x_min":0,"x_max":0,"o":"m 353 272 b 376 178 351 242 358 197 b 424 160 383 169 399 160 b 471 178 444 160 460 168 b 492 215 481 186 488 201 l 800 215 b 735 104 785 167 763 135 b 438 -18 669 31 589 -18 b 131 89 339 -18 218 1 b 39 315 90 129 39 203 b 136 560 39 407 74 497 b 425 667 197 619 294 667 b 704 564 549 667 640 626 b 813 308 774 497 813 399 l 813 272 m 504 407 b 476 472 503 429 493 457 b 426 490 465 483 447 490 b 381 474 410 490 392 483 b 356 407 365 460 356 429 "},"ж":{"ha":1264,"x_min":0,"x_max":0,"o":"m 482 257 l 478 257 l 346 0 l 3 0 l 228 331 l 21 649 l 360 649 l 478 382 l 482 382 l 482 649 l 782 649 l 782 382 l 786 382 l 904 649 l 1243 649 l 1036 331 l 1261 0 l 918 0 l 786 257 l 782 257 l 782 0 l 482 0 "},"з":{"ha":731,"x_min":0,"x_max":0,"o":"m 51 594 b 178 643 94 617 133 631 b 347 667 239 660 283 667 b 564 625 453 667 519 649 b 664 467 649 579 664 511 b 625 368 664 425 649 393 b 575 336 610 353 593 343 l 575 331 b 653 288 608 322 635 306 b 692 188 671 268 692 236 b 588 22 692 128 661 61 b 361 -18 550 3 488 -18 b 156 8 288 -18 222 -11 b 28 61 113 21 67 40 l 111 256 b 207 200 142 232 175 213 b 308 181 243 186 274 181 b 378 190 351 181 369 186 b 403 226 401 201 403 217 b 375 257 403 238 396 250 b 307 263 358 263 319 263 l 218 263 l 218 401 l 299 401 b 361 407 317 401 346 403 b 392 439 372 410 392 417 b 365 474 392 449 388 464 b 308 482 350 479 328 482 b 206 460 271 482 239 475 b 122 411 165 442 133 419 "},"и":{"ha":907,"x_min":0,"x_max":0,"o":"m 372 649 l 372 432 b 358 322 372 401 365 356 l 367 321 b 396 385 372 335 386 368 l 542 649 l 840 649 l 840 0 l 535 0 l 535 221 b 549 331 535 251 542 297 l 540 332 b 511 268 535 317 521 286 l 365 0 l 67 0 l 67 649 "},"й":{"ha":907,"x_min":0,"x_max":0,"o":"m 372 649 l 372 432 b 358 322 372 401 365 356 l 367 321 b 396 385 372 335 386 368 l 542 649 l 840 649 l 840 0 l 535 0 l 535 221 b 549 331 535 251 542 297 l 540 332 b 511 268 535 317 521 286 l 365 0 l 67 0 l 67 649 m 735 882 b 628 757 708 810 661 774 b 457 725 596 740 546 725 b 286 757 368 725 318 740 b 179 882 253 774 206 810 l 364 946 b 394 885 368 922 379 897 b 457 867 414 868 443 867 b 519 885 471 867 500 868 b 550 946 535 897 546 922 "},"к":{"ha":900,"x_min":0,"x_max":0,"o":"m 67 649 l 382 649 l 382 385 l 385 385 l 522 649 l 876 649 l 660 336 l 897 0 l 535 0 l 385 257 l 382 257 l 382 0 l 67 0 "},"л":{"ha":908,"x_min":0,"x_max":0,"o":"m 842 0 l 526 0 l 526 418 l 414 418 l 414 282 b 342 56 414 219 407 121 b 121 -15 279 -7 189 -15 b 6 -4 76 -15 43 -12 l 6 221 b 108 243 38 215 81 217 b 138 339 135 269 138 311 l 138 649 l 842 649 "},"м":{"ha":1161,"x_min":0,"x_max":0,"o":"m 150 649 l 478 649 l 567 369 b 582 296 575 344 579 319 l 588 296 b 600 371 589 317 593 349 l 683 649 l 1011 649 l 1133 0 l 836 0 l 800 238 b 789 325 796 267 792 282 l 783 325 b 765 243 781 304 772 265 l 685 0 l 482 0 l 400 243 b 382 325 393 264 385 306 l 376 325 b 365 238 374 289 371 267 l 325 0 l 28 0 "},"н":{"ha":878,"x_min":0,"x_max":0,"o":"m 67 649 l 382 649 l 382 442 l 496 442 l 496 649 l 811 649 l 811 0 l 496 0 l 496 222 l 382 222 l 382 0 l 67 0 "},"о":{"ha":869,"x_min":0,"x_max":0,"o":"m 831 325 b 738 92 831 232 792 147 b 435 -18 685 38 590 -18 b 132 92 279 -18 185 38 b 39 325 78 147 39 232 b 132 557 39 404 69 493 b 435 667 185 611 279 667 b 738 557 590 667 685 611 b 831 325 800 493 831 404 m 435 417 b 374 394 403 417 383 404 b 346 325 358 381 346 358 b 374 254 346 290 358 268 b 435 232 383 244 403 232 b 496 254 467 232 486 244 b 524 325 511 268 524 290 b 496 394 524 358 511 381 b 435 417 486 404 467 417 "},"п":{"ha":875,"x_min":0,"x_max":0,"o":"m 67 649 l 808 649 l 808 0 l 493 0 l 493 404 l 382 404 l 382 0 l 67 0 "},"р":{"ha":885,"x_min":0,"x_max":0,"o":"m 67 -318 l 67 649 l 368 649 l 368 613 b 360 556 368 593 365 571 l 358 551 l 368 549 b 435 625 386 579 411 607 b 567 667 464 646 507 667 b 751 593 642 667 707 638 b 846 328 815 529 846 425 b 744 60 846 192 789 107 b 572 -18 694 7 640 -18 b 444 19 531 -18 486 -8 b 378 89 421 36 396 58 l 368 89 b 383 -37 381 39 383 6 l 383 -318 m 368 321 b 396 243 368 288 378 261 b 450 222 411 226 429 222 b 506 243 472 222 490 229 b 538 321 526 263 538 292 b 507 397 538 351 525 379 b 449 421 496 408 476 421 b 397 401 428 421 410 413 b 368 321 376 382 368 346 "},"с":{"ha":617,"x_min":0,"x_max":0,"o":"m 565 15 b 406 -18 529 -3 481 -18 b 132 78 263 -18 178 33 b 39 315 81 128 39 207 b 139 574 39 425 81 515 b 390 667 214 649 306 667 b 574 633 444 667 507 658 l 574 369 b 456 421 521 417 478 421 b 386 396 432 421 407 417 b 360 328 369 378 360 351 b 386 260 360 300 369 276 b 453 232 403 243 425 232 b 578 283 497 232 544 253 "},"т":{"ha":635,"x_min":0,"x_max":0,"o":"m 160 404 l 14 399 l 14 649 l 621 649 l 621 399 l 475 404 l 475 0 l 160 0 "},"у":{"ha":835,"x_min":0,"x_max":0,"o":"m -14 649 l 326 649 l 404 382 b 418 297 413 353 417 328 l 426 297 b 440 386 428 328 433 361 l 515 649 l 849 649 l 408 -318 l 74 -318 l 265 65 "},"ф":{"ha":1128,"x_min":0,"x_max":0,"o":"m 414 -10 b 126 94 343 -8 213 6 b 39 324 86 136 39 210 b 126 557 39 424 74 504 b 414 658 210 642 343 657 l 414 940 l 714 940 l 714 658 b 1001 557 785 657 918 642 b 1089 326 1043 514 1089 439 b 1001 94 1089 208 1040 135 b 714 -10 915 6 785 -8 l 714 -318 l 414 -318 m 439 438 b 344 407 418 438 374 436 b 314 325 329 392 314 365 b 354 232 314 268 340 242 b 439 211 379 214 413 211 l 443 211 l 443 438 m 685 211 l 689 211 b 774 232 715 211 749 214 b 814 325 788 242 814 268 b 783 407 814 365 799 392 b 689 438 754 436 710 438 l 685 438 "},"х":{"ha":897,"x_min":0,"x_max":0,"o":"m 24 649 l 388 649 l 435 557 b 449 515 442 544 446 532 l 457 515 b 472 557 461 533 467 544 l 519 649 l 882 649 l 636 338 l 900 0 l 528 0 l 469 106 b 456 143 463 117 458 128 l 449 143 b 436 106 446 129 442 117 l 379 0 l -3 0 l 271 338 "},"ц":{"ha":932,"x_min":0,"x_max":0,"o":"m 67 649 l 382 649 l 382 231 l 493 231 l 493 649 l 808 649 l 808 231 l 904 231 l 904 -182 l 658 -182 l 658 0 l 67 0 "},"ч":{"ha":856,"x_min":0,"x_max":0,"o":"m 474 196 b 333 182 426 186 385 182 b 103 249 269 182 163 188 b 47 413 50 301 47 378 l 47 649 l 363 649 l 363 475 b 379 419 363 469 363 436 b 429 404 386 413 400 404 b 474 413 447 404 460 407 l 474 649 l 789 649 l 789 0 l 474 0 "},"ш":{"ha":1236,"x_min":0,"x_max":0,"o":"m 1169 649 l 1169 0 l 67 0 l 67 649 l 361 649 l 361 231 l 471 231 l 471 649 l 765 649 l 765 231 l 875 231 l 875 649 "},"щ":{"ha":1307,"x_min":0,"x_max":0,"o":"m 67 0 l 67 649 l 361 649 l 361 231 l 471 231 l 471 649 l 765 649 l 765 231 l 875 231 l 875 649 l 1169 649 l 1169 231 l 1279 231 l 1279 -182 l 1033 -182 l 1033 0 "},"ъ":{"ha":932,"x_min":0,"x_max":0,"o":"m 631 438 b 839 375 689 438 778 433 b 897 222 869 346 897 299 b 842 65 897 144 871 94 b 646 0 782 6 693 0 l 165 0 l 165 404 l 28 404 l 28 649 l 481 649 l 481 438 m 517 153 b 576 171 535 153 560 156 b 594 221 585 179 594 194 b 579 264 594 243 586 257 b 521 282 563 281 535 282 l 481 282 l 481 153 "},"ы":{"ha":1206,"x_min":0,"x_max":0,"o":"m 824 649 l 1139 649 l 1139 0 l 824 0 m 515 438 b 724 375 574 438 663 433 b 782 218 753 347 782 299 b 726 65 782 144 757 96 b 531 0 667 6 578 0 l 67 0 l 67 649 l 382 649 l 382 438 m 418 153 b 478 171 436 153 461 156 b 496 221 486 179 496 194 b 481 264 496 243 488 257 b 422 282 464 281 436 282 l 382 282 l 382 153 "},"ь":{"ha":833,"x_min":0,"x_max":0,"o":"m 532 438 b 740 375 590 438 679 433 b 799 222 771 346 799 299 b 743 65 799 144 772 94 b 547 0 683 6 594 0 l 67 0 l 67 649 l 382 649 l 382 438 m 418 153 b 478 171 436 153 461 156 b 496 221 486 179 496 194 b 481 264 496 243 488 257 b 422 282 464 281 436 282 l 382 282 l 382 153 "},"э":{"ha":732,"x_min":0,"x_max":0,"o":"m 69 246 b 149 194 92 225 121 206 b 249 176 178 182 213 176 b 336 192 272 176 311 181 b 390 249 371 207 385 233 l 160 249 l 160 401 l 390 401 b 340 454 376 429 357 446 b 250 472 317 467 283 472 b 144 446 208 472 178 463 b 69 396 115 432 90 414 l 79 618 b 310 667 171 657 249 667 b 597 569 415 667 526 636 b 693 326 656 514 693 426 b 593 75 693 218 651 131 b 303 -18 504 -8 381 -18 b 79 24 235 -18 164 -11 "},"ю":{"ha":1265,"x_min":0,"x_max":0,"o":"m 481 435 b 601 596 510 518 561 568 b 843 667 674 647 765 667 b 1133 560 950 667 1061 632 b 1226 325 1189 506 1226 422 b 1133 92 1226 233 1192 150 b 825 -18 1042 -3 918 -18 b 581 51 751 -18 656 -7 b 472 229 531 90 489 151 l 378 229 l 378 0 l 67 0 l 67 649 l 378 649 l 378 435 m 831 417 b 769 394 799 417 779 404 b 742 325 754 381 742 358 b 769 254 742 290 754 268 b 831 232 779 244 799 232 b 892 254 863 232 882 244 b 919 325 907 268 919 290 b 892 394 919 358 907 381 b 831 417 882 404 863 417 "},"я":{"ha":846,"x_min":0,"x_max":0,"o":"m 190 213 b 86 279 139 224 106 253 b 47 413 56 321 47 368 b 113 585 47 464 57 532 b 307 649 172 642 247 649 l 779 649 l 779 0 l 464 0 l 464 192 l 456 192 l 349 0 l 39 0 m 464 479 l 424 479 b 368 465 407 479 383 478 b 347 414 350 451 347 429 b 368 363 347 399 350 376 b 424 347 381 353 404 347 l 464 347 "},"ё":{"ha":851,"x_min":0,"x_max":0,"o":"m 353 272 b 376 178 351 242 358 197 b 424 160 383 169 399 160 b 471 178 444 160 460 168 b 492 215 481 186 488 201 l 800 215 b 735 104 785 167 763 135 b 438 -18 669 31 589 -18 b 131 89 339 -18 218 1 b 39 315 90 129 39 203 b 136 560 39 407 74 497 b 425 667 197 619 294 667 b 704 564 549 667 640 626 b 813 308 774 497 813 399 l 813 272 m 504 407 b 476 472 503 429 493 457 b 426 490 465 483 447 490 b 381 474 410 490 392 483 b 356 407 365 460 356 429 m 138 864 b 263 990 138 935 192 990 b 389 864 333 990 389 935 b 263 738 389 793 333 738 b 138 864 192 738 138 793 m 439 864 b 564 990 439 935 493 990 b 690 864 635 990 690 935 b 564 738 690 793 635 738 b 439 864 493 738 439 793 "},"ђ":{"ha":882,"x_min":0,"x_max":0,"o":"m 81 0 l 81 692 l -42 692 l -42 858 l 81 858 l 81 1013 l 396 1013 l 396 858 l 603 858 l 603 692 l 396 692 l 396 593 b 386 490 396 561 394 532 l 390 488 b 475 572 414 518 449 554 b 603 611 513 597 558 611 b 746 556 654 611 711 589 b 815 360 786 517 815 449 l 815 -11 b 740 -253 815 -99 810 -186 b 522 -319 676 -312 585 -319 b 385 -306 468 -319 424 -314 l 385 -62 b 442 -83 400 -76 417 -83 b 493 -65 465 -83 482 -76 b 510 -4 510 -49 510 -25 l 510 296 b 493 343 510 311 508 328 b 458 357 483 353 472 357 b 413 339 440 357 426 353 b 396 292 399 325 396 310 l 396 0 "},"ѓ":{"ha":629,"x_min":0,"x_max":0,"o":"m 67 649 l 601 649 l 601 404 l 382 404 l 382 0 l 67 0 m 383 1031 l 546 929 l 343 751 l 222 828 "},"є":{"ha":718,"x_min":0,"x_max":0,"o":"m 653 24 b 429 -18 568 -11 497 -18 b 139 75 351 -18 228 -8 b 39 326 81 131 39 218 b 135 569 39 426 76 514 b 422 667 206 636 317 667 b 653 618 483 667 561 657 l 663 396 b 588 446 642 414 617 432 b 482 472 554 463 524 472 b 392 454 449 472 415 467 b 342 401 375 446 356 429 l 572 401 l 572 249 l 342 249 b 396 192 347 233 361 207 b 483 176 421 181 460 176 b 583 194 519 176 554 182 b 663 246 611 206 640 225 "},"ѕ":{"ha":676,"x_min":0,"x_max":0,"o":"m 554 429 b 489 467 532 446 514 456 b 408 486 464 478 439 486 b 374 476 397 486 383 483 b 361 451 367 471 361 461 b 371 431 361 440 367 435 b 408 419 379 424 392 424 l 472 406 b 600 344 515 396 564 382 b 646 224 621 322 646 283 b 581 67 646 158 621 106 b 335 -18 506 -7 408 -18 b 78 35 215 -18 132 13 l 32 54 l 113 251 l 157 224 b 286 179 199 197 249 179 b 329 190 299 179 317 182 b 342 215 339 197 342 204 b 329 242 342 228 338 235 b 285 256 321 247 308 251 l 239 263 b 124 317 206 268 161 279 b 74 440 86 353 74 394 b 165 607 74 514 106 567 b 386 667 239 658 319 667 b 631 611 457 667 539 654 "},"і":{"ha":449,"x_min":0,"x_max":0,"o":"m 67 0 l 67 649 l 382 649 l 382 0 m 399 851 b 358 749 399 811 382 774 b 224 699 329 718 278 699 b 89 749 169 699 118 718 b 49 851 65 774 49 811 b 89 954 49 892 65 929 b 224 1004 118 985 169 1004 b 358 954 278 1004 329 985 b 399 851 382 929 399 892 "},"ї":{"ha":544,"x_min":0,"x_max":0,"o":"m 114 0 l 114 649 l 429 649 l 429 0 m 410 1004 b 528 878 465 1004 528 965 b 410 751 528 790 465 751 b 292 878 354 751 292 790 b 410 1004 292 965 354 1004 m 135 1004 b 253 878 190 1004 253 965 b 135 751 253 790 190 751 b 17 878 79 751 17 790 b 135 1004 17 965 79 1004 "},"ј":{"ha":449,"x_min":0,"x_max":0,"o":"m 67 -318 l 67 649 l 382 649 l 382 -318 m 399 851 b 358 749 399 811 382 774 b 224 699 329 718 278 699 b 89 749 169 699 118 718 b 49 851 65 774 49 811 b 89 954 49 892 65 929 b 224 1004 118 985 169 1004 b 358 954 278 1004 329 985 b 399 851 382 929 399 892 "},"љ":{"ha":1293,"x_min":0,"x_max":0,"o":"m 992 438 b 1200 375 1050 438 1139 433 b 1258 222 1231 346 1258 299 b 1203 65 1258 144 1232 94 b 1007 0 1143 6 1054 0 l 540 0 l 540 418 l 422 418 l 422 282 b 350 56 422 219 415 121 b 129 -15 288 -7 197 -15 b 14 -4 85 -15 51 -12 l 14 221 b 117 243 46 215 89 217 b 146 339 143 269 146 311 l 146 649 l 842 649 l 842 438 m 878 153 b 938 171 896 153 921 156 b 956 221 946 179 956 194 b 940 264 956 243 947 257 b 882 282 924 281 896 282 l 842 282 l 842 153 "},"њ":{"ha":1263,"x_min":0,"x_max":0,"o":"m 961 438 b 1169 375 1019 438 1108 433 b 1228 222 1200 346 1228 299 b 1172 65 1228 144 1201 94 b 976 0 1113 6 1024 0 l 496 0 l 496 276 l 382 276 l 382 0 l 67 0 l 67 649 l 382 649 l 382 438 l 496 438 l 496 649 l 811 649 l 811 438 m 847 153 b 907 171 858 153 889 153 b 925 215 918 181 925 199 b 910 258 925 231 921 247 b 851 276 901 267 885 276 l 811 276 l 811 153 "},"ћ":{"ha":882,"x_min":0,"x_max":0,"o":"m 81 0 l 81 692 l -42 692 l -42 858 l 81 858 l 81 1013 l 396 1013 l 396 858 l 603 858 l 603 692 l 396 692 l 396 593 b 386 490 396 561 394 532 l 390 488 b 475 572 414 518 449 554 b 603 611 513 597 558 611 b 746 556 654 611 711 589 b 815 360 786 517 815 449 l 815 0 l 507 0 l 507 296 b 490 343 507 311 506 328 b 457 357 479 354 467 357 b 413 339 440 357 422 349 b 396 292 397 325 396 307 l 396 0 "},"ќ":{"ha":900,"x_min":0,"x_max":0,"o":"m 67 649 l 382 649 l 382 385 l 385 385 l 522 649 l 876 649 l 660 336 l 897 0 l 535 0 l 385 257 l 382 257 l 382 0 l 67 0 m 514 1031 l 676 929 l 474 751 l 353 828 "},"ў":{"ha":835,"x_min":0,"x_max":0,"o":"m -14 649 l 326 649 l 404 382 b 418 297 413 353 417 328 l 426 297 b 440 386 428 328 433 361 l 515 649 l 849 649 l 408 -318 l 74 -318 l 265 65 m 711 882 b 604 757 685 810 638 774 b 433 725 572 740 522 725 b 263 757 344 725 294 740 b 156 882 229 774 182 810 l 340 946 b 371 885 344 922 356 897 b 433 867 390 868 419 867 b 496 885 447 867 476 868 b 526 946 511 897 522 922 "},"џ":{"ha":875,"x_min":0,"x_max":0,"o":"m 67 649 l 382 649 l 382 231 l 493 231 l 493 649 l 808 649 l 808 0 l 560 0 l 560 -194 l 315 -194 l 315 0 l 67 0 "},"Ѣ":{"ha":1026,"x_min":0,"x_max":0,"o":"m 185 676 l 28 668 l 28 869 l 185 869 l 185 1033 l 508 1033 l 508 869 l 744 869 l 744 668 l 508 676 l 508 561 l 679 561 b 913 481 739 561 842 553 b 985 290 956 438 985 369 b 886 69 985 179 935 107 b 621 0 801 4 679 0 l 185 0 m 572 222 b 642 238 596 222 624 225 b 671 296 656 247 671 265 b 644 356 671 321 661 343 b 579 371 625 369 600 371 l 508 371 l 508 222 "},"ѣ":{"ha":911,"x_min":0,"x_max":0,"o":"m 143 0 l 143 488 l 21 479 l 21 649 l 143 649 l 143 926 l 458 926 l 458 649 l 665 649 l 665 479 l 458 488 l 458 404 l 617 404 b 821 344 675 404 760 404 b 876 204 854 311 876 260 b 817 56 876 154 857 93 b 636 0 776 18 707 0 m 501 150 b 556 163 518 150 543 154 b 576 206 574 175 576 194 b 561 251 576 228 569 243 b 508 268 546 268 526 268 l 458 268 l 458 150 "},"Ѳ":{"ha":1128,"x_min":0,"x_max":0,"o":"m 1076 464 b 949 128 1076 314 1022 204 b 564 -21 869 47 740 -21 b 179 128 388 -21 258 47 b 51 464 106 204 51 314 b 179 799 51 613 104 722 b 564 947 258 879 388 947 b 949 799 740 947 869 879 b 1076 464 1024 722 1076 613 m 724 549 b 665 639 715 589 692 621 b 561 667 638 657 597 667 b 456 635 510 667 476 651 b 403 549 431 615 411 585 m 397 399 b 453 294 403 347 428 314 b 561 260 488 267 528 260 b 671 293 606 260 644 272 b 729 399 700 317 722 357 "},"ѳ":{"ha":869,"x_min":0,"x_max":0,"o":"m 831 324 b 738 92 831 244 800 156 b 435 -18 685 38 590 -18 b 132 92 279 -18 185 38 b 39 324 69 156 39 244 b 132 557 39 417 78 501 b 435 667 185 611 279 667 b 738 557 590 667 685 611 b 831 324 792 501 831 417 m 538 381 b 504 438 532 403 519 425 b 435 458 488 451 461 458 b 367 436 403 458 382 449 b 335 381 353 425 340 407 m 335 272 b 365 211 338 247 350 224 b 436 190 382 197 408 190 b 507 214 458 190 486 194 b 538 272 521 226 533 247 "},"Ѵ":{"ha":1007,"x_min":0,"x_max":0,"o":"m 0 926 l 351 926 l 481 490 b 501 367 492 454 499 400 l 510 367 b 529 490 511 404 518 451 l 656 926 l 1007 926 l 649 0 l 360 0 "},"ѵ":{"ha":828,"x_min":0,"x_max":0,"o":"m -14 649 l 326 649 l 397 408 b 410 343 401 393 407 364 l 419 343 b 431 408 419 356 422 381 l 503 649 l 842 649 l 560 0 l 272 0 "},"Ґ":{"ha":817,"x_min":0,"x_max":0,"o":"m 93 0 l 93 926 l 483 926 l 483 1129 l 775 1129 l 775 663 l 429 663 l 429 0 "},"ґ":{"ha":726,"x_min":0,"x_max":0,"o":"m 67 649 l 453 649 l 453 839 l 699 839 l 699 404 l 382 404 l 382 0 l 67 0 "},"Ғ":{"ha":836,"x_min":0,"x_max":0,"o":"m 485 0 l 149 0 l 149 301 l 7 301 l 7 544 l 149 544 l 149 926 l 794 926 l 794 663 l 485 663 l 485 544 l 707 544 l 707 301 l 485 301 "},"ғ":{"ha":714,"x_min":0,"x_max":0,"o":"m 124 164 l 7 164 l 7 336 l 124 336 l 124 649 l 672 649 l 672 404 l 439 404 l 439 336 l 592 336 l 592 164 l 439 164 l 439 0 l 124 0 "},"Ҕ":{"ha":972,"x_min":0,"x_max":0,"o":"m 740 926 l 740 663 l 417 663 l 417 522 b 614 554 503 550 576 554 b 854 469 678 554 779 544 b 931 267 889 433 931 371 b 849 51 931 165 893 93 b 615 -22 776 -17 672 -22 b 465 0 563 -22 515 -15 l 508 199 b 556 182 521 188 535 182 b 599 203 574 182 588 186 b 613 254 611 219 613 240 b 590 311 613 271 610 294 b 519 332 568 331 532 332 b 417 313 501 332 471 329 l 417 0 l 93 0 l 93 926 "},"ҕ":{"ha":811,"x_min":0,"x_max":0,"o":"m 67 649 l 615 649 l 615 404 l 382 404 l 382 336 l 431 336 b 707 251 533 336 633 326 b 783 40 772 185 783 104 b 701 -197 783 -28 772 -126 b 397 -289 633 -265 525 -289 l 379 -289 l 379 -117 b 456 -89 417 -117 440 -104 b 492 22 478 -68 492 -31 b 458 119 492 74 476 103 b 382 144 444 132 421 144 l 382 0 l 67 0 "},"Җ":{"ha":1446,"x_min":0,"x_max":0,"o":"m 569 299 b 576 386 569 329 571 354 l 569 386 b 528 297 551 343 542 325 l 379 0 l 3 0 l 303 472 l 18 926 l 379 926 l 524 626 b 569 522 529 614 538 597 l 576 522 b 569 639 571 564 569 597 l 569 926 l 886 926 l 886 639 b 879 522 886 597 885 564 l 886 522 b 932 626 919 599 925 614 l 1079 926 l 1426 926 l 1153 472 l 1279 283 l 1432 283 l 1432 -185 l 1146 -185 l 1146 0 l 1086 0 l 928 297 b 886 386 913 326 899 357 l 879 386 b 886 299 885 354 886 329 l 886 0 l 569 0 "},"җ":{"ha":1268,"x_min":0,"x_max":0,"o":"m 482 257 l 346 0 l 3 0 l 228 331 l 21 649 l 360 649 l 482 382 l 482 649 l 782 649 l 782 382 l 904 649 l 1225 649 l 1042 342 l 1122 231 l 1247 231 l 1247 -182 l 1008 -182 l 1008 0 l 940 0 l 782 257 l 782 0 l 482 0 "},"Ҙ":{"ha":900,"x_min":0,"x_max":0,"o":"m 76 839 b 228 906 119 861 179 889 b 443 940 303 931 372 940 b 703 881 538 940 636 922 b 815 674 754 847 815 785 b 776 546 815 613 796 571 b 690 478 757 521 726 496 b 792 419 736 467 769 443 b 849 274 821 389 849 342 b 772 83 849 201 821 132 b 558 -3 725 36 647 0 l 558 -207 l 272 -207 l 272 0 b 42 86 217 8 142 26 l 154 336 b 258 265 183 310 221 282 b 381 239 301 246 343 239 b 463 254 403 239 440 243 b 494 301 489 268 494 288 b 465 342 494 318 483 333 b 383 351 449 349 408 351 l 261 351 l 261 583 l 372 583 b 447 590 422 583 440 588 b 485 635 483 601 485 626 b 450 678 485 644 479 664 b 381 690 440 682 418 690 b 178 606 304 690 236 657 "},"ҙ":{"ha":731,"x_min":0,"x_max":0,"o":"m 51 594 b 178 643 94 615 133 631 b 356 667 244 663 293 667 b 564 625 438 667 508 656 b 664 469 649 579 664 511 b 631 376 664 428 649 397 b 575 336 617 360 597 346 l 575 331 b 653 288 601 324 632 310 b 692 189 675 264 692 229 b 631 53 692 149 676 96 b 486 -8 576 1 517 -7 l 486 -194 l 242 -194 l 242 -8 b 28 61 179 -3 114 15 l 111 256 b 207 197 140 232 176 210 b 308 178 219 192 260 178 b 378 188 324 178 361 181 b 403 221 397 196 403 211 b 375 253 403 229 400 246 b 307 258 358 258 319 258 l 218 258 l 218 404 l 299 404 b 361 410 318 404 346 406 b 392 439 386 415 392 429 b 365 471 392 447 388 463 b 307 479 349 476 322 479 b 206 457 272 479 233 468 b 122 408 181 446 149 428 "},"Қ":{"ha":999,"x_min":0,"x_max":0,"o":"m 93 0 l 93 926 l 415 926 l 415 639 b 408 522 415 597 414 564 l 415 522 b 464 626 435 575 447 596 l 624 926 l 979 926 l 699 472 l 829 283 l 985 283 l 985 -185 l 699 -185 l 699 0 l 629 0 l 460 297 b 415 386 443 325 428 358 l 408 386 b 415 299 414 354 415 329 l 415 0 "},"қ":{"ha":894,"x_min":0,"x_max":0,"o":"m 67 649 l 382 649 l 382 385 l 522 649 l 858 649 l 660 336 l 749 231 l 874 231 l 874 -182 l 635 -182 l 635 0 l 551 0 l 382 257 l 382 0 l 67 0 "},"Ҝ":{"ha":1232,"x_min":0,"x_max":0,"o":"m 415 0 l 93 0 l 93 926 l 415 926 l 415 558 l 485 558 l 485 754 l 653 754 l 653 533 b 701 638 669 579 683 604 l 861 926 l 1214 926 l 925 472 l 1222 0 l 856 0 l 697 297 b 653 386 683 325 672 343 l 653 221 l 485 221 l 485 353 l 415 353 "},"ҝ":{"ha":1069,"x_min":0,"x_max":0,"o":"m 375 0 l 67 0 l 67 649 l 375 649 l 375 390 l 426 390 l 426 522 l 576 522 l 576 385 l 579 385 l 717 649 l 1054 649 l 838 336 l 1067 0 l 721 0 l 579 257 l 576 257 l 576 108 l 426 108 l 426 251 l 375 251 "},"Ҡ":{"ha":1189,"x_min":0,"x_max":0,"o":"m 254 0 l 254 663 l 14 663 l 14 926 l 576 926 l 576 639 b 569 522 576 597 575 564 l 576 522 b 625 626 596 575 608 596 l 785 926 l 1149 926 l 860 472 l 1179 0 l 790 0 l 621 297 b 576 386 604 325 589 358 l 569 386 b 576 299 575 354 576 329 l 576 0 "},"ҡ":{"ha":1044,"x_min":0,"x_max":0,"o":"m 211 404 l 28 404 l 28 649 l 526 649 l 526 385 l 529 385 l 667 649 l 1021 649 l 804 336 l 1042 0 l 679 0 l 529 257 l 526 257 l 526 0 l 211 0 "},"Ң":{"ha":1113,"x_min":0,"x_max":0,"o":"m 93 0 l 93 926 l 417 926 l 417 613 l 622 613 l 622 926 l 946 926 l 946 283 l 1078 283 l 1078 -185 l 792 -185 l 792 0 l 622 0 l 622 322 l 417 322 l 417 0 "},"ң":{"ha":935,"x_min":0,"x_max":0,"o":"m 67 649 l 382 649 l 382 442 l 496 442 l 496 649 l 811 649 l 811 231 l 907 231 l 907 -182 l 661 -182 l 661 0 l 496 0 l 496 222 l 382 222 l 382 0 l 67 0 "},"Ҥ":{"ha":1239,"x_min":0,"x_max":0,"o":"m 93 0 l 93 926 l 417 926 l 417 613 l 622 613 l 622 926 l 1218 926 l 1218 663 l 946 663 l 946 0 l 622 0 l 622 322 l 417 322 l 417 0 "},"ҥ":{"ha":1031,"x_min":0,"x_max":0,"o":"m 67 649 l 382 649 l 382 442 l 496 442 l 496 649 l 1003 649 l 1003 404 l 811 404 l 811 0 l 496 0 l 496 222 l 382 222 l 382 0 l 67 0 "},"Ҫ":{"ha":821,"x_min":0,"x_max":0,"o":"m 761 28 b 694 4 740 21 718 11 l 694 -207 l 408 -207 l 408 0 b 174 106 313 8 231 50 b 51 446 104 175 51 293 b 190 806 51 622 121 738 b 544 940 253 867 367 940 b 761 904 621 940 696 926 l 771 551 b 575 643 732 590 660 643 b 440 586 522 643 474 622 b 392 463 408 551 392 503 b 446 335 392 417 411 369 b 581 282 474 307 517 282 b 771 369 667 282 732 328 "},"ҫ":{"ha":617,"x_min":0,"x_max":0,"o":"m 565 22 b 511 1 549 14 532 7 l 511 -194 l 267 -194 l 267 -4 b 108 93 224 4 161 25 b 39 311 72 140 39 213 b 139 574 39 426 81 515 b 388 667 214 649 306 667 b 574 633 438 667 497 661 l 574 369 b 456 421 521 417 478 421 b 386 396 432 421 407 417 b 360 328 369 378 360 351 b 386 260 360 300 369 276 b 453 232 403 243 425 232 b 578 283 497 232 544 253 "},"Ү":{"ha":951,"x_min":0,"x_max":0,"o":"m -10 926 l 371 926 l 450 757 b 475 683 456 744 467 718 l 485 683 b 510 757 492 722 501 736 l 582 926 l 961 926 l 644 399 l 644 0 l 313 0 l 313 399 "},"ү":{"ha":835,"x_min":0,"x_max":0,"o":"m 319 649 l 397 368 b 418 283 406 339 411 324 l 426 283 b 447 372 433 321 440 346 l 522 649 l 849 649 l 576 18 l 576 -318 l 261 -318 l 261 18 l -14 649 "},"Ұ":{"ha":951,"x_min":0,"x_max":0,"o":"m 313 176 l 63 176 l 63 410 l 313 410 l 313 436 l -10 926 l 371 926 l 450 757 b 475 683 456 744 467 718 l 485 683 b 510 757 492 722 501 736 l 582 926 l 961 926 l 644 436 l 644 410 l 894 410 l 894 176 l 644 176 l 644 0 l 313 0 "},"ұ":{"ha":835,"x_min":0,"x_max":0,"o":"m 319 649 l 399 390 b 418 308 406 367 413 347 l 426 308 b 446 394 431 343 438 364 l 522 649 l 849 649 l 576 76 l 576 53 l 767 53 l 767 -139 l 576 -139 l 576 -318 l 261 -318 l 261 -139 l 71 -139 l 71 53 l 261 53 l 261 76 l -14 649 "},"Ҳ":{"ha":1013,"x_min":0,"x_max":0,"o":"m 32 926 l 413 926 l 489 781 b 510 718 497 764 506 735 l 517 718 b 539 781 522 742 529 761 l 610 926 l 990 926 l 700 493 l 840 283 l 999 283 l 999 -185 l 713 -185 l 713 0 l 642 0 l 540 199 b 522 254 532 217 525 236 l 513 254 b 493 203 508 239 500 215 l 383 0 l 0 0 l 324 493 "},"ҳ":{"ha":896,"x_min":0,"x_max":0,"o":"m 24 649 l 388 649 l 435 557 b 449 515 442 544 446 532 l 457 515 b 472 557 461 533 467 544 l 519 649 l 882 649 l 640 342 l 738 231 l 869 231 l 869 -182 l 631 -182 l 631 0 l 550 0 l 488 85 b 456 143 475 101 463 125 l 449 143 b 429 93 444 124 438 108 l 379 0 l -3 0 l 271 338 "},"Ҷ":{"ha":1081,"x_min":0,"x_max":0,"o":"m 590 0 l 590 324 b 410 307 525 311 471 307 b 133 389 319 307 203 317 b 69 594 75 449 69 521 l 69 926 l 393 926 l 393 676 b 417 597 393 650 394 618 b 492 575 438 578 471 575 b 590 583 525 575 561 578 l 590 926 l 914 926 l 914 283 l 1046 283 l 1046 -185 l 760 -185 l 760 0 "},"ҷ":{"ha":913,"x_min":0,"x_max":0,"o":"m 474 0 l 474 196 b 333 182 426 186 385 182 b 103 249 269 182 163 188 b 47 413 50 301 47 378 l 47 649 l 363 649 l 363 475 b 379 419 363 469 363 436 b 429 404 386 413 400 404 b 474 413 447 404 460 407 l 474 649 l 789 649 l 789 231 l 885 231 l 885 -182 l 639 -182 l 639 0 "},"Ҹ":{"ha":1129,"x_min":0,"x_max":0,"o":"m 713 926 l 1036 926 l 1036 0 l 713 0 l 713 342 b 643 326 692 335 668 329 l 643 175 l 488 175 l 488 310 b 136 389 429 304 231 294 b 69 594 72 453 69 532 l 69 926 l 386 926 l 386 660 b 410 581 386 633 388 601 b 488 556 428 564 461 554 l 488 754 l 643 754 l 643 553 b 713 565 668 553 692 557 "},"ҹ":{"ha":986,"x_min":0,"x_max":0,"o":"m 604 649 l 919 649 l 919 0 l 604 0 l 604 214 b 553 200 589 207 572 201 l 553 94 l 408 94 l 408 182 b 106 249 240 172 153 201 b 47 413 53 301 47 369 l 47 649 l 339 649 l 339 454 b 358 399 339 444 340 415 b 408 383 369 389 390 382 l 408 522 l 553 522 l 553 386 b 604 397 571 386 588 390 "},"Һ":{"ha":1007,"x_min":0,"x_max":0,"o":"m 417 603 b 592 619 468 613 526 619 b 869 535 721 619 814 589 b 938 332 932 472 938 400 l 938 0 l 614 0 l 614 250 b 589 331 614 271 613 308 b 506 351 568 349 532 351 b 417 343 474 351 444 349 l 417 0 l 93 0 l 93 926 l 417 926 "},"һ":{"ha":868,"x_min":0,"x_max":0,"o":"m 67 0 l 67 1013 l 382 1013 l 382 649 b 372 546 382 617 381 588 l 376 543 b 461 628 400 574 435 610 b 589 667 499 653 544 667 b 732 611 640 667 697 644 b 801 415 772 572 801 504 l 801 0 l 493 0 l 493 351 b 476 399 493 367 492 383 b 443 413 465 410 453 413 b 399 394 426 413 408 404 b 382 347 383 381 382 363 l 382 0 "},"Ӏ":{"ha":522,"x_min":0,"x_max":0,"o":"m 93 0 l 93 926 l 429 926 l 429 0 "},"Ӂ":{"ha":1456,"x_min":0,"x_max":0,"o":"m 569 299 b 576 386 569 329 571 354 l 569 386 b 528 297 551 343 542 325 l 379 0 l 3 0 l 303 472 l 18 926 l 379 926 l 524 626 b 569 522 529 614 538 597 l 576 522 b 569 639 571 564 569 597 l 569 926 l 886 926 l 886 639 b 879 522 886 597 885 564 l 886 522 b 932 626 918 594 926 617 l 1074 926 l 1435 926 l 1153 472 l 1453 0 l 1076 0 l 928 297 b 886 386 914 325 904 343 l 879 386 b 886 299 885 354 886 329 l 886 0 l 569 0 m 1019 1171 b 900 1049 997 1124 961 1079 b 725 1014 844 1021 788 1014 b 549 1049 672 1014 608 1018 b 431 1171 507 1069 461 1107 l 614 1244 b 649 1188 619 1224 632 1201 b 726 1167 665 1175 692 1167 b 801 1188 750 1167 779 1169 b 836 1244 818 1201 831 1224 "},"ӂ":{"ha":1264,"x_min":0,"x_max":0,"o":"m 482 257 l 478 257 l 346 0 l 3 0 l 228 331 l 21 649 l 360 649 l 478 382 l 482 382 l 482 649 l 782 649 l 782 382 l 786 382 l 904 649 l 1243 649 l 1036 331 l 1261 0 l 918 0 l 786 257 l 782 257 l 782 0 l 482 0 m 913 882 b 806 757 886 810 839 774 b 635 725 774 740 724 725 b 464 757 546 725 496 740 b 357 882 431 774 383 810 l 542 946 b 572 885 546 922 557 897 b 635 867 592 868 621 867 b 697 885 649 867 678 868 b 728 946 713 897 724 922 "},"Ӄ":{"ha":975,"x_min":0,"x_max":0,"o":"m 93 0 l 93 926 l 415 926 l 415 639 b 408 522 415 597 414 564 l 415 522 b 471 647 421 536 454 613 l 611 926 l 954 926 l 725 538 b 874 468 789 529 840 501 b 943 288 931 413 943 340 b 860 50 943 194 914 104 b 658 -21 797 -12 719 -21 b 478 14 597 -21 540 -11 l 522 218 b 574 183 536 194 551 183 b 611 204 593 183 606 196 b 625 260 619 217 625 242 b 601 322 625 282 615 308 b 540 343 583 340 556 343 b 465 324 513 343 489 338 b 415 285 450 315 431 299 l 415 0 "},"ӄ":{"ha":847,"x_min":0,"x_max":0,"o":"m 67 649 l 382 649 l 382 385 l 385 385 l 522 649 l 826 649 l 628 314 b 768 225 699 300 742 260 b 818 49 810 168 818 107 b 735 -197 818 -69 781 -150 b 426 -289 658 -275 532 -289 l 408 -289 l 408 -117 l 413 -117 b 485 -89 433 -117 461 -112 b 521 31 518 -54 521 8 b 488 136 521 63 517 107 b 392 167 458 165 422 167 l 382 167 l 382 0 l 67 0 "},"Ӈ":{"ha":1039,"x_min":0,"x_max":0,"o":"m 93 0 l 93 926 l 417 926 l 417 613 l 622 613 l 622 926 l 946 926 l 946 -62 b 879 -258 946 -112 942 -200 b 665 -319 815 -318 718 -319 b 514 -304 613 -319 571 -318 l 514 -101 b 563 -117 522 -108 538 -117 b 607 -100 583 -117 599 -110 b 622 -36 614 -92 622 -75 l 622 322 l 417 322 l 417 0 "},"ӈ":{"ha":878,"x_min":0,"x_max":0,"o":"m 67 649 l 382 649 l 382 442 l 496 442 l 496 649 l 811 649 l 811 -90 b 749 -265 811 -126 807 -211 b 551 -319 697 -312 613 -319 b 389 -303 481 -319 428 -311 l 389 -101 b 433 -111 401 -107 415 -111 b 481 -96 453 -111 471 -107 b 496 -42 494 -82 496 -56 l 496 222 l 382 222 l 382 0 l 67 0 "},"Ӑ":{"ha":1024,"x_min":0,"x_max":0,"o":"m 381 115 l 356 0 l 0 0 l 321 926 l 693 926 l 1024 0 l 667 0 l 636 115 m 535 513 b 517 617 526 549 521 583 l 504 617 b 489 513 503 578 497 546 l 443 335 l 578 335 l 535 513 m 808 1171 b 689 1049 786 1124 750 1079 b 514 1014 633 1021 576 1014 b 338 1049 461 1014 397 1018 b 219 1171 296 1069 250 1107 l 403 1244 b 438 1188 408 1224 421 1201 b 515 1167 454 1175 481 1167 b 590 1188 539 1167 568 1169 b 625 1244 607 1201 619 1224 "},"ӑ":{"ha":888,"x_min":0,"x_max":0,"o":"m 519 575 b 508 631 510 600 508 619 l 508 649 l 821 649 l 821 0 l 510 0 l 511 22 b 524 82 513 40 518 65 l 514 82 b 319 -18 440 -10 360 -18 b 136 58 254 -18 192 1 b 39 321 81 115 39 203 b 140 589 39 436 79 528 b 332 667 189 638 250 667 b 513 571 372 667 447 658 m 353 325 b 381 257 353 293 365 272 b 435 235 396 242 414 235 b 489 256 454 235 472 240 b 519 328 507 274 519 299 b 492 396 519 358 507 382 b 438 417 478 408 460 417 b 381 394 417 417 396 410 b 353 325 365 379 353 356 m 764 882 b 657 757 738 810 690 774 b 486 725 625 740 575 725 b 315 757 397 725 347 740 b 208 882 282 774 235 810 l 393 946 b 424 885 397 922 408 897 b 486 867 443 868 472 867 b 549 885 500 867 529 868 b 579 946 564 897 575 922 "},"Ӓ":{"ha":1024,"x_min":0,"x_max":0,"o":"m 381 115 l 356 0 l 0 0 l 321 926 l 693 926 l 1024 0 l 667 0 l 636 115 m 535 513 b 517 617 526 549 521 583 l 504 617 b 489 513 503 578 497 546 l 443 335 l 578 335 l 535 513 m 228 1126 b 353 1251 228 1196 282 1251 b 479 1126 424 1251 479 1196 b 353 1000 479 1056 424 1000 b 228 1126 282 1000 228 1056 m 543 1126 b 668 1251 543 1196 597 1251 b 794 1126 739 1251 794 1196 b 668 1000 794 1056 739 1000 b 543 1126 597 1000 543 1056 "},"ӓ":{"ha":888,"x_min":0,"x_max":0,"o":"m 519 575 b 508 631 510 600 508 619 l 508 649 l 821 649 l 821 0 l 510 0 l 511 22 b 524 82 513 40 518 65 l 514 82 b 319 -18 440 -10 360 -18 b 136 58 254 -18 192 1 b 39 321 81 115 39 203 b 140 589 39 436 79 528 b 332 667 189 638 250 667 b 513 571 372 667 447 658 m 353 325 b 381 257 353 293 365 272 b 435 235 396 242 414 235 b 489 256 454 235 472 240 b 519 328 507 274 519 299 b 492 396 519 358 507 382 b 438 417 478 408 460 417 b 381 394 417 417 396 410 b 353 325 365 379 353 356 m 203 864 b 328 990 203 935 257 990 b 454 864 399 990 454 935 b 328 738 454 793 399 738 b 203 864 257 738 203 793 m 504 864 b 629 990 504 935 558 990 b 756 864 700 990 756 935 b 629 738 756 793 700 738 b 504 864 558 738 504 793 "},"Ӕ":{"ha":1315,"x_min":0,"x_max":0,"o":"m 10 0 l 332 926 l 983 926 l 1068 672 l 792 672 l 821 586 l 1099 586 l 1183 343 l 910 343 l 940 254 l 1218 254 l 1307 0 l 675 0 l 644 115 l 392 115 l 363 0 m 532 539 b 522 617 525 564 521 589 l 513 617 b 499 524 511 585 506 553 l 450 335 l 588 335 "},"ӕ":{"ha":1394,"x_min":0,"x_max":0,"o":"m 1340 218 b 1193 38 1314 133 1265 79 b 971 -18 1124 -3 1051 -18 b 789 13 915 -18 840 -7 b 667 93 728 35 689 69 b 539 17 625 58 583 35 b 346 -18 471 -11 411 -18 b 96 69 221 -18 143 21 b 39 213 63 104 39 151 b 94 353 39 281 68 326 b 332 432 163 424 267 432 b 524 401 385 432 444 426 b 494 486 525 436 511 469 b 367 522 463 519 392 522 b 65 460 317 522 221 515 l 65 617 b 383 667 156 642 278 667 b 554 639 425 667 497 664 b 667 553 599 621 638 589 b 779 629 694 579 731 607 b 960 667 839 657 893 667 b 1260 554 1103 667 1199 618 b 1356 288 1343 468 1356 368 l 1356 276 l 894 276 l 894 268 b 918 185 894 244 900 203 b 971 167 928 175 946 167 b 1013 181 986 167 1000 168 b 1031 218 1021 189 1028 201 m 1047 411 b 1019 475 1046 432 1036 460 b 971 494 1007 486 989 494 b 924 478 951 494 935 489 b 897 411 907 463 897 433 m 449 279 b 356 258 419 279 382 276 b 329 213 339 247 329 233 b 363 161 329 185 343 171 b 447 147 389 149 428 147 b 551 168 482 147 518 151 b 593 218 586 185 593 206 b 546 265 593 232 586 253 b 449 279 521 274 482 279 "},"Ӗ":{"ha":778,"x_min":0,"x_max":0,"o":"m 93 0 l 93 926 l 718 926 l 718 672 l 429 672 l 429 586 l 692 586 l 692 343 l 429 343 l 429 254 l 726 254 l 726 0 m 697 1171 b 578 1049 675 1124 639 1079 b 403 1014 522 1021 465 1014 b 226 1049 350 1014 286 1018 b 108 1171 185 1069 139 1107 l 292 1244 b 326 1188 297 1224 310 1201 b 404 1167 343 1175 369 1167 b 479 1188 428 1167 457 1169 b 514 1244 496 1201 508 1224 "},"ӗ":{"ha":851,"x_min":0,"x_max":0,"o":"m 353 272 b 376 178 351 242 358 197 b 424 160 383 169 399 160 b 471 178 444 160 460 168 b 492 215 481 186 488 201 l 800 215 b 735 104 785 167 763 135 b 438 -18 669 31 589 -18 b 131 89 339 -18 218 1 b 39 315 90 129 39 203 b 136 560 39 407 74 497 b 425 667 197 619 294 667 b 704 564 549 667 640 626 b 813 308 774 497 813 399 l 813 272 m 504 407 b 476 472 503 429 493 457 b 426 490 465 483 447 490 b 381 474 410 490 392 483 b 356 407 365 460 356 429 m 715 882 b 608 757 689 810 642 774 b 438 725 576 740 526 725 b 267 757 349 725 299 740 b 160 882 233 774 186 810 l 344 946 b 375 885 349 922 360 897 b 438 867 394 868 424 867 b 500 885 451 867 481 868 b 531 946 515 897 526 922 "},"Ә":{"ha":1090,"x_min":0,"x_max":0,"o":"m 74 644 b 257 874 117 758 192 832 b 543 947 324 915 415 947 b 904 818 725 947 839 882 b 1039 465 969 754 1039 638 b 907 115 1039 307 979 189 b 528 -21 796 1 650 -21 b 179 107 413 -21 281 1 b 51 503 67 225 51 378 l 51 536 l 699 536 b 644 657 694 581 674 629 b 525 700 608 693 563 700 b 424 668 485 700 451 690 b 369 593 399 649 379 619 m 347 358 b 399 256 351 315 374 276 b 521 221 428 232 474 221 b 639 254 553 221 600 225 b 699 358 664 272 692 307 "},"ә":{"ha":851,"x_min":0,"x_max":0,"o":"m 499 376 b 475 468 499 392 499 442 b 418 489 458 486 435 489 b 364 468 396 489 379 483 b 339 425 353 457 343 439 l 61 478 b 196 617 79 514 119 574 b 419 667 271 658 353 667 b 721 561 503 667 628 654 b 813 333 761 521 813 449 b 715 89 813 240 778 151 b 426 -18 654 29 557 -18 b 147 85 303 -18 211 22 b 39 340 78 151 39 250 l 39 376 m 347 242 b 375 176 349 219 358 192 b 425 158 386 165 404 158 b 471 175 442 158 460 165 b 496 242 486 189 496 219 "},"Ӛ":{"ha":1090,"x_min":0,"x_max":0,"o":"m 74 644 b 257 874 117 758 192 832 b 543 947 324 915 415 947 b 904 818 725 947 839 882 b 1039 465 969 754 1039 638 b 907 115 1039 307 979 189 b 528 -21 796 1 650 -21 b 179 107 413 -21 281 1 b 51 503 67 225 51 378 l 51 536 l 699 536 b 644 657 694 581 674 629 b 525 700 608 693 563 700 b 424 668 485 700 451 690 b 369 593 399 649 379 619 m 347 358 b 399 256 351 315 374 276 b 521 221 428 232 474 221 b 639 254 553 221 600 225 b 699 358 664 272 692 307 m 244 1126 b 369 1251 244 1196 299 1251 b 496 1126 440 1251 496 1196 b 369 1000 496 1056 440 1000 b 244 1126 299 1000 244 1056 m 560 1126 b 685 1251 560 1196 614 1251 b 811 1126 756 1251 811 1196 b 685 1000 811 1056 756 1000 b 560 1126 614 1000 560 1056 "},"ӛ":{"ha":851,"x_min":0,"x_max":0,"o":"m 499 376 b 475 468 499 392 499 442 b 418 489 458 486 435 489 b 364 468 396 489 379 483 b 339 425 353 457 343 439 l 61 478 b 196 617 79 514 119 574 b 419 667 271 658 353 667 b 721 561 503 667 628 654 b 813 333 761 521 813 449 b 715 89 813 240 778 151 b 426 -18 654 29 557 -18 b 147 85 303 -18 211 22 b 39 340 78 151 39 250 l 39 376 m 347 242 b 375 176 349 219 358 192 b 425 158 386 165 404 158 b 471 175 442 158 460 165 b 496 242 486 189 496 219 m 147 864 b 272 990 147 935 201 990 b 399 864 343 990 399 935 b 272 738 399 793 343 738 b 147 864 201 738 147 793 m 449 864 b 574 990 449 935 503 990 b 700 864 644 990 700 935 b 574 738 700 793 644 738 b 449 864 503 738 449 793 "},"Ӝ":{"ha":1456,"x_min":0,"x_max":0,"o":"m 569 299 b 576 386 569 329 571 354 l 569 386 b 528 297 551 343 542 325 l 379 0 l 3 0 l 303 472 l 18 926 l 379 926 l 524 626 b 569 522 529 614 538 597 l 576 522 b 569 639 571 564 569 597 l 569 926 l 886 926 l 886 639 b 879 522 886 597 885 564 l 886 522 b 932 626 918 594 926 617 l 1074 926 l 1435 926 l 1153 472 l 1453 0 l 1076 0 l 928 297 b 886 386 914 325 904 343 l 879 386 b 886 299 885 354 886 329 l 886 0 l 569 0 m 418 1126 b 543 1251 418 1196 472 1251 b 669 1126 614 1251 669 1196 b 543 1000 669 1056 614 1000 b 418 1126 472 1000 418 1056 m 733 1126 b 858 1251 733 1196 788 1251 b 985 1126 929 1251 985 1196 b 858 1000 985 1056 929 1000 b 733 1126 788 1000 733 1056 "},"ӝ":{"ha":1264,"x_min":0,"x_max":0,"o":"m 482 257 l 478 257 l 346 0 l 3 0 l 228 331 l 21 649 l 360 649 l 478 382 l 482 382 l 482 649 l 782 649 l 782 382 l 786 382 l 904 649 l 1243 649 l 1036 331 l 1261 0 l 918 0 l 786 257 l 782 257 l 782 0 l 482 0 m 356 864 b 481 990 356 935 410 990 b 607 864 551 990 607 935 b 481 738 607 793 551 738 b 356 864 410 738 356 793 m 657 864 b 782 990 657 935 711 990 b 908 864 853 990 908 935 b 782 738 908 793 853 738 b 657 864 711 738 657 793 "},"Ӟ":{"ha":900,"x_min":0,"x_max":0,"o":"m 76 846 b 244 918 113 865 171 896 b 443 947 310 939 368 947 b 703 886 593 947 671 907 b 815 674 765 846 815 781 b 776 546 815 610 794 569 b 690 482 757 521 726 496 l 690 478 b 799 411 736 464 774 439 b 849 272 832 375 849 331 b 713 38 849 182 807 93 b 433 -21 650 1 563 -21 b 203 10 354 -21 279 -14 b 42 79 128 32 65 65 l 154 329 b 258 258 183 303 221 275 b 382 232 301 239 343 232 b 463 247 410 232 443 238 b 494 296 483 257 494 272 b 464 342 494 317 486 332 b 383 351 444 350 403 351 l 261 351 l 261 583 l 372 583 b 447 590 422 583 440 588 b 485 636 467 596 485 608 b 450 685 485 667 463 679 b 379 697 424 696 393 697 b 267 672 342 697 300 688 b 178 613 238 660 204 636 m 140 1126 b 265 1251 140 1196 194 1251 b 392 1126 336 1251 392 1196 b 265 1000 392 1056 336 1000 b 140 1126 194 1000 140 1056 m 456 1126 b 581 1251 456 1196 510 1251 b 707 1126 651 1251 707 1196 b 581 1000 707 1056 651 1000 b 456 1126 510 1000 456 1056 "},"ӟ":{"ha":731,"x_min":0,"x_max":0,"o":"m 51 594 b 178 643 94 617 133 631 b 347 667 239 660 283 667 b 564 625 453 667 519 649 b 664 467 649 579 664 511 b 625 368 664 425 649 393 b 575 336 610 353 593 343 l 575 331 b 653 288 608 322 635 306 b 692 188 671 268 692 236 b 588 22 692 128 661 61 b 361 -18 550 3 488 -18 b 156 8 288 -18 222 -11 b 28 61 113 21 67 40 l 111 256 b 207 200 142 232 175 213 b 308 181 243 186 274 181 b 378 190 351 181 369 186 b 403 226 401 201 403 217 b 375 257 403 238 396 250 b 307 263 358 263 319 263 l 218 263 l 218 401 l 299 401 b 361 407 317 401 346 403 b 392 439 372 410 392 417 b 365 474 392 449 388 464 b 308 482 350 479 328 482 b 206 460 271 482 239 475 b 122 411 165 442 133 419 m 92 864 b 217 990 92 935 146 990 b 343 864 288 990 343 935 b 217 738 343 793 288 738 b 92 864 146 738 92 793 m 393 864 b 518 990 393 935 447 990 b 644 864 589 990 644 935 b 518 738 644 793 589 738 b 393 864 447 738 393 793 "},"Ӣ":{"ha":1067,"x_min":0,"x_max":0,"o":"m 413 926 l 413 597 b 396 426 413 549 404 475 l 408 426 b 469 565 424 467 449 529 l 672 926 l 974 926 l 974 0 l 654 0 l 654 315 b 671 486 654 367 663 440 l 658 486 b 597 347 644 446 617 381 l 394 0 l 93 0 l 93 926 m 281 1036 l 281 1181 l 786 1181 l 786 1036 "},"ӣ":{"ha":907,"x_min":0,"x_max":0,"o":"m 372 649 l 372 432 b 358 322 372 401 365 356 l 367 321 b 396 385 372 335 386 368 l 542 649 l 840 649 l 840 0 l 535 0 l 535 221 b 549 331 535 251 542 297 l 540 332 b 511 268 535 317 521 286 l 365 0 l 67 0 l 67 649 m 217 756 l 217 894 l 689 894 l 689 756 "},"Ӥ":{"ha":1067,"x_min":0,"x_max":0,"o":"m 413 926 l 413 597 b 396 426 413 549 404 475 l 408 426 b 469 565 424 467 449 529 l 672 926 l 974 926 l 974 0 l 654 0 l 654 315 b 671 486 654 367 663 440 l 658 486 b 597 347 644 446 617 381 l 394 0 l 93 0 l 93 926 m 250 1126 b 375 1251 250 1196 304 1251 b 501 1126 446 1251 501 1196 b 375 1000 501 1056 446 1000 b 250 1126 304 1000 250 1056 m 565 1126 b 690 1251 565 1196 619 1251 b 817 1126 761 1251 817 1196 b 690 1000 817 1056 761 1000 b 565 1126 619 1000 565 1056 "},"ӥ":{"ha":907,"x_min":0,"x_max":0,"o":"m 372 649 l 372 432 b 358 322 372 401 365 356 l 367 321 b 396 385 372 335 386 368 l 542 649 l 840 649 l 840 0 l 535 0 l 535 221 b 549 331 535 251 542 297 l 540 332 b 511 268 535 317 521 286 l 365 0 l 67 0 l 67 649 m 176 864 b 301 990 176 935 231 990 b 428 864 372 990 428 935 b 301 738 428 793 372 738 b 176 864 231 738 176 793 m 478 864 b 603 990 478 935 532 990 b 729 864 674 990 729 935 b 603 738 729 793 674 738 b 478 864 532 738 478 793 "},"Ӧ":{"ha":1131,"x_min":0,"x_max":0,"o":"m 1079 464 b 950 128 1079 315 1022 201 b 565 -21 871 47 742 -21 b 181 128 389 -21 260 47 b 51 464 108 201 51 315 b 181 799 51 611 108 725 b 565 947 260 879 389 947 b 950 799 742 947 871 879 b 1079 464 1022 725 1079 611 m 565 649 b 444 601 506 649 467 625 b 392 463 411 567 392 513 b 444 325 392 410 411 358 b 565 278 472 297 514 278 b 686 325 617 278 658 297 b 739 463 717 356 739 404 b 686 601 739 521 719 569 b 565 649 661 626 621 649 m 282 1126 b 407 1251 282 1196 336 1251 b 533 1126 478 1251 533 1196 b 407 1000 533 1056 478 1000 b 282 1126 336 1000 282 1056 m 597 1126 b 722 1251 597 1196 651 1251 b 849 1126 793 1251 849 1196 b 722 1000 849 1056 793 1000 b 597 1126 651 1000 597 1056 "},"ӧ":{"ha":869,"x_min":0,"x_max":0,"o":"m 831 325 b 738 92 831 232 792 147 b 435 -18 685 38 590 -18 b 132 92 279 -18 185 38 b 39 325 78 147 39 232 b 132 557 39 404 69 493 b 435 667 185 611 279 667 b 738 557 590 667 685 611 b 831 325 800 493 831 404 m 435 417 b 374 394 403 417 383 404 b 346 325 358 381 346 358 b 374 254 346 290 358 268 b 435 232 383 244 403 232 b 496 254 467 232 486 244 b 524 325 511 268 524 290 b 496 394 524 358 511 381 b 435 417 486 404 467 417 m 158 864 b 283 990 158 935 213 990 b 410 864 354 990 410 935 b 283 738 410 793 354 738 b 158 864 213 738 158 793 m 460 864 b 585 990 460 935 514 990 b 711 864 656 990 711 935 b 585 738 711 793 656 738 b 460 864 514 738 460 793 "},"Ө":{"ha":1128,"x_min":0,"x_max":0,"o":"m 1076 464 b 949 128 1076 314 1022 204 b 564 -21 869 47 740 -21 b 179 128 388 -21 258 47 b 51 464 106 204 51 314 b 179 799 51 613 104 722 b 564 947 258 879 388 947 b 949 799 740 947 869 879 b 1076 464 1024 722 1076 613 m 724 549 b 665 639 715 589 692 621 b 561 667 638 657 597 667 b 456 635 510 667 476 651 b 403 549 431 615 411 585 m 397 399 b 453 294 403 347 428 314 b 561 260 488 267 528 260 b 671 293 606 260 644 272 b 729 399 700 317 722 357 "},"ө":{"ha":869,"x_min":0,"x_max":0,"o":"m 831 324 b 738 92 831 244 800 156 b 435 -18 685 38 590 -18 b 132 92 279 -18 185 38 b 39 324 69 156 39 244 b 132 557 39 417 78 501 b 435 667 185 611 279 667 b 738 557 590 667 685 611 b 831 324 792 501 831 417 m 538 381 b 504 438 532 403 519 425 b 435 458 488 451 461 458 b 367 436 403 458 382 449 b 335 381 353 425 340 407 m 335 272 b 365 211 338 247 350 224 b 436 190 382 197 408 190 b 507 214 458 190 486 194 b 538 272 521 226 533 247 "},"Ӫ":{"ha":1128,"x_min":0,"x_max":0,"o":"m 1076 464 b 949 128 1076 314 1022 204 b 564 -21 869 47 740 -21 b 179 128 388 -21 258 47 b 51 464 106 204 51 314 b 179 799 51 613 104 722 b 564 947 258 879 388 947 b 949 799 740 947 869 879 b 1076 464 1024 722 1076 613 m 724 549 b 665 639 715 589 692 621 b 561 667 638 657 597 667 b 456 635 510 667 476 651 b 403 549 431 615 411 585 m 397 399 b 453 294 403 347 428 314 b 561 260 488 267 528 260 b 671 293 606 260 644 272 b 729 399 700 317 722 357 m 281 1126 b 406 1251 281 1196 335 1251 b 532 1126 476 1251 532 1196 b 406 1000 532 1056 476 1000 b 281 1126 335 1000 281 1056 m 596 1126 b 721 1251 596 1196 650 1251 b 847 1126 792 1251 847 1196 b 721 1000 847 1056 792 1000 b 596 1126 650 1000 596 1056 "},"ӫ":{"ha":869,"x_min":0,"x_max":0,"o":"m 831 324 b 738 92 831 244 800 156 b 435 -18 685 38 590 -18 b 132 92 279 -18 185 38 b 39 324 69 156 39 244 b 132 557 39 417 78 501 b 435 667 185 611 279 667 b 738 557 590 667 685 611 b 831 324 792 501 831 417 m 538 381 b 504 438 532 403 519 425 b 435 458 488 451 461 458 b 367 436 403 458 382 449 b 335 381 353 425 340 407 m 335 272 b 365 211 338 247 350 224 b 436 190 382 197 408 190 b 507 214 458 190 486 194 b 538 272 521 226 533 247 m 158 864 b 283 990 158 935 213 990 b 410 864 354 990 410 935 b 283 738 410 793 354 738 b 158 864 213 738 158 793 m 460 864 b 585 990 460 935 514 990 b 711 864 656 990 711 935 b 585 738 711 793 656 738 b 460 864 514 738 460 793 "},"Ӯ":{"ha":975,"x_min":0,"x_max":0,"o":"m 361 926 l 469 668 b 494 588 481 643 489 618 l 504 588 b 526 674 508 617 517 649 l 621 926 l 968 926 l 542 0 l 192 0 l 328 279 l 7 926 m 240 1036 l 240 1181 l 746 1181 l 746 1036 "},"ӯ":{"ha":835,"x_min":0,"x_max":0,"o":"m -14 649 l 326 649 l 404 382 b 418 297 413 353 417 328 l 426 297 b 440 386 428 328 433 361 l 515 649 l 849 649 l 408 -318 l 74 -318 l 265 65 m 181 756 l 181 894 l 653 894 l 653 756 "},"Ӱ":{"ha":975,"x_min":0,"x_max":0,"o":"m 361 926 l 469 668 b 494 588 481 643 489 618 l 504 588 b 526 674 508 617 517 649 l 621 926 l 968 926 l 542 0 l 192 0 l 328 279 l 7 926 m 208 1126 b 333 1251 208 1196 263 1251 b 460 1126 404 1251 460 1196 b 333 1000 460 1056 404 1000 b 208 1126 263 1000 208 1056 m 524 1126 b 649 1251 524 1196 578 1251 b 775 1126 719 1251 775 1196 b 649 1000 775 1056 719 1000 b 524 1126 578 1000 524 1056 "},"ӱ":{"ha":835,"x_min":0,"x_max":0,"o":"m -14 649 l 326 649 l 404 382 b 418 297 413 353 417 328 l 426 297 b 440 386 428 328 433 361 l 515 649 l 849 649 l 408 -318 l 74 -318 l 265 65 m 160 864 b 285 990 160 935 214 990 b 411 864 356 990 411 935 b 285 738 411 793 356 738 b 160 864 214 738 160 793 m 461 864 b 586 990 461 935 515 990 b 713 864 657 990 713 935 b 586 738 713 793 657 738 b 461 864 515 738 461 793 "},"Ӳ":{"ha":975,"x_min":0,"x_max":0,"o":"m 361 926 l 469 668 b 494 588 481 643 489 618 l 504 588 b 526 674 508 617 517 649 l 621 926 l 968 926 l 542 0 l 192 0 l 328 279 l 7 926 m 353 1285 l 508 1183 l 324 1006 l 214 1082 m 636 1285 l 790 1183 l 607 1006 l 497 1082 "},"ӳ":{"ha":835,"x_min":0,"x_max":0,"o":"m -14 649 l 326 649 l 404 382 b 418 297 413 353 417 328 l 426 297 b 440 386 428 328 433 361 l 515 649 l 849 649 l 408 -318 l 74 -318 l 265 65 m 311 1031 l 467 929 l 282 751 l 172 828 m 594 1031 l 749 929 l 565 751 l 456 828 "},"Ӵ":{"ha":1007,"x_min":0,"x_max":0,"o":"m 590 324 b 410 307 525 311 471 307 b 133 389 319 307 203 317 b 69 594 75 449 69 521 l 69 926 l 393 926 l 393 676 b 417 597 393 650 394 618 b 492 575 438 578 471 575 b 590 583 525 575 561 578 l 590 926 l 914 926 l 914 0 l 590 0 m 217 1126 b 342 1251 217 1196 271 1251 b 468 1126 413 1251 468 1196 b 342 1000 468 1056 413 1000 b 217 1126 271 1000 217 1056 m 532 1126 b 657 1251 532 1196 586 1251 b 783 1126 728 1251 783 1196 b 657 1000 783 1056 728 1000 b 532 1126 586 1000 532 1056 "},"ӵ":{"ha":856,"x_min":0,"x_max":0,"o":"m 474 196 b 333 182 426 186 385 182 b 103 249 269 182 163 188 b 47 413 50 301 47 378 l 47 649 l 363 649 l 363 475 b 379 419 363 469 363 436 b 429 404 386 413 400 404 b 474 413 447 404 460 407 l 474 649 l 789 649 l 789 0 l 474 0 m 154 864 b 279 990 154 935 208 990 b 406 864 350 990 406 935 b 279 738 406 793 350 738 b 154 864 208 738 154 793 m 456 864 b 581 990 456 935 510 990 b 707 864 651 990 707 935 b 581 738 707 793 651 738 b 456 864 510 738 456 793 "}}}
